<svg width="381" height="80" viewBox="0 0 381 80" fill="none" xmlns="http://www.w3.org/2000/svg">
<g clip-path="url(#clip0_409_963)">
<path d="M0 1.80182H19.6997L41.4414 26.4264C43.2432 28.7087 44.8048 30.6306 45.8859 33.0331H46.2463V24.8649V1.80182H63.4234V54.6547H44.9249L22.2222 30.03C20.9009 28.4685 18.3784 25.2252 17.6577 23.3033H17.2973V31.4715V54.6547H0V1.80182Z" fill="#00204C"/>
<path d="M68.8281 29.0691C68.8281 12.7327 82.2816 0 104.504 0C121.441 0 134.294 6.48649 137.417 17.2973L116.636 20.6607C114.954 16.6967 111.231 13.4535 104.023 13.4535C94.0533 13.4535 88.8882 19.4595 88.8882 28.9489C88.8882 37.7177 94.1735 43.7237 104.143 43.7237C113.633 43.7237 118.678 39.3994 119.279 35.4354V35.3153H101.981V24.2643H137.297V54.7748H122.762L122.161 46.006C119.519 50.4505 112.912 56.4565 98.9783 56.4565C79.8792 56.4565 68.8281 44.5646 68.8281 29.0691Z" fill="#00204C"/>
<path d="M138.617 45.5255L150.869 34.8348C156.035 39.3994 164.323 43.3634 173.452 43.3634C181.38 43.3634 185.104 41.9219 185.104 39.1592C185.104 37.1171 183.782 36.3964 179.338 35.9159L163.482 34.1141C150.029 32.4324 143.542 27.5075 143.542 17.2973C143.542 6.48649 154.233 0 172.972 0C184.623 0 195.674 2.52252 203.722 8.04805L193.152 19.2192C188.707 15.3754 180.659 12.7327 171.89 12.7327C165.524 12.7327 162.161 14.0541 162.161 16.3363C162.161 18.3784 163.722 19.2192 169.008 19.8198L182.701 21.1411C197.957 22.7027 204.083 27.1471 204.083 37.2372C204.203 49.6096 192.191 56.4565 172.371 56.4565C158.197 56.4565 144.984 51.6517 138.617 45.5255Z" fill="#00204C"/>
<path d="M303.786 32.9129H287.93V54.5345H280.723V2.04205H306.308C320.242 2.04205 324.206 9.96998 324.206 17.4174C324.206 23.3033 320.963 30.03 311.714 31.952L326.128 54.5345H317.72L303.786 32.9129ZM287.93 26.9069H305.227C313.876 26.9069 316.639 22.3424 316.639 17.4174C316.639 12.4925 313.876 8.04806 305.347 8.04806H287.93V26.9069Z" fill="#00204C"/>
<path d="M339.339 2.04199V33.3933C339.339 42.7627 345.465 49.7297 356.156 49.7297C366.847 49.7297 372.973 42.7627 372.973 33.3933V2.04199H380.3V33.7537C380.3 46.7267 371.651 55.9759 356.156 55.9759C340.66 55.9759 332.012 46.7267 332.012 33.7537V2.04199H339.339Z" fill="#00204C"/>
<path d="M12.2513 79.7596H9.84885V73.8737H3.24225V79.7596H0.839844V66.7866H3.24225V72.0719H9.84885V66.7866H12.2513V79.7596Z" fill="#00204C"/>
<path d="M29.429 73.2731C29.429 75.3152 28.8284 76.9968 27.6272 78.198C26.426 79.3992 24.7444 79.9998 22.7023 79.9998C20.5402 79.9998 18.8585 79.3992 17.6573 78.3181C16.4561 77.1169 15.8555 75.5554 15.8555 73.3932C15.8555 71.2311 16.4561 69.6695 17.6573 68.4683C18.8585 67.2671 20.5402 66.7866 22.7023 66.7866C24.8645 66.7866 26.5462 67.3872 27.6272 68.4683C28.8284 69.5494 29.429 71.1109 29.429 73.2731ZM18.378 73.2731C18.378 74.8347 18.7384 76.0359 19.4591 76.8767C20.1798 77.7176 21.2609 78.0779 22.5822 78.0779C24.0236 78.0779 24.9846 77.7176 25.7053 76.8767C26.426 76.0359 26.7864 74.8347 26.7864 73.2731C26.7864 71.7115 26.426 70.5103 25.7053 69.6695C24.9846 68.8287 23.9035 68.4683 22.5822 68.4683C21.1408 68.4683 20.0597 68.8287 19.339 69.6695C18.8585 70.5103 18.378 71.7115 18.378 73.2731Z" fill="#00204C"/>
<path d="M33.1523 66.7866H37.4767C39.3986 66.7866 40.84 67.0269 41.801 67.5073C42.6418 67.9878 43.1223 68.8287 43.1223 70.0299C43.1223 70.7506 42.8821 71.4713 42.5217 71.9518C42.0412 72.4323 41.4406 72.7926 40.5998 72.9127V73.0329C41.5608 73.153 42.4016 73.5133 42.762 73.9938C43.2424 74.4743 43.4827 75.195 43.4827 76.0359C43.4827 77.2371 43.0022 78.0779 42.1613 78.7986C41.2004 79.3992 39.9992 79.7596 38.4376 79.7596H33.2725L33.1523 66.7866ZM35.4346 72.192H37.7169C38.6779 72.192 39.3986 72.0719 39.8791 71.8317C40.3596 71.5914 40.5998 71.1109 40.5998 70.3902C40.5998 69.7896 40.3596 69.3091 39.8791 69.0689C39.3986 68.8287 38.5577 68.7085 37.5968 68.7085H35.5547L35.4346 72.192ZM35.4346 73.8737V77.9578H37.9571C38.9181 77.9578 39.6388 77.8377 40.2394 77.4773C40.7199 77.117 40.9601 76.6365 40.9601 75.9158C40.9601 75.195 40.7199 74.7146 40.2394 74.4743C39.7589 74.114 38.9181 73.9938 37.837 73.9938H35.4346V73.8737Z" fill="#00204C"/>
<path d="M59.8197 73.2731C59.8197 75.3152 59.2191 76.9968 58.0179 78.198C56.8167 79.3992 55.135 79.9998 53.0929 79.9998C50.9308 79.9998 49.2491 79.3992 48.0479 78.3181C46.8467 77.1169 46.2461 75.5554 46.2461 73.3932C46.2461 71.2311 46.8467 69.6695 48.0479 68.4683C49.2491 67.2671 50.9308 66.7866 53.0929 66.7866C55.2551 66.7866 56.9368 67.3872 58.0179 68.4683C59.2191 69.5494 59.8197 71.1109 59.8197 73.2731ZM48.7686 73.2731C48.7686 74.8347 49.129 76.0359 49.8497 76.8767C50.5704 77.7176 51.6515 78.0779 52.9728 78.0779C54.4143 78.0779 55.3752 77.7176 56.0959 76.8767C56.8167 76.0359 57.177 74.8347 57.177 73.2731C57.177 71.7115 56.8167 70.5103 56.0959 69.6695C55.3752 68.8287 54.2941 68.4683 52.9728 68.4683C51.5314 68.4683 50.4503 68.8287 49.7296 69.6695C49.129 70.5103 48.7686 71.7115 48.7686 73.2731Z" fill="#00204C"/>
<path d="M69.6711 68.4683C68.3497 68.4683 67.2687 68.9488 66.4278 69.7896C65.587 70.6305 65.2266 71.8317 65.2266 73.3932C65.2266 74.9548 65.587 76.156 66.3077 76.9968C67.0284 77.8377 68.1095 78.198 69.5509 78.198C70.1515 78.198 70.7521 78.198 71.3527 78.0779C71.9533 77.9578 72.5539 77.8377 73.1545 77.7175V79.2791C72.0735 79.6395 70.7521 79.8797 69.3107 79.8797C67.2687 79.8797 65.587 79.2791 64.5059 78.198C63.4248 76.9968 62.8242 75.4353 62.8242 73.2731C62.8242 71.9518 63.0645 70.7506 63.6651 69.7896C64.2657 68.7085 64.9864 67.9878 66.0675 67.5073C67.1485 67.0269 68.3497 66.6665 69.6711 66.6665C71.1125 66.6665 72.5539 66.9067 73.7551 67.5073L72.9143 69.3091C72.4338 69.0689 71.9533 68.9488 71.3527 68.8287C70.7521 68.5884 70.2717 68.4683 69.6711 68.4683Z" fill="#00204C"/>
<path d="M76.875 66.7866H79.0372V73.5134C79.0372 74.2341 79.0372 74.9548 79.0372 75.6755C79.0372 76.3962 78.917 76.8767 78.917 77.117H79.0372L86.3645 66.7866H89.1273V79.7596H86.9651V73.153C86.9651 72.0719 87.0852 70.8707 87.2053 69.4293H87.0852L79.7579 79.7596H76.875V66.7866Z" fill="#00204C"/>
<path d="M103.183 75.7956C103.183 78.4383 101.381 79.6395 97.6573 79.6395H93.4531V66.7866H102.222V68.5884H95.8555V72.0719H97.5372C101.261 72.0719 103.183 73.2731 103.183 75.7956ZM95.8555 77.9578H97.5372C98.6183 77.9578 99.4591 77.8377 100.06 77.4773C100.54 77.117 100.901 76.6365 100.901 75.9158C100.901 75.195 100.66 74.7146 100.06 74.3542C99.5793 73.9938 98.6183 73.8737 97.297 73.8737H95.8555V77.9578Z" fill="#00204C"/>
<path d="M106.668 66.7866H108.83V73.5134C108.83 74.2341 108.83 74.9548 108.83 75.6755C108.83 76.3962 108.71 76.8767 108.71 77.117H108.83L116.157 66.7866H118.92V79.7596H116.758V73.153C116.758 72.0719 116.878 70.8707 116.998 69.4293H116.878L109.551 79.7596H106.788V66.7866H106.668Z" fill="#00204C"/>
<path d="M132.732 70.7506C132.732 72.0719 132.251 73.153 131.29 73.8737C130.329 74.5944 128.888 74.9548 127.086 74.9548H125.645V79.7596H123.242V66.7866H127.446C129.248 66.7866 130.57 67.147 131.53 67.7476C132.251 68.4683 132.732 69.4293 132.732 70.7506ZM125.524 73.153H126.726C127.927 73.153 128.768 72.9128 129.368 72.5524C129.969 72.192 130.209 71.5914 130.209 70.7506C130.209 70.0299 129.969 69.4293 129.488 69.0689C129.008 68.7085 128.167 68.5884 127.086 68.5884H125.404V73.153H125.524Z" fill="#00204C"/>
<path d="M142.343 68.4683C141.022 68.4683 139.941 68.9488 139.1 69.7896C138.259 70.6305 137.898 71.8317 137.898 73.3932C137.898 74.9548 138.259 76.156 138.98 76.9968C139.7 77.8377 140.781 78.198 142.223 78.198C142.823 78.198 143.424 78.198 144.025 78.0779C144.625 77.9578 145.226 77.8377 145.826 77.7175V79.2791C144.745 79.6395 143.424 79.8797 141.983 79.8797C139.941 79.8797 138.259 79.2791 137.178 78.198C136.097 76.9968 135.496 75.4353 135.496 73.2731C135.496 71.9518 135.736 70.7506 136.337 69.7896C136.938 68.7085 137.658 67.9878 138.739 67.5073C139.82 67.0269 141.022 66.6665 142.343 66.6665C143.784 66.6665 145.226 66.9067 146.427 67.5073L145.586 69.3091C145.106 69.0689 144.625 68.9488 144.025 68.8287C143.544 68.5884 142.944 68.4683 142.343 68.4683Z" fill="#00204C"/>
<path d="M160.602 79.7596H157.839L151.953 73.2731V79.7596H149.551V66.7866H151.953V73.0329L157.719 66.7866H160.362L154.596 73.0329L160.602 79.7596Z" fill="#00204C"/>
<path d="M181.742 73.2731C181.742 75.3152 181.141 76.9968 179.94 78.198C178.739 79.3992 177.057 79.9998 175.015 79.9998C172.853 79.9998 171.171 79.3992 169.97 78.3181C168.769 77.1169 168.168 75.5554 168.168 73.3932C168.168 71.2311 168.769 69.6695 169.97 68.4683C171.171 67.2671 172.853 66.7866 175.015 66.7866C177.177 66.7866 178.859 67.3872 179.94 68.4683C181.141 69.5494 181.742 71.1109 181.742 73.2731ZM170.811 73.2731C170.811 74.8347 171.171 76.0359 171.892 76.8767C172.612 77.7176 173.693 78.0779 175.015 78.0779C176.456 78.0779 177.417 77.7176 178.138 76.8767C178.859 76.0359 179.219 74.8347 179.219 73.2731C179.219 71.7115 178.859 70.5103 178.138 69.6695C177.417 68.8287 176.336 68.4683 175.015 68.4683C173.573 68.4683 172.492 68.8287 171.772 69.6695C171.171 70.5103 170.811 71.7115 170.811 73.2731Z" fill="#00204C"/>
<path d="M196.755 79.7596H194.353V73.8737H187.746V79.7596H185.344V66.7866H187.746V72.0719H194.353V66.7866H196.755V79.7596Z" fill="#00204C"/>
<path d="M212.011 79.7596H209.609V68.7085H205.525C205.044 72.4323 204.564 75.0749 204.323 76.3962C203.963 77.7175 203.603 78.6785 203.002 79.2791C202.401 79.7596 201.681 79.9998 200.72 79.9998C200.239 79.9998 199.759 79.8797 199.398 79.7596V77.9578C199.759 78.0779 200.119 78.198 200.48 78.198C200.96 78.198 201.32 77.9578 201.561 77.4773C201.801 76.9968 202.161 75.7956 202.401 74.1139C202.762 72.4323 203.122 69.9097 203.603 66.9067H212.011V79.7596Z" fill="#00204C"/>
<path d="M225.345 79.7596L223.904 76.156H218.378L216.937 79.7596H214.414L219.819 66.7866H222.342L227.747 79.7596H225.345ZM223.303 74.3542L221.982 70.8707C221.862 70.6305 221.741 70.2701 221.621 69.7896C221.501 69.3091 221.381 68.9488 221.261 68.7085C221.141 69.4293 220.78 70.2701 220.54 71.1109L219.219 74.4743L223.303 74.3542Z" fill="#00204C"/>
<path d="M230.27 66.7867H232.432V73.5134C232.432 74.2342 232.432 74.9549 232.432 75.6756C232.432 76.3963 232.312 76.8768 232.312 77.117H232.432L239.759 66.7867H242.522V79.7597H240.36V73.1531C240.36 72.072 240.48 70.8708 240.6 69.4294H240.48L233.152 79.7597H230.39V66.7867H230.27ZM236.516 65.8258C235.074 65.8258 234.113 65.5855 233.513 65.105C232.912 64.6246 232.552 63.9038 232.432 62.8228H234.474C234.474 63.1831 234.594 63.5435 234.714 63.7837C234.834 64.024 235.074 64.1441 235.315 64.2642C235.555 64.3843 235.915 64.3843 236.516 64.3843C237.116 64.3843 237.597 64.2642 237.957 64.024C238.318 63.7837 238.438 63.3032 238.558 62.7026H240.72C240.6 63.7837 240.24 64.5044 239.519 64.8648C238.918 65.5855 237.837 65.8258 236.516 65.8258Z" fill="#00204C"/>
<path d="M258.259 79.7596H255.857V73.8737H249.25V79.7596H246.848V66.7866H249.25V72.0719H255.857V66.7866H258.259V79.7596Z" fill="#00204C"/>
<path d="M268.949 1.92188H216.336V54.4144H268.949V1.92188Z" fill="#0086E6"/>
<path d="M268.951 1.92194H242.645V28.2282H268.951V1.92194Z" fill="#00B9F2"/>
<path d="M242.642 28.228H216.336V54.5343H242.642V28.228Z" fill="#005FAD"/>
</g>
<defs>
<clipPath id="clip0_409_963">
<rect width="380.3" height="80" fill="white"/>
</clipPath>
</defs>
</svg>
