<svg width="24" height="26" viewBox="0 0 24 26" fill="none" xmlns="http://www.w3.org/2000/svg">
<path d="M23.0857 8.35426C23.0865 8.35703 23.0875 8.36118 23.0884 8.36567C23.0894 8.37108 23.0906 8.37846 23.091 8.38717L23.0917 8.39088C23.0922 8.39356 23.0932 8.3986 23.0939 8.40377C23.0941 8.40469 23.0942 8.40573 23.0944 8.40687C23.1003 8.42896 23.1001 8.4482 23.1 8.4554C23.1 8.45606 23.1 8.45661 23.1 8.45706V14.0791C23.1 15.6334 21.8506 16.9023 20.3146 16.9023H7.27121C6.81228 16.9023 6.37855 16.7909 5.99878 16.5965V18.2328C5.99878 18.9432 6.56745 19.5236 7.27121 19.5236H19.6778C21.1935 19.5236 22.4287 20.778 22.4287 22.3118C22.4287 23.8449 21.1936 25.1 19.6778 25.1C18.1615 25.1 16.9263 23.8505 16.9263 22.3118C16.9263 21.8613 17.0321 21.4343 17.2228 21.0553H11.653C11.8438 21.432 11.9487 21.8623 11.9487 22.3118C11.9487 23.845 10.7136 25.1 9.19724 25.1C7.681 25.1 6.44575 23.8505 6.44575 22.3118C6.44575 21.8416 6.56481 21.3965 6.76789 21.0071C5.4703 20.7669 4.48463 19.6127 4.48463 18.2328V3.70834L1.36363 2.37312C1.36359 2.37311 1.36355 2.37309 1.36351 2.37307C0.975941 2.20839 0.798065 1.75947 0.959497 1.36981L0.95953 1.36973C1.12212 0.978246 1.56501 0.795515 1.95274 0.960885C1.95274 0.960885 1.95274 0.960885 1.95274 0.960886L5.53842 2.49013L5.54224 2.49176L5.5422 2.49184C5.55149 2.49626 5.56161 2.5009 5.57262 2.50594L5.57298 2.5061C5.58358 2.51095 5.59502 2.51619 5.60583 2.52134L5.62476 2.53036L5.62949 2.53583C5.6295 2.53584 5.62951 2.53585 5.62952 2.53585L23.0857 8.35426ZM23.0857 8.35426V8.33781L23.0782 8.3236L23.0773 8.31858C23.0763 8.31395 23.075 8.30817 23.0732 8.30157L23.07 8.29008L23.0677 8.28593C23.0671 8.28357 23.0662 8.2802 23.0652 8.27683L23.0857 8.35426ZM5.61597 2.52784C5.61449 2.52707 5.61515 2.52729 5.61713 2.52845L5.61597 2.52784ZM5.6489 2.54768C5.64484 2.54507 5.63882 2.54126 5.63173 2.53739L5.88295 2.78869C5.88243 2.78748 5.8819 2.7863 5.88136 2.78514C5.8757 2.77292 5.86964 2.76407 5.86665 2.75971C5.86549 2.75802 5.86485 2.75706 5.86453 2.75659C5.85857 2.74515 5.85176 2.73562 5.84858 2.73117L5.84838 2.73088L5.84379 2.72447C5.84339 2.72389 5.84314 2.72353 5.84303 2.72335L5.83721 2.71353L5.82888 2.70498L5.78488 2.65983L5.7844 2.65935L5.77013 2.6449L5.77017 2.64487L5.76797 2.64278C5.76711 2.64196 5.76614 2.64102 5.76506 2.63998C5.75762 2.63279 5.74513 2.62072 5.72898 2.60881C5.72602 2.60616 5.72345 2.60411 5.72157 2.60266C5.71757 2.59957 5.7137 2.59695 5.71155 2.59552C5.70367 2.58832 5.69616 2.58265 5.69254 2.57991C5.69208 2.57956 5.69168 2.57926 5.69135 2.57901C5.69002 2.578 5.68923 2.57737 5.68882 2.57704L5.68112 2.56876L5.67071 2.56201L5.6489 2.54768ZM23.0907 8.3856C23.0906 8.38536 23.0907 8.38539 23.0907 8.38564L23.0907 8.3856ZM23.0581 8.25799C23.0575 8.2559 23.0564 8.25136 23.0549 8.24674C23.0531 8.2409 23.0504 8.23333 23.0463 8.22494L23.0463 8.22493L23.0452 8.22288C23.0424 8.21745 23.0399 8.21194 23.0355 8.20017L23.0358 8.20006L23.0324 8.19275C23.03 8.18757 23.0261 8.1792 23.0213 8.1709C23.0194 8.16743 23.0163 8.16222 23.012 8.15627L23.003 8.13727L23.0023 8.13584C22.9979 8.12704 22.9939 8.12031 22.991 8.11555L22.9858 8.10703L22.9857 8.10686L23.0581 8.25799ZM22.7678 7.87853C22.7677 7.87845 22.7676 7.87837 22.7674 7.87827L22.7666 7.8777C22.7639 7.87581 22.7568 7.87089 22.7486 7.86624L22.7487 7.86601L22.7421 7.86286C22.7406 7.86211 22.7395 7.8616 22.7389 7.86127C22.7388 7.86121 22.7387 7.86115 22.7386 7.8611L22.7281 7.85116L22.7148 7.84447L22.6563 7.81515L22.6559 7.81496L22.6265 7.8001L22.5814 7.88932L22.6265 7.80009C22.6181 7.79584 22.6105 7.79307 22.6047 7.79121C22.601 7.79001 22.5972 7.78897 22.595 7.78836C22.5801 7.78118 22.5558 7.77189 22.5289 7.76985L22.5253 7.76884C22.5236 7.76838 22.5209 7.76766 22.5176 7.76697C22.4993 7.76193 22.4835 7.76043 22.4711 7.75999C22.4692 7.75946 22.4672 7.75892 22.4651 7.75842C22.4591 7.75701 22.4524 7.75589 22.4452 7.75535L6.00295 5.45428V3.20344C6.00295 3.20227 6.00295 3.20104 6.00295 3.19977C6.00297 3.18072 6.00301 3.15103 5.99843 3.12323C5.99806 3.11813 5.99729 3.1117 5.99573 3.10469C5.99463 3.09974 5.99327 3.09501 5.99171 3.09048C5.9909 3.08435 5.98999 3.07937 5.98942 3.07625C5.98933 3.07575 5.98925 3.07531 5.98918 3.07491C5.98848 3.07102 5.98819 3.0691 5.98808 3.06839V3.05567L5.98417 3.04211C5.98371 3.04051 5.9835 3.0395 5.98221 3.03245C5.98129 3.02742 5.97995 3.02015 5.97763 3.01132C5.97658 3.00457 5.97513 2.99876 5.97381 2.99426V2.99034L5.96904 2.97546L5.95689 2.93752C5.95603 2.93363 5.95511 2.93038 5.9544 2.92805L5.95419 2.92739V2.92672L5.94954 2.91201C5.942 2.88818 5.93353 2.8712 5.92142 2.85174C5.92067 2.84987 5.91975 2.84767 5.91865 2.84528C5.91708 2.8419 5.91488 2.83754 5.91189 2.83271C5.90727 2.82308 5.89948 2.80853 5.88677 2.79334L22.7678 7.87853ZM22.4863 7.76531L22.4863 7.7653L22.4863 7.76531ZM5.99878 14.0791V6.9982L21.587 9.17443V14.0749C21.587 14.7952 21.0122 15.3705 20.3146 15.3705H7.27121C6.56748 15.3705 5.99878 14.7901 5.99878 14.0791ZM19.6819 21.0505C20.36 21.0505 20.9199 21.6116 20.9199 22.307C20.9199 23.0018 20.36 23.5634 19.6819 23.5634C19.0041 23.5634 18.444 22.9972 18.444 22.307C18.444 21.6161 19.004 21.0505 19.6819 21.0505ZM9.202 21.0505C9.88067 21.0505 10.4399 21.6115 10.4399 22.307C10.4399 23.0018 9.88064 23.5634 9.202 23.5634C8.52416 23.5634 7.96406 22.9972 7.96406 22.307C7.96406 21.6161 8.52413 21.0505 9.202 21.0505Z" fill="#284CA6" stroke="#284CA6" stroke-width="0.2"/>
</svg>
