<svg width="40" height="40" viewBox="0 0 40 40" fill="none" xmlns="http://www.w3.org/2000/svg">
<path opacity="0.4" d="M28.761 13.4485L22.2109 19.9985L28.761 26.5483L26.5515 28.7583L20.0015 22.2083L13.4517 28.7583L11.2417 26.5483L17.7917 19.9985L11.2417 13.4485L13.4517 11.239L20.0015 17.7891L26.5515 11.239L28.761 13.4485ZM40 20C40 25.342 37.9197 30.3647 34.1421 34.1421C30.3647 37.9197 25.342 40 20 40C14.658 40 9.63525 37.9197 5.85791 34.1421C2.08032 30.3647 0 25.342 0 20C0 14.658 2.08032 9.63525 5.85791 5.85791C9.63525 2.08032 14.658 0 20 0C25.342 0 30.3647 2.08032 34.1421 5.85791C37.9197 9.63525 40 14.658 40 20V20ZM36.875 20C36.875 10.6953 29.3047 3.125 20 3.125C10.6953 3.125 3.125 10.6953 3.125 20C3.125 29.3047 10.6953 36.875 20 36.875C29.3047 36.875 36.875 29.3047 36.875 20Z" fill="black"/>
</svg>
