<svg width="147" height="64" viewBox="0 0 147 64" fill="none" xmlns="http://www.w3.org/2000/svg">
<path d="M64.7807 49.0146C64.7026 51.9805 64.5465 55.1024 63.3758 57.678C62.049 60.8 59.0051 62.5171 54.088 63.0634C54.0099 63.0634 52.9173 63.1415 51.9026 63.0634C51.9026 62.9073 51.9026 1.01463 51.9026 0.858537C52.0587 0.858537 56.3514 0.858537 56.3514 0.858537V0H56.2734H40.1953V0.858537C40.1953 0.858537 44.566 0.858537 44.6441 0.858537C44.6441 1.01463 44.6441 62.9073 44.6441 63.0634C44.488 63.0634 40.1953 63.0634 40.1953 63.0634V64H65.4051V47.4537H64.9368L64.7807 49.0146Z" fill="#FF0013"/>
<path d="M107.473 49.0146C107.395 51.9805 107.239 55.1024 106.068 57.678C104.741 60.8 101.697 62.5171 96.7802 63.0634C96.7021 63.0634 95.6095 63.1415 94.5948 63.0634C94.5948 62.9073 94.5948 1.01463 94.5948 0.858537C94.7509 0.858537 99.0436 0.858537 99.0436 0.858537V0H98.9656H82.8875V0.858537C82.8875 0.858537 87.2582 0.858537 87.3363 0.858537C87.3363 1.01463 87.3363 62.9073 87.3363 63.0634C87.1802 63.0634 82.8875 63.0634 82.8875 63.0634V64H108.097V47.4537H107.629L107.473 49.0146Z" fill="#FF0013"/>
<path d="M24.5073 49.0927C24.4293 52.0585 24.2732 55.1805 23.1024 57.7561C21.3854 61.8146 17.0146 62.7512 13.8146 63.0634C13.7366 63.0634 12.6439 63.1415 11.6293 63.0634C11.6293 62.9073 11.6293 32.3122 11.6293 32.1561C12.6439 32.1561 14.2829 32.2341 14.6732 32.3902C16.2341 32.7024 17.639 34.3415 18.1073 35.6683C18.8098 37.6976 18.8098 39.961 18.8878 42.3805V43.7073H19.4341V20.0585H18.8878V21.3854C18.8098 23.7268 18.8098 25.9902 18.1073 28.0976C17.561 29.6585 16.1561 31.0634 14.6732 31.2976C14.2829 31.3756 12.6439 31.5317 11.6293 31.5317C11.6293 31.3756 11.6293 1.09268 11.6293 0.936585C12.722 0.858537 13.7366 0.936585 13.8146 0.936585C17.0927 1.32683 21.3854 2.57561 23.1024 6.63415C24.2732 9.20976 24.3512 12.3317 24.5073 15.2976L24.5854 16.8585H25.0537V0H0V0.0780488V0.936585H4.29268C4.29268 0.936585 4.37073 0.936585 4.44878 0.936585C4.44878 1.01463 4.44878 62.9073 4.44878 63.0634C4.29268 63.0634 0 63.0634 0 63.0634V64H25.2098V47.5317H24.7415L24.5073 49.0927Z" fill="#FF0013"/>
<path d="M145.404 61.8926H145.092V62.2048H145.326C145.482 62.2048 145.717 62.2048 145.717 62.0487C145.639 61.8926 145.482 61.8926 145.404 61.8926Z" fill="#FF0013"/>
<path d="M145.326 61.5023C144.936 61.5023 144.623 61.8145 144.623 62.2048C144.623 62.595 144.936 62.9072 145.326 62.9072C145.716 62.9072 146.028 62.595 146.028 62.2048C146.028 61.8145 145.716 61.5023 145.326 61.5023ZM145.794 62.7511H145.638L145.326 62.2828H145.092V62.7511H145.014V61.7365H145.482C145.716 61.7365 145.872 61.8145 145.872 61.9706C145.872 62.2048 145.716 62.2048 145.56 62.2828L145.794 62.7511Z" fill="#FF0013"/>
<path d="M146.42 47.5317L146.342 49.0927C146.264 52.0585 146.107 55.1805 144.937 57.7561C143.22 61.8146 138.849 62.7512 135.649 63.0634C135.571 63.0634 134.478 63.1415 133.464 63.0634C133.464 62.9073 133.464 32.3122 133.464 32.1561C134.478 32.1561 136.117 32.2341 136.507 32.3902C138.068 32.7024 139.473 34.3415 139.942 35.6683C140.644 37.6976 140.644 39.961 140.722 42.3805V43.7073H141.268V20.1366H140.722V21.4634C140.644 23.8049 140.644 26.0683 139.942 28.1756C139.395 29.7366 137.99 31.1415 136.507 31.3756C136.117 31.4537 134.478 31.6098 133.464 31.6098C133.464 31.4537 133.464 1.17073 133.464 1.01463C134.556 0.936585 135.571 1.01463 135.649 1.01463C138.927 1.40488 143.22 2.65366 144.937 6.7122C146.107 9.2878 146.186 12.4098 146.342 15.3756L146.42 16.9366H146.888V0H121.756V0.0780488V0.936585H126.049C126.049 0.936585 126.127 0.936585 126.205 0.936585C126.205 1.01463 126.205 62.9073 126.205 63.0634C126.049 63.0634 121.756 63.0634 121.756 63.0634V64H146.966V47.5317H146.42ZM145.327 63.0634C144.859 63.0634 144.468 62.6732 144.468 62.2049C144.468 61.7366 144.859 61.3463 145.327 61.3463C145.795 61.3463 146.186 61.7366 146.186 62.2049C146.186 62.7512 145.795 63.0634 145.327 63.0634Z" fill="#FF0013"/>
</svg>
