<svg width="183" height="83" viewBox="0 0 183 83" fill="none" xmlns="http://www.w3.org/2000/svg">
	<rect x="2.5" y="2.5" width="178" height="78" fill="#D9D9D9" stroke="black" stroke-width="5" />
	<path d="M10.4091 48V36.3636H11.8182V46.75H17.2273V48H10.4091ZM28.7741 42.1818C28.7741 43.4091 28.5526 44.4697 28.1094 45.3636C27.6662 46.2576 27.0582 46.947 26.2855 47.4318C25.5128 47.9167 24.6302 48.1591 23.6378 48.1591C22.6454 48.1591 21.7628 47.9167 20.9901 47.4318C20.2173 46.947 19.6094 46.2576 19.1662 45.3636C18.723 44.4697 18.5014 43.4091 18.5014 42.1818C18.5014 40.9545 18.723 39.8939 19.1662 39C19.6094 38.1061 20.2173 37.4167 20.9901 36.9318C21.7628 36.447 22.6454 36.2045 23.6378 36.2045C24.6302 36.2045 25.5128 36.447 26.2855 36.9318C27.0582 37.4167 27.6662 38.1061 28.1094 39C28.5526 39.8939 28.7741 40.9545 28.7741 42.1818ZM27.4105 42.1818C27.4105 41.1742 27.242 40.3239 26.9048 39.6307C26.5715 38.9375 26.1188 38.4129 25.5469 38.0568C24.9787 37.7008 24.3423 37.5227 23.6378 37.5227C22.9332 37.5227 22.295 37.7008 21.723 38.0568C21.1548 38.4129 20.7022 38.9375 20.3651 39.6307C20.0317 40.3239 19.8651 41.1742 19.8651 42.1818C19.8651 43.1894 20.0317 44.0398 20.3651 44.733C20.7022 45.4261 21.1548 45.9508 21.723 46.3068C22.295 46.6629 22.9332 46.8409 23.6378 46.8409C24.3423 46.8409 24.9787 46.6629 25.5469 46.3068C26.1188 45.9508 26.5715 45.4261 26.9048 44.733C27.242 44.0398 27.4105 43.1894 27.4105 42.1818ZM39.098 40C38.973 39.6174 38.8082 39.2746 38.6037 38.9716C38.4029 38.6648 38.1624 38.4034 37.8821 38.1875C37.6056 37.9716 37.2912 37.8068 36.9389 37.6932C36.5866 37.5795 36.2003 37.5227 35.7798 37.5227C35.0904 37.5227 34.4635 37.7008 33.8991 38.0568C33.3348 38.4129 32.8859 38.9375 32.5526 39.6307C32.2192 40.3239 32.0526 41.1742 32.0526 42.1818C32.0526 43.1894 32.2211 44.0398 32.5582 44.733C32.8954 45.4261 33.3518 45.9508 33.9276 46.3068C34.5033 46.6629 35.151 46.8409 35.8707 46.8409C36.5374 46.8409 37.1245 46.6989 37.6321 46.4148C38.1435 46.1269 38.5412 45.7216 38.8253 45.1989C39.1132 44.6723 39.2571 44.053 39.2571 43.3409L39.6889 43.4318H36.1889V42.1818H40.6207V43.4318C40.6207 44.3902 40.4162 45.2235 40.0071 45.9318C39.6018 46.6402 39.0412 47.1894 38.3253 47.5795C37.6132 47.9659 36.795 48.1591 35.8707 48.1591C34.8404 48.1591 33.9351 47.9167 33.1548 47.4318C32.3783 46.947 31.7723 46.2576 31.3366 45.3636C30.9048 44.4697 30.6889 43.4091 30.6889 42.1818C30.6889 41.2614 30.812 40.4337 31.0582 39.6989C31.3082 38.9602 31.6605 38.3314 32.1151 37.8125C32.5696 37.2936 33.1075 36.8958 33.7287 36.6193C34.3499 36.3428 35.0336 36.2045 35.7798 36.2045C36.3935 36.2045 36.9654 36.2973 37.4957 36.483C38.0298 36.6648 38.5052 36.9242 38.9219 37.2614C39.3423 37.5947 39.6927 37.9943 39.973 38.4602C40.2533 38.9223 40.4465 39.4356 40.5526 40H39.098ZM52.8523 42.1818C52.8523 43.4091 52.6307 44.4697 52.1875 45.3636C51.7443 46.2576 51.1364 46.947 50.3636 47.4318C49.5909 47.9167 48.7083 48.1591 47.7159 48.1591C46.7235 48.1591 45.8409 47.9167 45.0682 47.4318C44.2955 46.947 43.6875 46.2576 43.2443 45.3636C42.8011 44.4697 42.5795 43.4091 42.5795 42.1818C42.5795 40.9545 42.8011 39.8939 43.2443 39C43.6875 38.1061 44.2955 37.4167 45.0682 36.9318C45.8409 36.447 46.7235 36.2045 47.7159 36.2045C48.7083 36.2045 49.5909 36.447 50.3636 36.9318C51.1364 37.4167 51.7443 38.1061 52.1875 39C52.6307 39.8939 52.8523 40.9545 52.8523 42.1818ZM51.4886 42.1818C51.4886 41.1742 51.3201 40.3239 50.983 39.6307C50.6496 38.9375 50.197 38.4129 49.625 38.0568C49.0568 37.7008 48.4205 37.5227 47.7159 37.5227C47.0114 37.5227 46.3731 37.7008 45.8011 38.0568C45.233 38.4129 44.7803 38.9375 44.4432 39.6307C44.1098 40.3239 43.9432 41.1742 43.9432 42.1818C43.9432 43.1894 44.1098 44.0398 44.4432 44.733C44.7803 45.4261 45.233 45.9508 45.8011 46.3068C46.3731 46.6629 47.0114 46.8409 47.7159 46.8409C48.4205 46.8409 49.0568 46.6629 49.625 46.3068C50.197 45.9508 50.6496 45.4261 50.983 44.733C51.3201 44.0398 51.4886 43.1894 51.4886 42.1818ZM59.7216 48V36.3636H63.6534C64.5663 36.3636 65.3125 36.5284 65.892 36.858C66.4754 37.1837 66.9072 37.625 67.1875 38.1818C67.4678 38.7386 67.608 39.3598 67.608 40.0455C67.608 40.7311 67.4678 41.3542 67.1875 41.9148C66.911 42.4754 66.483 42.9223 65.9034 43.2557C65.3239 43.5852 64.5814 43.75 63.6761 43.75H60.858V42.5H63.6307C64.2557 42.5 64.7576 42.392 65.1364 42.1761C65.5152 41.9602 65.7898 41.6686 65.9602 41.3011C66.1345 40.9299 66.2216 40.5114 66.2216 40.0455C66.2216 39.5795 66.1345 39.1629 65.9602 38.7955C65.7898 38.428 65.5133 38.1402 65.1307 37.9318C64.7481 37.7197 64.2405 37.6136 63.608 37.6136H61.1307V48H59.7216ZM69.8778 48V36.3636H71.2869V46.75H76.696V48H69.8778ZM80.0895 48H78.6122L82.8849 36.3636H84.3395L88.6122 48H87.1349L83.6577 38.2045H83.5668L80.0895 48ZM80.6349 43.4545H86.5895V44.7045H80.6349V43.4545ZM99.2415 40H97.8324C97.7491 39.5947 97.6032 39.2386 97.3949 38.9318C97.1903 38.625 96.9403 38.3674 96.6449 38.1591C96.3532 37.947 96.0294 37.7879 95.6733 37.6818C95.3172 37.5758 94.946 37.5227 94.5597 37.5227C93.8551 37.5227 93.2169 37.7008 92.6449 38.0568C92.0767 38.4129 91.6241 38.9375 91.2869 39.6307C90.9536 40.3239 90.7869 41.1742 90.7869 42.1818C90.7869 43.1894 90.9536 44.0398 91.2869 44.733C91.6241 45.4261 92.0767 45.9508 92.6449 46.3068C93.2169 46.6629 93.8551 46.8409 94.5597 46.8409C94.946 46.8409 95.3172 46.7879 95.6733 46.6818C96.0294 46.5758 96.3532 46.4186 96.6449 46.2102C96.9403 45.9981 97.1903 45.7386 97.3949 45.4318C97.6032 45.1212 97.7491 44.7652 97.8324 44.3636H99.2415C99.1354 44.9583 98.9422 45.4905 98.6619 45.9602C98.3816 46.4299 98.0331 46.8295 97.6165 47.1591C97.1998 47.4848 96.732 47.733 96.2131 47.9034C95.6979 48.0739 95.1468 48.1591 94.5597 48.1591C93.5672 48.1591 92.6847 47.9167 91.9119 47.4318C91.1392 46.947 90.5313 46.2576 90.0881 45.3636C89.6449 44.4697 89.4233 43.4091 89.4233 42.1818C89.4233 40.9545 89.6449 39.8939 90.0881 39C90.5313 38.1061 91.1392 37.4167 91.9119 36.9318C92.6847 36.447 93.5672 36.2045 94.5597 36.2045C95.1468 36.2045 95.6979 36.2898 96.2131 36.4602C96.732 36.6307 97.1998 36.8807 97.6165 37.2102C98.0331 37.536 98.3816 37.9337 98.6619 38.4034C98.9422 38.8693 99.1354 39.4015 99.2415 40ZM101.518 48V36.3636H108.541V37.6136H102.928V41.5455H108.178V42.7955H102.928V46.75H108.632V48H101.518ZM111.081 48V36.3636H112.49V41.5455H118.695V36.3636H120.104V48H118.695V42.7955H112.49V48H111.081ZM132.743 42.1818C132.743 43.4091 132.521 44.4697 132.078 45.3636C131.635 46.2576 131.027 46.947 130.254 47.4318C129.482 47.9167 128.599 48.1591 127.607 48.1591C126.614 48.1591 125.732 47.9167 124.959 47.4318C124.186 46.947 123.578 46.2576 123.135 45.3636C122.692 44.4697 122.47 43.4091 122.47 42.1818C122.47 40.9545 122.692 39.8939 123.135 39C123.578 38.1061 124.186 37.4167 124.959 36.9318C125.732 36.447 126.614 36.2045 127.607 36.2045C128.599 36.2045 129.482 36.447 130.254 36.9318C131.027 37.4167 131.635 38.1061 132.078 39C132.521 39.8939 132.743 40.9545 132.743 42.1818ZM131.379 42.1818C131.379 41.1742 131.211 40.3239 130.874 39.6307C130.54 38.9375 130.088 38.4129 129.516 38.0568C128.947 37.7008 128.311 37.5227 127.607 37.5227C126.902 37.5227 126.264 37.7008 125.692 38.0568C125.124 38.4129 124.671 38.9375 124.334 39.6307C124 40.3239 123.834 41.1742 123.834 42.1818C123.834 43.1894 124 44.0398 124.334 44.733C124.671 45.4261 125.124 45.9508 125.692 46.3068C126.264 46.6629 126.902 46.8409 127.607 46.8409C128.311 46.8409 128.947 46.6629 129.516 46.3068C130.088 45.9508 130.54 45.4261 130.874 44.733C131.211 44.0398 131.379 43.1894 131.379 42.1818ZM135.112 48V36.3636H136.521V46.75H141.93V48H135.112ZM147.703 48H144.112V36.3636H147.862C148.991 36.3636 149.957 36.5966 150.76 37.0625C151.563 37.5246 152.179 38.1894 152.607 39.0568C153.035 39.9205 153.249 40.9545 153.249 42.1591C153.249 43.3712 153.033 44.4148 152.601 45.2898C152.169 46.161 151.54 46.8314 150.714 47.3011C149.889 47.767 148.885 48 147.703 48ZM145.521 46.75H147.612C148.574 46.75 149.372 46.5644 150.004 46.1932C150.637 45.822 151.108 45.2936 151.419 44.608C151.73 43.9223 151.885 43.1061 151.885 42.1591C151.885 41.2197 151.732 40.411 151.425 39.733C151.118 39.0511 150.66 38.5284 150.05 38.1648C149.44 37.7973 148.68 37.6136 147.771 37.6136H145.521V46.75ZM155.612 48V36.3636H162.635V37.6136H157.021V41.5455H162.271V42.7955H157.021V46.75H162.726V48H155.612ZM165.175 48V36.3636H169.107C170.016 36.3636 170.762 36.5189 171.345 36.8295C171.929 37.1364 172.36 37.5587 172.641 38.0966C172.921 38.6345 173.061 39.2462 173.061 39.9318C173.061 40.6174 172.921 41.2254 172.641 41.7557C172.36 42.286 171.93 42.7027 171.351 43.0057C170.771 43.3049 170.031 43.4545 169.129 43.4545H165.947V42.1818H169.084C169.705 42.1818 170.205 42.0909 170.584 41.9091C170.966 41.7273 171.243 41.4697 171.413 41.1364C171.588 40.7992 171.675 40.3977 171.675 39.9318C171.675 39.4659 171.588 39.0587 171.413 38.7102C171.239 38.3617 170.961 38.0928 170.578 37.9034C170.196 37.7102 169.69 37.6136 169.061 37.6136H166.584V48H165.175ZM170.652 42.7727L173.516 48H171.879L169.061 42.7727H170.652Z" fill="black" />
</svg>