<svg width="209" height="64" viewBox="0 0 209 64" fill="none" xmlns="http://www.w3.org/2000/svg">
<path d="M75.3477 25.0583L75.6333 24.9575V24.6551C76.6277 19.7695 78.8548 15.2194 82.1031 11.437C85.3515 7.65467 89.513 4.76574 94.1924 3.04487C98.8717 1.324 103.913 0.828335 108.838 1.60491C113.763 2.38149 118.408 4.40457 122.33 7.48186L122.549 7.64985H122.818C131.774 4.92767 144.242 3.53296 159.903 3.53296C173.438 3.55431 186.954 4.537 200.35 6.47358L201.005 6.5744L207.155 39.8623L205.794 39.5598C194.031 37.0393 176.22 35.4598 159.282 35.4598C150.375 35.3743 141.473 35.9358 132.648 37.1401H132.295L132.194 37.4762C130.837 41.9994 128.402 46.126 125.1 49.502C121.798 52.878 117.726 55.4028 113.234 56.86C108.742 58.3172 103.963 58.6632 99.3078 57.8685C94.6526 57.0738 90.2595 55.162 86.5053 52.297L86.2532 52.0954L85.9507 52.2298C69.742 59.4822 52.1535 63.134 34.3973 62.9337C23.4529 62.8808 12.54 61.7552 1.81518 59.573L1.05902 59.4217V28.4695L2.13445 28.6207C13.4873 30.4208 24.954 31.4092 36.4474 31.5781C49.7006 31.7609 62.8782 29.5523 75.3477 25.0583V25.0583Z" fill="white"/>
<path d="M74.6919 24.1175C62.4339 28.4887 49.4934 30.6341 36.4806 30.4524V30.4524C25.038 30.2832 13.622 29.3005 2.31889 27.5118L0 27.1757V60.2956L1.68036 60.6317C12.4613 62.8179 23.4303 63.9435 34.4305 63.9924C52.2316 64.1891 69.8663 60.5498 86.1352 53.3221C90.0171 56.2318 94.542 58.1651 99.328 58.9587C104.114 59.7524 109.021 59.3831 113.634 57.8822C118.247 56.3812 122.432 53.7924 125.835 50.3345C129.238 46.8766 131.759 42.6509 133.185 38.0141C141.844 36.8327 150.576 36.2711 159.315 36.3337C176.118 36.3337 193.897 37.8964 205.592 40.4001L208.566 41.0387L201.979 5.3647L200.568 5.14625C187.116 3.21112 173.544 2.23407 159.953 2.22244C144.343 2.22244 131.841 3.58353 122.817 6.32252C118.758 3.18252 113.967 1.12691 108.894 0.349267C103.822 -0.428379 98.6344 0.0975086 93.821 1.87732C89.0077 3.65714 84.7263 6.63239 81.3798 10.5231C78.0333 14.4138 75.7318 19.092 74.6919 24.1175V24.1175ZM75.3473 25.0249L75.6329 24.9241V24.6216C76.6234 19.7336 78.8492 15.1807 82.0982 11.3967C85.3472 7.61278 89.511 4.72385 94.193 3.00539C98.875 1.28693 103.919 0.796173 108.844 1.57979C113.77 2.36341 118.413 4.39536 122.33 7.48197L122.549 7.64996H122.817C131.774 4.92778 144.242 3.53307 159.903 3.53307C173.437 3.54886 186.953 4.52591 200.349 6.45687L201.004 6.55779L207.155 39.8624L205.794 39.56C194.031 37.0394 176.219 35.4599 159.281 35.4599C150.374 35.3744 141.473 35.936 132.648 37.1402H132.295L132.194 37.4763C130.836 41.9995 128.402 46.1261 125.1 49.5021C121.797 52.8781 117.725 55.403 113.233 56.8601C108.741 58.3173 103.963 58.6633 99.3074 57.8686C94.6522 57.0739 90.2591 55.1621 86.5049 52.2971L86.2528 52.0955L85.9503 52.2299C69.7357 59.4606 52.1496 63.1004 34.3969 62.9002C23.4525 62.8473 12.5396 61.7217 1.81479 59.5394L1.05862 59.3882V28.4696L2.13406 28.6208C13.4869 30.4209 24.9536 31.4093 36.447 31.5783C49.6994 31.769 62.8774 29.566 75.3473 25.0753V25.0753V25.0249Z" fill="black"/>
<path d="M67.0794 30.4527C64.0547 31.2928 62.5592 31.6962 59.5346 32.3851V33.5781C60.2067 33.4773 60.5764 33.3765 61.2149 33.2085L64.0715 44.7525C64.1552 45.4616 64.4625 46.1257 64.9489 46.6484C65.4354 47.171 66.0757 47.5252 66.7769 47.6595C67.4899 47.5399 68.1502 47.2081 68.6718 46.7075C69.1934 46.2069 69.5519 45.5608 69.7007 44.8533C69.079 49.1214 68.7093 51.3059 66.8945 53.6416C66.9602 53.5481 66.9955 53.4366 66.9954 53.3223C66.9954 51.1378 66.2728 49.6255 64.9117 49.6255C63.5506 49.6255 61.9375 51.4404 61.9375 53.692C61.8498 54.4731 62.0662 55.2579 62.5418 55.8837C63.0174 56.5094 63.7156 56.9281 64.4916 57.0528C67.4155 57.0528 69.3815 52.7846 70.104 50.6506C72.3053 43.9292 72.0869 33.8469 72.3389 29.9989C72.8004 29.872 73.2547 29.7206 73.7 29.5453V28.3017C71.6668 29.0243 70.6754 29.3436 68.6589 29.9821V31.2424C69.3815 30.9903 69.7512 30.8728 70.4737 30.6711C70.4737 34.0318 70.3225 36.7036 70.2217 38.6864C70.104 42.5345 69.6839 43.8955 68.8942 43.8955C68.4741 43.8955 68.1044 43.3242 67.8524 42.0807L65.6175 31.9986C66.0893 31.8828 66.5549 31.7426 67.0122 31.5785V30.4527H67.0794ZM138.915 33.0572C137.234 33.0572 135.89 28.0161 135.89 21.093C135.89 14.17 137.453 8.3559 139.688 8.3559C140.28 8.3559 140.849 8.59143 141.268 9.01055C141.687 9.42967 141.923 9.99808 141.923 10.5908C141.165 10.9396 140.531 11.5105 140.105 12.2277C139.679 12.9449 139.48 13.7746 139.536 14.6069C139.536 17.0434 140.83 18.5557 142.393 18.5557C143.956 18.5557 145.199 16.472 145.199 14.1363C145.199 9.29691 142.292 7.11245 139.839 7.11245C133.117 7.11245 131.437 16.8418 131.437 21.8829C131.437 26.3526 133.117 34.3175 138.612 34.3175C141.586 34.3175 145.435 30.2174 145.435 23.6976L141.217 24.0169C141.217 29.4276 140.175 33.074 138.982 33.074L138.915 33.0572ZM12.5013 39.7954C12.5013 42.652 11.3083 44.8365 9.89679 44.8365C9.77458 44.8589 9.64932 44.8589 9.52711 44.8365V33.8134C11.2075 34.0654 12.5013 36.7372 12.5013 39.7283V39.7954ZM3.30979 32.7547L4.99014 33.074V56.8007L3.30979 56.4814V57.7753C5.74631 58.229 7.05699 58.397 9.54392 58.8171C9.95602 58.8755 10.3713 58.9091 10.7874 58.9179C11.5973 58.9611 12.407 58.8282 13.1606 58.5284C13.9143 58.2286 14.594 57.7691 15.153 57.1814C15.712 56.5936 16.1369 55.8917 16.3986 55.124C16.6602 54.3563 16.7524 53.541 16.6686 52.7342C16.708 51.3371 16.3678 49.9555 15.6843 48.7364C15.0007 47.5173 13.9995 46.5064 12.787 45.8112C13.9118 45.4006 14.866 44.6242 15.4968 43.6065C16.1275 42.5888 16.3982 41.3886 16.2654 40.1987C16.2654 35.1576 13.3583 33.3261 9.54392 32.6539L3.22577 31.5113V32.7547H3.30979ZM12.5686 52.2133C12.5686 55.1875 11.3251 57.5232 9.81277 57.5232H9.49351V46.0296C11.1739 46.2817 12.4677 49.0542 12.5182 52.2133H12.5686ZM145.687 8.30554L147.367 8.20473V31.9314L145.687 32.0322V33.2756C151.669 32.906 159.129 33.5781 159.129 25.7812C157.968 25.2227 156.981 24.3568 156.277 23.2773C155.572 22.1977 155.177 20.9458 155.134 19.6575C155.09 18.3692 155.401 17.0937 156.031 15.9693C156.661 14.8449 157.588 13.9146 158.709 13.2794C158.767 12.4058 158.64 11.5297 158.335 10.709C158.03 9.88819 157.555 9.14129 156.941 8.51743C156.326 7.89358 155.587 7.40694 154.771 7.08948C153.955 6.77201 153.081 6.6309 152.206 6.67554C149.451 6.67554 148.19 6.82678 145.603 6.99481V8.32236L145.687 8.30554ZM155.013 25.8317C155.013 29.0243 153.651 31.6121 151.954 31.6625V20.2025C153.769 20.2025 155.013 22.639 155.013 25.8148V25.8317ZM155.013 13.3298C155.013 16.3544 153.651 18.791 151.954 18.8918V7.96945C153.769 7.96945 155.013 10.3052 155.013 13.3298ZM32.0775 35.9138H33.7579V59.3212H32.0775V60.5646C35.1526 60.5646 36.7153 60.5647 39.7736 60.4135V59.1532C39.1014 59.1532 38.8326 59.1532 38.0932 59.1532V48.1469H39.0342L42.0084 59.0187L40.7146 59.1196V60.363C45.7339 60.0508 50.7322 59.4618 55.6866 58.5987V57.3384C54.9136 57.4896 54.5439 57.54 53.7541 57.6577V49.5583C57.6526 48.9366 60.778 44.8702 60.778 40.0475C60.778 35.729 58.2239 33.2253 54.9472 33.2253C54.5812 33.2337 54.2163 33.2674 53.855 33.3261C51.4689 33.6958 50.259 33.847 47.8225 34.1158V35.3593L49.5028 35.1576V58.313C48.8811 58.4138 48.461 58.4642 46.4278 58.6827L43.8232 48.9366C43.6774 48.2078 43.3263 47.5358 42.8113 46.9999C42.2962 46.464 41.6387 46.0866 40.9162 45.912L45.2851 35.4433L46.8479 35.2921V34.0318C44.8146 34.2335 43.7728 34.2838 41.8068 34.4015V35.645H43.1679L38.8998 45.9455H38.11V35.8634H39.7904V34.5696C37.9756 34.5696 36.7153 34.6704 35.3206 34.6704C34.3796 34.6704 33.3378 34.6704 32.0943 34.6704V35.9138H32.0775ZM56.678 40.9549C56.678 44.7525 55.3841 48.0292 53.7709 48.2812V34.5864H53.9726C55.4849 34.5864 56.678 37.2917 56.678 40.9885V40.9549ZM31.9767 47.71C31.9767 42.8705 30.5148 33.931 24.3815 33.931C18.9875 33.931 17.66 42.4336 17.66 46.8025C17.66 51.6419 18.7523 60.8504 25.2049 60.8504C31.1197 60.8504 32.0271 52.1125 32.0271 47.6931L31.9767 47.71ZM27.6078 47.5419C27.6078 54.3641 26.6668 59.6068 24.852 59.6068C23.0372 59.6068 22.1466 53.8768 22.1466 47.2226C22.1466 40.5684 23.0372 35.2081 24.852 35.2081C26.6668 35.2081 27.6078 40.9381 27.6078 47.5419ZM189.073 9.36418L191.342 9.61617L186.721 32.8219L184.688 32.6707V33.8134L189.998 34.2671V33.0237L188.435 32.8724L189.309 28.5538L195.61 29.1756L196.45 33.7294L194.988 33.5781V34.8215L202.718 35.7625V34.4856L200.954 34.2335L196.081 8.69199C193.274 8.37272 191.863 8.23836 189.057 8.01991V9.26336L189.073 9.36418ZM176.387 33.3428C179.579 33.4941 181.176 33.6453 184.352 33.9142V32.5867C183.79 32.5806 183.229 32.547 182.671 32.4859V8.70881H183.243L186.721 14.8422H187.511L186.519 7.76782C181.478 7.31412 176.437 7.04523 173.933 6.99481L173.093 14.0692H173.866L177.361 8.28872H178.117V32.133C177.395 32.133 177.076 32.133 176.437 32.0322V33.3261L176.387 33.3428ZM192.501 12.8257L195.224 27.0248L189.813 26.5039L192.501 12.8257ZM74.473 29.3437L75.9853 28.7723V52.0789L74.3049 52.6502V53.8937C77.5312 52.8014 79.1444 52.2133 82.4211 50.869V49.6255L80.4382 50.3985V26.8735C81.06 26.6214 81.4801 26.4534 82.1186 26.1509L85.6978 31.7801L86.4203 31.4105L85.5129 23.2271C81.9337 25.0394 78.2403 26.6166 74.4562 27.9489V29.2428L74.473 29.3437ZM169.564 15.9008C169.15 15.8747 168.735 15.8747 168.321 15.9008V18.6061C167.38 18.6061 166.926 18.6061 165.985 18.6061V8.30554C166.758 8.30554 167.397 8.30554 168.22 8.30554L171.497 14.1868H172.337L171.396 6.92764C168.539 6.72599 165.616 6.726 162.709 6.726C161.717 6.726 160.675 6.726 159.684 6.726V7.96945H161.364V31.6961H159.684V32.9396C163.7 32.9396 167.649 32.9396 171.598 33.1916L172.539 24.6554C172.282 24.6805 172.023 24.6805 171.766 24.6554L168.069 31.8137L165.884 31.7129V20.5218C166.825 20.5218 167.296 20.5218 168.22 20.5218V23.2775C168.651 23.2516 169.083 23.2516 169.514 23.2775L169.564 15.9008Z" fill="black"/>
<path d="M126.026 18.0852C124.563 17.1716 122.963 16.4966 121.288 16.0856C119.721 15.685 118.115 15.4595 116.499 15.4134C116.581 15.9705 116.581 16.5367 116.499 17.0938C116.396 17.6823 116.197 18.25 115.91 18.7741C119.568 21.8351 122.652 25.5222 125.018 29.6629C126.715 27.0851 127.566 24.0427 127.454 20.9586C127.438 20.4049 127.302 19.8613 127.056 19.3652C126.809 18.8691 126.458 18.4325 126.026 18.0852V18.0852ZM113.171 10.8093C114.508 11.5835 115.566 12.7595 116.196 14.17C120.118 14.0971 123.951 15.3393 127.085 17.6987C127.169 17.6987 127.236 17.6987 127.186 17.6987C125.26 13.5425 122.058 10.1102 118.044 7.90228C117.891 7.78508 117.699 7.73093 117.507 7.751C116.877 7.8547 116.272 8.07711 115.726 8.40636C114.757 9.09271 113.896 9.9196 113.171 10.8597V10.8093ZM107.542 55.0027C107.374 55.1371 107.542 55.1876 107.542 55.1708C113.747 54.6201 119.484 51.6431 123.506 46.8866C123.59 46.769 123.506 46.7353 123.506 46.7857C119.745 49.4667 115.323 51.0702 110.718 51.4235C110.014 52.8992 108.907 54.1458 107.525 55.0195V55.0195L107.542 55.0027ZM124.245 30.8223C123.741 29.8365 123.181 28.8508 122.565 27.8649C120.478 24.8778 117.997 22.1871 115.188 19.8664C114.088 20.9343 112.662 21.6028 111.138 21.7652C112.175 26.651 112.738 31.6255 112.819 36.6195C121.086 35.4769 123.993 31.276 124.279 30.8391L124.245 30.8223ZM115.759 37.4429C114.787 37.6963 113.799 37.8872 112.802 38.0143C112.802 44.6517 112.281 47.5755 111.239 50.18C115.998 49.8802 120.532 48.0467 124.161 44.9542C125.172 44.0837 125.864 42.9011 126.127 41.5934C126.285 40.785 126.369 39.9638 126.379 39.1401C126.338 36.6558 125.765 34.2092 124.699 31.965C122.335 34.7076 119.155 36.6214 115.625 37.4262V37.4262L115.759 37.4429ZM110.802 20.4881C111.875 20.4615 112.907 20.0686 113.726 19.3747C114.545 18.6809 115.103 17.7279 115.306 16.6737C115.675 13.6995 113.205 11.179 109.878 10.406C109.033 10.2249 108.165 10.1852 107.307 10.2884C107.728 11.0903 108.103 11.9149 108.433 12.7584C109.388 15.2783 110.168 17.861 110.769 20.4881V20.4881H110.802ZM128.345 20.2192C128.345 20.2192 128.227 20.1184 128.244 20.2192C128.702 23.9873 127.77 27.7932 125.623 30.9232C127.942 36.502 127.555 40.1651 127.118 41.7111C127.118 41.7951 127.118 41.8791 127.27 41.7111C127.762 40.7868 128.184 39.8262 128.53 38.8376C129.606 35.9025 130.174 32.8056 130.21 29.6797C130.263 26.4299 129.627 23.2058 128.345 20.2192V20.2192V20.2192ZM93.5617 46.8193C94.448 42.7358 95.8542 38.7828 97.7457 35.0568C102.322 37.5672 107.566 38.5947 112.751 37.9975V37.9975V36.67C107.768 37.315 102.71 36.3117 98.3507 33.8134C100.616 29.3356 103.175 25.0131 106.013 20.8746V20.8746C107.579 21.6304 109.327 21.9276 111.054 21.7316C110.953 21.2779 110.853 20.8746 110.752 20.4377C107.66 20.8914 102.568 18.4381 103.106 13.9347C103.29 12.9363 103.804 12.0288 104.566 11.3582C105.328 10.6876 106.293 10.2929 107.307 10.2379L106.853 9.381C105.392 9.57297 104.034 10.2402 102.988 11.2798C100.645 10.3008 98.1606 9.69964 95.6285 9.49864C94.2634 9.3496 92.8845 9.3835 91.5284 9.59945C93.397 7.91992 95.5548 6.59332 97.897 5.68419C99.316 5.21372 100.78 4.8927 102.266 4.72637C102.596 4.67497 102.933 4.75326 103.207 4.94483C104.744 6.12713 105.991 7.64432 106.853 9.381V9.381C108.568 9.10224 110.327 9.35435 111.894 10.1035C112.387 9.30166 113.042 8.61211 113.818 8.0795C114.594 7.54689 115.472 7.18305 116.398 7.01164C116.616 7.01164 116.532 6.91086 116.398 6.84364C112.66 4.90175 108.511 3.88195 104.299 3.86937C101.737 3.82785 99.191 4.29339 96.809 5.23928C94.4269 6.18517 92.2554 7.59279 90.4194 9.381C90.268 9.52126 90.1275 9.67287 89.9993 9.83463C88.8253 10.0193 87.7001 10.4371 86.69 11.0633C85.68 11.6895 84.8055 12.5116 84.118 13.4811L84.2861 13.6491C85.7264 12.4206 87.4098 11.5101 89.2263 10.9773C88.0614 12.763 87.3065 14.7847 87.016 16.897C86.7254 19.0092 86.9064 21.1595 87.546 23.1935C89.0889 27.828 92.2271 31.7641 96.4015 34.3006C94.5042 38.0572 93.1249 42.0537 92.3014 46.1808C89.1709 44.4587 86.426 42.1142 84.2357 39.2914V40.6188C86.1345 44.2988 92.0661 47.4411 92.1334 47.4747C91.928 49.0301 92.025 50.6107 92.419 52.1293C92.7581 52.3917 93.1243 52.6169 93.5113 52.8014C93.2531 51.2638 93.1966 49.6991 93.3432 48.1469C98.6973 50.8969 104.725 52.0628 110.718 51.5076C110.886 51.1547 111.121 50.5665 111.239 50.264C105.166 50.7934 99.0645 49.6301 93.6121 46.9033V46.9033L93.5617 46.8193ZM90.6714 10.7084C91.5135 10.5498 92.3687 10.471 93.2256 10.4732C96.3493 10.4599 99.4446 11.0652 102.333 12.2543C102.034 12.7702 101.845 13.3423 101.779 13.9347C101.697 14.5369 101.697 15.1474 101.779 15.7495C99.7171 16.3411 97.6869 17.0365 95.6957 17.8331C93.1669 18.9228 90.7474 20.2507 88.4702 21.7988C87.9888 19.9066 87.935 17.9311 88.3129 16.0156C88.6908 14.1001 89.4907 12.2928 90.6546 10.7253V10.7253L90.6714 10.7084ZM88.8567 23.1095C89.8459 22.3862 90.8785 21.7241 91.9485 21.1267C94.9786 19.427 98.1773 18.0473 101.493 17.0098L102.031 16.8585C102.543 18.2481 103.5 19.4295 104.753 20.2192C101.827 24.3012 99.2043 28.592 96.9056 33.0572C93.1847 30.7379 90.3367 27.2518 88.8062 23.1431L88.8567 23.1095Z" fill="black"/>
</svg>
