<svg width="212" height="40" viewBox="0 0 212 40" fill="none" xmlns="http://www.w3.org/2000/svg">
<path d="M50.8328 38.6815C50.3751 38.6946 49.92 38.6081 49.4989 38.4281L48.7386 38.188C47.2714 37.7611 46.8046 36.2272 46.3778 33.1994L41.7493 1.80069C41.7493 1.37386 41.5092 0.0800274 40.6555 0.0800274C40.3253 0.143395 40.0217 0.304381 39.7839 0.542169C39.5461 0.779958 39.3851 1.08361 39.3217 1.41387L25.6631 30.0915L12.0046 1.68065C11.351 0.346802 11.0175 0 10.4706 0C9.92377 0 9.6437 0.253428 9.43029 1.46723L4.42837 34.68C4.1616 36.534 3.73476 38.2813 2.49428 38.5481C2.00387 38.6559 1.5024 38.7052 1.00038 38.6948C0.333461 38.6948 0 38.8816 0 39.2284C0.0186999 39.3508 0.0626549 39.468 0.129037 39.5725C0.195419 39.677 0.282808 39.7666 0.385646 39.8356C0.488484 39.9046 0.604532 39.9514 0.726434 39.9732C0.848336 39.9949 0.973412 39.9911 1.09376 39.962C2.01411 39.962 3.18786 39.962 4.22826 39.8686H6.13565H7.76298C8.8434 39.8686 10.1772 39.962 11.471 39.962C11.9645 39.962 12.8716 39.962 12.8716 39.2284C12.8716 39.0683 12.7782 38.6948 11.9246 38.6948C11.2194 38.6864 10.5172 38.6015 9.83043 38.4414C9.46714 38.4082 9.12924 38.2409 8.88263 37.9721C8.63602 37.7033 8.49839 37.3523 8.49658 36.9875C8.49836 36.1939 8.54733 35.4011 8.64328 34.6133L11.311 14.6056L13.6186 19.5542C14.9524 22.3552 16.1929 25.0096 16.4597 25.6498C17.0599 27.0637 21.0214 34.72 22.3152 37.2009L22.4752 37.4944C23.2755 39.0149 23.7291 39.8419 24.2626 39.8419C24.7962 39.8419 25.1162 39.3217 26.3034 36.8941L37.281 14.032L40.2955 36.1205C40.5049 36.7625 40.4765 37.4584 40.2154 38.0813C39.692 38.4298 39.0692 38.5984 38.4414 38.5614C38.2492 38.5649 38.066 38.6438 37.9313 38.781C37.7966 38.9182 37.7211 39.1028 37.7212 39.2951C37.7191 39.362 37.7311 39.4286 37.7564 39.4906C37.7817 39.5527 37.8196 39.6087 37.8679 39.6552C38.1613 39.9353 38.8282 39.8953 40.2955 39.8019C41.2958 39.8019 42.683 39.6552 44.457 39.6552C45.5908 39.6552 46.9113 39.7219 48.0851 39.7886C49.0321 39.7886 49.8457 39.8819 50.4059 39.8819C51.7398 39.8819 51.9132 39.4151 51.9132 39.1483C51.8332 38.6815 51.1662 38.6815 50.8328 38.6815Z" fill="#B4191E"/>
<path d="M210.747 38.6816C210.29 38.6947 209.835 38.6082 209.414 38.4281L208.653 38.188C207.186 37.7612 206.719 36.2273 206.292 33.1995L201.664 1.80076C201.664 1.37393 201.41 0.0801036 200.57 0.0801036C200.24 0.143471 199.936 0.304457 199.698 0.542245C199.461 0.780034 199.3 1.08369 199.236 1.41395L185.578 30.0916L171.866 1.74741C171.212 0.413565 170.865 0.0667725 170.332 0.0667725C169.798 0.0667725 169.505 0.320201 169.292 1.534L164.37 34.68C164.103 36.5341 163.676 38.2814 162.436 38.5482C161.945 38.656 161.444 38.7052 160.942 38.6949C160.275 38.6949 159.941 38.8816 159.941 39.2284C159.958 39.352 160.001 39.4707 160.067 39.5768C160.132 39.6828 160.22 39.774 160.323 39.8444C160.426 39.9147 160.542 39.9627 160.665 39.9853C160.788 40.0079 160.914 40.0045 161.035 39.9754C161.955 39.9754 163.129 39.9754 164.156 39.882H166.064H167.691C168.771 39.882 170.105 39.9754 171.399 39.9754C171.892 39.9754 172.8 39.9754 172.8 39.2284C172.8 39.0684 172.706 38.6949 171.852 38.6949C171.147 38.6865 170.445 38.6015 169.758 38.4415C169.395 38.4083 169.057 38.241 168.811 37.9722C168.564 37.7034 168.426 37.3524 168.425 36.9876C168.426 36.1939 168.475 35.4011 168.571 34.6133L171.239 14.6057L173.56 19.5542C174.894 22.3553 176.134 25.0097 176.414 25.6632C177.014 27.0771 180.976 34.7334 182.27 37.2143L182.43 37.5078C183.23 39.0284 183.684 39.8553 184.217 39.8553C184.751 39.8553 185.071 39.3351 186.258 36.9075L197.236 14.0455L200.25 36.1339C200.459 36.7759 200.431 37.4718 200.17 38.0947C199.646 38.4432 199.024 38.6118 198.396 38.5748C198.204 38.5783 198.021 38.6572 197.886 38.7944C197.751 38.9316 197.676 39.1162 197.676 39.3085C197.674 39.3754 197.686 39.442 197.711 39.504C197.736 39.5661 197.774 39.6221 197.822 39.6686C198.116 39.9487 198.783 39.9087 200.25 39.8153C201.25 39.8153 202.638 39.6686 204.412 39.6686C205.545 39.6686 206.866 39.7353 208.04 39.802C208.987 39.802 209.8 39.8954 210.36 39.8954C211.694 39.8954 211.868 39.4285 211.868 39.1484C211.774 38.6816 211.108 38.6816 210.747 38.6816Z" fill="#B4191E"/>
<path d="M92.7158 38.6148C92.5755 38.6482 92.4292 38.6482 92.2889 38.6148C92.1035 38.5425 91.9115 38.4888 91.7154 38.4547C90.595 38.188 89.1945 37.3343 87.3804 33.026C85.5664 28.7177 82.1251 20.101 79.3774 13.1917C77.2032 7.72296 75.3759 3.00115 74.7757 1.77402C74.1754 0.546878 73.9219 0 73.3617 0C72.8015 0 72.3881 0.653584 71.7745 2.14749L59.0229 34.0664C57.9291 36.8008 56.9821 38.2413 54.8479 38.5214H54.5145C54.3728 38.54 54.2293 38.54 54.0876 38.5214C53.9968 38.5022 53.9028 38.5025 53.8121 38.5224C53.7213 38.5423 53.6359 38.5813 53.5614 38.6369C53.4869 38.6924 53.4252 38.7632 53.3803 38.8445C53.3353 38.9258 53.3082 39.0157 53.3007 39.1083C53.3007 39.8019 54.021 39.8019 54.4478 39.8019C56.2618 39.8019 57.7558 39.7352 58.7428 39.6819C59.1697 39.6819 59.5031 39.6819 59.6765 39.6819C60.4501 39.6819 61.3971 39.6819 62.3441 39.7486C63.2912 39.8152 64.265 39.8286 65.0919 39.8286C65.2063 39.8601 65.3261 39.8667 65.4431 39.8479C65.5602 39.8291 65.6719 39.7853 65.7706 39.7195C65.8693 39.6537 65.9526 39.5674 66.015 39.4666C66.0774 39.3657 66.1174 39.2526 66.1322 39.135C66.1322 38.5881 65.7054 38.5481 65.1852 38.5481H64.425C62.7844 38.5481 62.571 37.8011 62.571 37.2143C62.6559 36.1757 62.9081 35.1578 63.3178 34.1998L66.0656 26.9303C66.159 26.6369 66.2256 26.6369 66.359 26.6369H77.7368C77.8568 26.6369 77.9234 26.6369 78.0168 26.9303L81.7383 36.7874C81.8352 36.9679 81.8858 37.1695 81.8858 37.3743C81.8858 37.5791 81.8352 37.7808 81.7383 37.9612C81.4944 38.1944 81.2009 38.3695 80.8799 38.4734C80.5589 38.5773 80.2185 38.6074 79.8842 38.5614C79.284 38.5614 78.9905 38.7748 78.9905 39.2017C78.9872 39.2636 78.9974 39.3255 79.0205 39.3831C79.0435 39.4407 79.0787 39.4926 79.1238 39.5351C79.4573 39.8686 80.4578 39.8419 82.5653 39.7886C83.6457 39.7886 84.9928 39.7886 86.6467 39.7886C87.9006 39.7886 88.8611 39.7886 89.7814 39.8819C90.7018 39.9753 91.3286 39.962 92.1822 39.962C93.0359 39.962 93.5962 39.962 93.5962 39.2684C93.603 39.1596 93.5825 39.0509 93.5366 38.9521C93.4907 38.8533 93.4209 38.7675 93.3334 38.7025C93.2459 38.6376 93.1436 38.5955 93.0357 38.5802C92.9279 38.5649 92.8179 38.5768 92.7158 38.6148ZM76.7097 23.7291H67.3728C67.362 23.6898 67.362 23.6483 67.3728 23.609L72.0412 11.1376C72.0631 11.0333 72.1038 10.9339 72.1612 10.8441C72.1952 10.9262 72.222 11.0109 72.2413 11.0976V11.0976L76.843 23.6357H76.7497L76.7097 23.7291Z" fill="#B4191E"/>
<path d="M153.498 38.6149C152.637 38.6004 151.777 38.5336 150.924 38.4148C149.59 38.2281 149.203 37.4544 149.043 36.0806C148.843 33.9064 148.843 29.9582 148.843 24.9696V16.0062C148.843 8.26992 148.843 6.85605 148.95 5.25543C149.056 3.44141 149.496 2.74781 150.67 2.58775C151.163 2.49401 151.663 2.44491 152.164 2.44102C152.276 2.46824 152.392 2.47146 152.505 2.45045C152.619 2.42944 152.726 2.38467 152.82 2.31913C152.915 2.25358 152.994 2.16874 153.054 2.07019C153.113 1.97164 153.151 1.86163 153.165 1.74742C153.165 1.16053 152.311 1.16053 151.911 1.16053C150.844 1.16053 149.443 1.16053 148.203 1.2539C147.216 1.2539 146.282 1.2539 145.708 1.2539C145.135 1.2539 143.961 1.2539 142.827 1.18721C141.693 1.12051 140.16 1.10718 139.093 1.10718C138.599 1.10718 137.692 1.10717 137.692 1.69406C137.704 1.80774 137.74 1.91754 137.798 2.01607C137.856 2.11461 137.934 2.1996 138.028 2.26532C138.121 2.33103 138.228 2.37596 138.34 2.39706C138.452 2.41816 138.568 2.41496 138.679 2.38767C139.281 2.3762 139.882 2.44346 140.466 2.58775C141.507 2.82784 141.96 3.60147 142.067 5.25543C142.174 6.9094 142.174 8.26992 142.174 16.0062V24.9563C142.174 29.9449 142.174 33.8931 141.92 36.0139C141.76 37.6145 141.413 38.2281 140.586 38.4015C140 38.5337 139.4 38.6008 138.799 38.6015C138.559 38.6015 137.799 38.6015 137.799 39.1884C137.799 39.7753 138.199 39.882 138.999 39.882C140.16 39.882 141.667 39.882 143.001 39.7887H145.388H147.722C149.296 39.7887 151.27 39.882 153.311 39.882C154.352 39.882 154.458 39.4018 154.458 39.1884C154.458 38.975 154.312 38.6149 153.498 38.6149Z" fill="#B4191E"/>
<path d="M133.305 38.615C132.662 38.6106 132.024 38.5117 131.411 38.3215C130.217 37.9817 129.171 37.2543 128.436 36.2541C127.582 35.2403 123.341 28.8646 119.913 23.7559L116.592 18.794L125.235 6.58937C126.755 4.36186 127.742 2.98799 128.85 2.69454C129.429 2.5159 130.03 2.41718 130.637 2.4011C131.53 2.4011 131.637 1.97427 131.637 1.76086C131.637 1.54744 131.531 1.12061 130.544 1.12061C129.556 1.12061 128.329 1.12062 127.329 1.21398C126.609 1.21398 125.995 1.21398 125.568 1.21398C125.141 1.21398 124.581 1.21398 123.888 1.21398C122.901 1.21398 121.66 1.12061 120.486 1.12061C119.659 1.12061 119.233 1.33403 119.233 1.76086C119.232 1.85804 119.254 1.95401 119.296 2.04179C119.337 2.12956 119.398 2.20693 119.474 2.26826C119.549 2.32959 119.637 2.37334 119.732 2.39632C119.826 2.4193 119.924 2.42094 120.019 2.4011C120.548 2.38254 121.077 2.43185 121.593 2.54783C121.773 2.58703 121.938 2.67699 122.068 2.80704C122.198 2.93709 122.288 3.10175 122.327 3.28144C122.293 3.92783 122.11 4.55768 121.794 5.12214C121.287 6.08251 118.032 10.8577 115.658 14.3523L114.657 15.8329L112.603 12.6717C110.909 10.0974 108.989 7.13625 107.495 4.66864C107.228 4.26175 107.039 3.80975 106.935 3.33479C106.923 3.19713 106.959 3.05959 107.036 2.94538C107.114 2.83117 107.229 2.74729 107.361 2.70788C107.793 2.57348 108.243 2.506 108.695 2.5078C108.833 2.52414 108.972 2.51248 109.105 2.47351C109.238 2.43454 109.362 2.36908 109.469 2.28105C109.522 2.22445 109.563 2.15709 109.588 2.08348C109.614 2.00987 109.623 1.93171 109.616 1.85422C109.616 1.26733 108.975 1.22732 108.388 1.22732C107.215 1.22732 105.721 1.22732 104.52 1.33403H102.96C101.626 1.33403 99.5584 1.33403 97.9311 1.24066H95.2634C94.8931 1.19533 94.5188 1.28534 94.2096 1.49409C94.1672 1.54079 94.1347 1.59559 94.114 1.65519C94.0934 1.7148 94.0852 1.77797 94.0896 1.84088C94.0878 1.92847 94.1033 2.01555 94.1352 2.09715C94.1671 2.17874 94.2147 2.25325 94.2754 2.31642C94.3361 2.37959 94.4086 2.43018 94.4889 2.46531C94.5691 2.50044 94.6556 2.51941 94.7432 2.52115H94.7031C95.4138 2.53947 96.1185 2.65618 96.7972 2.86795C98.648 3.5277 100.182 4.86142 101.092 6.60271L110.803 21.395L101.372 34.6801C99.705 37.041 98.8246 37.8413 97.2907 38.4282H97.1841C96.9602 38.5554 96.708 38.6242 96.4505 38.6283H96.3704C96.2693 38.6072 96.1649 38.6074 96.0638 38.6287C95.9627 38.6501 95.8671 38.6922 95.7831 38.7524C95.6991 38.8125 95.6286 38.8895 95.5759 38.9783C95.5231 39.0672 95.4893 39.166 95.4767 39.2686C95.4767 39.5086 95.5969 39.9088 96.4238 39.9088H97.2775C97.6777 39.9088 98.2378 39.9088 98.8514 39.8421C99.4649 39.7754 100.185 39.7621 100.679 39.7621C101.532 39.7621 103.253 39.8288 104.387 39.8688H105.467H106.388C106.774 39.8688 107.588 39.8688 107.588 39.2285C107.58 39.1356 107.553 39.0451 107.509 38.9625C107.466 38.8799 107.407 38.8067 107.335 38.7472C107.263 38.6877 107.18 38.643 107.091 38.6157C107.001 38.5884 106.907 38.5791 106.814 38.5883V38.5883C106.435 38.5859 106.056 38.5547 105.681 38.4949C105.49 38.4703 105.312 38.3901 105.167 38.2643C105.022 38.1385 104.918 37.9728 104.867 37.788C104.888 37.0639 105.125 36.3626 105.547 35.7739L112.95 24.3162C115.498 28.211 118.446 32.8661 120.886 36.8276C121.024 36.9864 121.119 37.1771 121.163 37.3822C121.207 37.5873 121.199 37.8002 121.14 38.0014C120.892 38.2168 120.6 38.3741 120.284 38.4618C119.967 38.5494 119.636 38.5653 119.312 38.5083C119.173 38.4916 119.031 38.5031 118.896 38.5421C118.761 38.581 118.635 38.6466 118.526 38.735C118.479 38.7847 118.443 38.8435 118.42 38.9078C118.397 38.972 118.387 39.0404 118.392 39.1085C118.392 39.8955 118.952 39.8821 121.433 39.8154C122.434 39.8154 123.821 39.8154 125.675 39.8154C128.183 39.8154 129.396 39.8154 130.277 39.9088C130.77 39.9088 131.13 39.9088 131.611 39.9088H133.131C133.482 39.9434 133.832 39.8379 134.105 39.6153C134.158 39.5587 134.199 39.4914 134.224 39.4178C134.25 39.3442 134.259 39.266 134.252 39.1885C134.236 39.084 134.197 38.9843 134.139 38.8964C134.08 38.8085 134.003 38.7345 133.912 38.6798C133.822 38.6251 133.721 38.5909 133.616 38.5797C133.511 38.5685 133.404 38.5805 133.305 38.615V38.615Z" fill="#B4191E"/>
</svg>
