<svg width="46" height="56" viewBox="0 0 46 56" fill="none" xmlns="http://www.w3.org/2000/svg">
<path d="M0 4C0 1.79086 1.79086 0 4 0H38C42.4183 0 46 3.58172 46 8V52C46 54.2091 44.2091 56 42 56H4C1.79086 56 0 54.2091 0 52V4Z" fill="#284CA6"/>
<path d="M13.79 41.0667C13.4896 41.0667 13.089 40.9677 12.7886 40.7697C11.7873 39.9778 11.587 39.1859 11.6872 38.5919C11.8874 37.0081 13.8901 35.3253 17.6952 33.5434C19.1973 30.2768 20.5991 26.2182 21.5003 22.8525C20.499 20.6748 19.4977 17.903 20.1986 16.3192C20.3989 15.7253 20.7994 15.3293 21.3001 15.1313C21.5003 15.0323 22.1012 14.9333 22.3014 14.9333C22.8021 14.9333 23.2026 15.5273 23.6032 15.9232C23.9036 16.3192 24.6045 17.1111 23.2026 22.6546C24.5044 25.4263 26.5071 28.198 28.3095 30.1778C29.6112 29.9798 30.7127 29.7818 31.7141 29.7818C33.3162 29.7818 34.2174 30.1778 34.618 30.8707C34.9184 31.4647 34.8182 32.1576 34.2174 33.0485C33.6166 33.8404 32.9157 34.2364 32.0145 34.2364C30.8129 34.2364 29.411 33.4445 27.8088 31.9596C25.0051 32.5536 21.6005 33.6424 18.997 34.7313C18.1959 36.5131 17.3948 37.899 16.5938 38.9879C15.5924 40.3738 14.6912 41.0667 13.79 41.0667ZM16.4936 36.0182C14.3908 37.2061 13.4896 38.196 13.3894 38.6909C13.3894 38.7899 13.3894 38.9879 13.79 39.3839C13.9903 39.3839 14.7913 38.9879 16.4936 36.0182ZM30.1119 31.5637C30.913 32.1576 31.1133 32.4546 31.6139 32.4546C31.8142 32.4546 32.5152 32.4546 32.8156 32.0586C32.9157 31.8606 33.0158 31.7616 33.0158 31.6626C32.9157 31.5637 32.7154 31.4647 31.8142 31.4647C31.4137 31.4647 30.8129 31.5637 30.1119 31.5637ZM22.6018 25.1293C21.9009 27.6041 20.8995 30.1778 19.8982 32.6525C22.001 31.8606 24.3041 31.1677 26.4069 30.6727C25.1052 28.9899 23.7033 27.1091 22.6018 25.1293ZM22.001 16.7152C21.9009 16.7152 20.6993 18.497 22.1012 19.8828C23.1025 17.8041 22.1012 16.7152 22.001 16.7152Z" fill="white"/>
</svg>
