<svg width="46" height="56" viewBox="0 0 46 56" fill="none" xmlns="http://www.w3.org/2000/svg">
<path d="M0 4C0 1.79086 1.79086 0 4 0H38C42.4183 0 46 3.58172 46 8V52C46 54.2091 44.2091 56 42 56H4C1.79086 56 0 54.2091 0 52V4Z" fill="#284CA6"/>
<path d="M16.1963 33.1489L16.7445 31.76L18.0238 28.6167L22.5194 18.2H27.0517V28.8726C27.0517 30.2615 26.942 31.6869 26.6862 33.1489C26.7593 32.8931 27.3806 31.358 28.4771 28.4705L32.5707 18.2H37.7974L29.2081 37.937H22.9946V29.567C22.9946 28.1781 23.0677 26.7161 23.1773 25.181C22.8849 26.3872 22.3367 27.9588 21.5691 29.896L18.17 37.937H12.322L11.6641 18.2H16.6714L16.5252 28.105C16.4521 30.4808 16.3425 32.1621 16.1963 33.1489Z" fill="white"/>
</svg>
