<svg width="46" height="56" viewBox="0 0 46 56" fill="none" xmlns="http://www.w3.org/2000/svg">
<path d="M0 4C0 1.79086 1.79086 0 4 0H38C42.4183 0 46 3.58172 46 8V52C46 54.2091 44.2091 56 42 56H4C1.79086 56 0 54.2091 0 52V4Z" fill="#284CA6"/>
<path d="M36.399 30.5962H30.0895L26.6702 26.3221L33.5495 17.7331H24.0243L21.9076 20.379L19.7909 17.7331H10.2656L17.145 26.3221L10.2656 34.9111H28.8683L26.426 37.9641H36.399L33.4681 34.3005L36.399 30.5962ZM24.7977 33.6899L12.9522 18.9543H14.3362L26.141 33.6899H24.7977Z" fill="white"/>
</svg>
