<svg width="120" height="120" viewBox="0 0 120 120" fill="none" xmlns="http://www.w3.org/2000/svg">
<circle cx="60" cy="60" r="60" fill="#284CA6"/>
<path d="M66.9429 66.9429C61.2857 72.78 60.8743 80.0571 60.3857 96C75.2486 96 85.5086 95.9486 90.8057 90.8057C95.9486 85.5086 96 74.76 96 60.3857C80.0571 60.9 72.78 61.2857 66.9429 66.9429ZM24 60.3857C24 74.76 24.0514 85.5086 29.1943 90.8057C34.4914 95.9486 44.7514 96 59.6143 96C59.1 80.0571 58.7143 72.78 53.0571 66.9429C47.22 61.2857 39.9429 60.8743 24 60.3857ZM59.6143 24C44.7771 24 34.4914 24.0514 29.1943 29.1943C24.0514 34.4914 24 45.24 24 59.6143C39.9429 59.1 47.22 58.7143 53.0571 53.0571C58.7143 47.22 59.1257 39.9429 59.6143 24ZM66.9429 53.0571C61.2857 47.22 60.8743 39.9429 60.3857 24C75.2486 24 85.5086 24.0514 90.8057 29.1943C95.9486 34.4914 96 45.24 96 59.6143C80.0571 59.1 72.78 58.7143 66.9429 53.0571Z" fill="#284CA6"/>
<path d="M96 60.3857V59.6143C80.0571 59.1 72.78 58.7143 66.9429 53.0571C61.2857 47.22 60.8743 39.9429 60.3857 24H59.6143C59.1 39.9429 58.7143 47.22 53.0571 53.0571C47.22 58.7143 39.9429 59.1257 24 59.6143V60.3857C39.9429 60.9 47.22 61.2857 53.0571 66.9429C58.7143 72.78 59.1257 80.0571 59.6143 96H60.3857C60.9 80.0571 61.2857 72.78 66.9429 66.9429C72.78 61.2857 80.0571 60.8743 96 60.3857Z" fill="#F1F4F7"/>
</svg>
