<svg width="120" height="120" viewBox="0 0 120 120" fill="none" xmlns="http://www.w3.org/2000/svg">
<circle cx="60" cy="60" r="60" fill="#284CA6"/>
<path d="M83.3228 44.6532C82.2544 45.127 81.1453 45.5008 80.0072 45.7714C81.2612 44.5797 82.2041 43.0892 82.736 41.4256C82.8878 40.9506 82.372 40.5399 81.9431 40.7942C80.3599 41.7333 78.6544 42.4378 76.8741 42.8884C76.7708 42.9145 76.6643 42.9278 76.5573 42.9278C76.233 42.9278 75.9178 42.8074 75.6698 42.5888C73.7756 40.9194 71.3395 40 68.8102 40C67.7157 40 66.6107 40.1706 65.5257 40.5071C62.1642 41.5497 59.5704 44.3226 58.7566 47.7438C58.4513 49.027 58.3687 50.3114 58.5108 51.5612C58.5271 51.7048 58.4592 51.805 58.4173 51.8521C58.3438 51.9345 58.2396 51.9817 58.1314 51.9817C58.1193 51.9817 58.1069 51.9811 58.0946 51.98C50.7362 51.2963 44.1007 47.7513 39.4104 41.9979C39.1713 41.7045 38.7126 41.7405 38.522 42.0675C37.6035 43.6432 37.1181 45.4454 37.1181 47.2794C37.1181 50.0899 38.2473 52.7385 40.2086 54.6694C39.3838 54.4738 38.5855 54.1658 37.844 53.754C37.4852 53.5546 37.0438 53.8108 37.0387 54.2212C36.9874 58.3964 39.4319 62.1116 43.0938 63.7845C43.0201 63.7863 42.9463 63.7871 42.8725 63.7871C42.292 63.7871 41.7043 63.7311 41.1258 63.6205C40.7218 63.5434 40.3824 63.9266 40.5078 64.3183C41.6964 68.0292 44.8915 70.7644 48.715 71.3855C45.5417 73.5157 41.8464 74.6393 38.0002 74.6393L36.8012 74.6386C36.4318 74.6386 36.1193 74.8794 36.0252 75.2373C35.9324 75.5897 36.1032 75.9615 36.4183 76.1447C40.7523 78.667 45.6958 80 50.7166 80C55.1114 80 59.2224 79.1278 62.9355 77.4079C66.3394 75.8311 69.3474 73.5771 71.8758 70.7085C74.2312 68.0363 76.0731 64.9516 77.3501 61.54C78.5675 58.2881 79.2109 54.8182 79.2109 51.5054V51.3476C79.2108 50.8156 79.4514 50.3151 79.8711 49.9744C81.4638 48.6812 82.8508 47.1589 83.9933 45.4499C84.295 44.9986 83.8192 44.4331 83.3228 44.6532Z" fill="#F1F4F7"/>
</svg>
