<svg width="120" height="120" viewBox="0 0 120 120" fill="none" xmlns="http://www.w3.org/2000/svg">
<circle cx="60" cy="60" r="60" fill="#284CA6"/>
<path d="M65.6715 72.5706C71.481 71.387 74.9624 68.6358 75.1466 68.4882C76.8466 67.1248 77.1197 64.6415 75.7564 62.9413C74.3932 61.2413 71.9101 60.9682 70.2097 62.3314C70.1738 62.3604 66.4606 65.2088 60.3512 65.213C54.2419 65.2088 50.4503 62.3604 50.4143 62.3314C48.7139 60.9682 46.2308 61.2413 44.8677 62.9413C43.5043 64.6415 43.7774 67.1248 45.4774 68.4882C45.6641 68.6379 49.2892 71.4608 55.2616 72.6164L46.9379 81.3153C45.4253 82.8841 45.4707 85.3819 47.0395 86.8946C47.8052 87.6329 48.792 87.9998 49.778 87.9998C50.8118 87.9998 51.8446 87.5959 52.6188 86.7929L60.3514 78.5556L68.865 86.8462C70.4076 88.3863 72.9055 88.3838 74.4451 86.8419C75.9848 85.2997 75.9829 82.8014 74.4408 81.2618L65.6715 72.5706Z" fill="#F1F4F7"/>
<path d="M60.3512 65.213C60.3414 65.213 60.3607 65.213 60.3512 65.2132C60.3416 65.213 60.3609 65.213 60.3512 65.213Z" fill="#F1F4F7"/>
<path d="M60.5467 32C52.5321 32 46.0352 38.4972 46.0352 46.5116C46.0352 54.5262 52.5321 61.0238 60.5467 61.0238C68.5614 61.0238 75.0583 54.5262 75.0583 46.5116C75.0583 38.4972 68.5614 32 60.5467 32ZM60.5467 52.5108C57.2338 52.5108 54.548 49.8248 54.548 46.5118C54.548 43.1988 57.2338 40.513 60.5467 40.513C63.8597 40.513 66.5455 43.1988 66.5455 46.5118C66.5455 49.8248 63.8597 52.5108 60.5467 52.5108Z" fill="#F1F4F7"/>
</svg>
