<svg width="120" height="120" viewBox="0 0 120 120" fill="none" xmlns="http://www.w3.org/2000/svg">
<circle cx="60" cy="60" r="60" fill="#284CA6"/>
<path d="M86.8547 46.2637C86.5271 45.053 85.888 43.9493 85.0011 43.0624C84.1142 42.1755 83.0104 41.5364 81.7997 41.2088C77.3675 40 59.5287 40 59.5287 40C59.5287 40 41.6898 40.0366 37.2576 41.2454C36.0469 41.573 34.9431 42.2121 34.0562 43.099C33.1693 43.9859 32.5303 45.0897 32.2027 46.3004C30.862 54.1758 30.3419 66.1758 32.2393 73.7363C32.5669 74.947 33.206 76.0507 34.0929 76.9376C34.9798 77.8245 36.0835 78.4636 37.2942 78.7912C41.7265 80 59.5653 80 59.5653 80C59.5653 80 77.4041 80 81.8364 78.7912C83.0471 78.4636 84.1508 77.8245 85.0377 76.9376C85.9246 76.0507 86.5637 74.947 86.8913 73.7363C88.3052 65.8498 88.7411 53.8571 86.8547 46.2637Z" fill="#F1F4F7"/>
<path d="M53.5 68.8094L68.2985 60.2379L53.5 51.6665V68.8094Z" fill="#284CA6"/>
</svg>
