<svg width="120" height="120" viewBox="0 0 120 120" fill="none" xmlns="http://www.w3.org/2000/svg">
<circle cx="60" cy="60" r="60" fill="#284CA6"/>
<path fill-rule="evenodd" clip-rule="evenodd" d="M32.971 58.7473L43.9222 62.3154C43.9549 62.3211 43.9878 62.3255 44.0207 62.3284L49.1499 76.5252C49.1499 76.5252 49.6313 77.5223 50.2137 77.8206C50.5861 78.0642 51.3228 77.8705 52.7626 76.4303C55.1063 74.0861 57.3792 72.1199 58.5183 71.1622C62.283 73.7616 66.3358 76.6376 68.0839 78.1413C68.3768 78.4256 68.7239 78.648 69.1046 78.7952C69.4852 78.9425 69.8916 79.0116 70.2995 78.9984C71.9594 78.936 72.4228 77.1126 72.4228 77.1126C72.4228 77.1126 80.1663 45.953 80.4251 41.7779C80.4351 41.6197 80.4463 41.4836 80.4565 41.36C80.4726 41.1643 80.4862 40.9997 80.4883 40.8274C80.5017 40.5023 80.4697 40.177 80.3933 39.8607C80.3544 39.6817 80.2686 39.5162 80.1448 39.3812C80.0209 39.2462 79.8634 39.1465 79.6884 39.0923C78.9809 38.8234 77.7813 39.2276 77.7813 39.2276C77.7813 39.2276 35.2954 54.4982 32.8689 56.1896C32.3454 56.5527 32.1704 56.7639 32.0836 57.0122C31.6622 58.2163 32.971 58.7473 32.971 58.7473Z" fill="#F1F4F7"/>
</svg>
