<svg width="422" height="80" viewBox="0 0 422 80" fill="none" xmlns="http://www.w3.org/2000/svg">
<path d="M0 1.8018H19.6997L41.4414 26.4264C43.2432 28.7087 44.8048 30.6306 45.8859 33.033H46.2463V24.8649V1.8018H63.4234V54.6547H44.9249L22.2222 30.03C20.9009 28.4685 18.3784 25.2252 17.6577 23.3033H17.2973V31.4715V54.6547H0V1.8018Z" fill="#00204C"/>
<path d="M68.8291 29.0691C68.8291 12.7327 82.2826 0 104.505 0C121.442 0 134.295 6.48649 137.418 17.2973L116.637 20.6607C114.955 16.6967 111.231 13.4535 104.024 13.4535C94.0543 13.4535 88.8892 19.4595 88.8892 28.9489C88.8892 37.7177 94.1744 43.7237 104.144 43.7237C113.634 43.7237 118.679 39.3994 119.28 35.4354V35.3153H101.982V24.2643H137.298V54.7748H122.763L122.162 46.006C119.52 50.4504 112.913 56.4565 98.9793 56.4565C79.8802 56.4565 68.8291 44.5646 68.8291 29.0691Z" fill="#00204C"/>
<path d="M138.618 45.5255L150.87 34.8348C156.036 39.3994 164.324 43.3634 173.453 43.3634C181.381 43.3634 185.105 41.9219 185.105 39.1592C185.105 37.1171 183.783 36.3964 179.339 35.9159L163.483 34.1141C150.03 32.4324 143.543 27.5075 143.543 17.2973C143.543 6.48649 154.234 0 172.973 0C184.624 0 195.675 2.52252 203.723 8.04805L193.153 19.2192C188.708 15.3754 180.66 12.7327 171.891 12.7327C165.525 12.7327 162.162 14.0541 162.162 16.3363C162.162 18.3784 163.723 19.2192 169.009 19.8198L182.702 21.1411C197.958 22.7027 204.084 27.1471 204.084 37.2372C204.204 49.6096 192.192 56.4565 172.372 56.4565C158.198 56.4565 144.985 51.6517 138.618 45.5255Z" fill="#00204C"/>
<path d="M303.784 32.9129H287.928V54.5345H280.721V2.04204H306.306C320.24 2.04204 324.204 9.96997 324.204 17.4174C324.204 23.3033 320.961 30.03 311.712 31.9519L326.126 54.5345H317.718L303.784 32.9129ZM287.928 26.9069H305.225C313.874 26.9069 316.637 22.3423 316.637 17.4174C316.637 12.4925 313.874 8.04804 305.345 8.04804H287.928V26.9069V26.9069Z" fill="#00204C"/>
<path d="M339.339 2.04199V33.3933C339.339 42.7627 345.465 49.7297 356.156 49.7297C366.847 49.7297 372.973 42.7627 372.973 33.3933V2.04199H380.3V33.7537C380.3 46.7267 371.651 55.9759 356.156 55.9759C340.66 55.9759 332.012 46.7267 332.012 33.7537V2.04199H339.339Z" fill="#00204C"/>
<path d="M12.2522 79.7596H9.84983V73.8737H3.24322V79.7596H0.84082V66.7866H3.24322V72.0719H9.84983V66.7866H12.2522V79.7596Z" fill="#00204C"/>
<path d="M29.429 73.2731C29.429 75.3151 28.8284 76.9968 27.6272 78.198C26.426 79.3992 24.7444 79.9998 22.7023 79.9998C20.5402 79.9998 18.8585 79.3992 17.6573 78.3181C16.4561 77.1169 15.8555 75.5554 15.8555 73.3932C15.8555 71.2311 16.4561 69.6695 17.6573 68.4683C18.8585 67.2671 20.5402 66.7866 22.7023 66.7866C24.8645 66.7866 26.5462 67.3872 27.6272 68.4683C28.8284 69.5494 29.429 71.1109 29.429 73.2731ZM18.378 73.2731C18.378 74.8347 18.7384 76.0359 19.4591 76.8767C20.1798 77.7176 21.2609 78.0779 22.5822 78.0779C24.0236 78.0779 24.9846 77.7176 25.7053 76.8767C26.426 76.0359 26.7864 74.8347 26.7864 73.2731C26.7864 71.7115 26.426 70.5103 25.7053 69.6695C24.9846 68.8287 23.9035 68.4683 22.5822 68.4683C21.1408 68.4683 20.0597 68.8287 19.339 69.6695C18.8585 70.5103 18.378 71.7115 18.378 73.2731Z" fill="#00204C"/>
<path d="M33.1533 66.7866H37.4776C39.3996 66.7866 40.841 67.0269 41.802 67.5073C42.6428 67.9878 43.1233 68.8287 43.1233 70.0299C43.1233 70.7506 42.8831 71.4713 42.5227 71.9518C42.0422 72.4323 41.4416 72.7926 40.6008 72.9127V73.0329C41.5617 73.153 42.4026 73.5133 42.7629 73.9938C43.2434 74.4743 43.4837 75.195 43.4837 76.0359C43.4837 77.2371 43.0032 78.0779 42.1623 78.7986C41.2014 79.3992 40.0002 79.7596 38.4386 79.7596H33.2734L33.1533 66.7866ZM35.4356 72.192H37.7179C38.6788 72.192 39.3996 72.0719 39.88 71.8317C40.3605 71.5914 40.6008 71.1109 40.6008 70.3902C40.6008 69.7896 40.3605 69.3091 39.88 69.0689C39.3996 68.8287 38.5587 68.7085 37.5978 68.7085H35.5557L35.4356 72.192ZM35.4356 73.8737V77.9578H37.9581C38.9191 77.9578 39.6398 77.8377 40.2404 77.4773C40.7209 77.117 40.9611 76.6365 40.9611 75.9158C40.9611 75.195 40.7209 74.7146 40.2404 74.4743C39.7599 74.114 38.9191 73.9938 37.838 73.9938H35.4356V73.8737Z" fill="#00204C"/>
<path d="M59.8197 73.2731C59.8197 75.3151 59.2191 76.9968 58.0179 78.198C56.8167 79.3992 55.135 79.9998 53.0929 79.9998C50.9308 79.9998 49.2491 79.3992 48.0479 78.3181C46.8467 77.1169 46.2461 75.5554 46.2461 73.3932C46.2461 71.2311 46.8467 69.6695 48.0479 68.4683C49.2491 67.2671 50.9308 66.7866 53.0929 66.7866C55.2551 66.7866 56.9368 67.3872 58.0179 68.4683C59.2191 69.5494 59.8197 71.1109 59.8197 73.2731ZM48.7686 73.2731C48.7686 74.8347 49.129 76.0359 49.8497 76.8767C50.5704 77.7176 51.6515 78.0779 52.9728 78.0779C54.4143 78.0779 55.3752 77.7176 56.0959 76.8767C56.8167 76.0359 57.177 74.8347 57.177 73.2731C57.177 71.7115 56.8167 70.5103 56.0959 69.6695C55.3752 68.8287 54.2941 68.4683 52.9728 68.4683C51.5314 68.4683 50.4503 68.8287 49.7296 69.6695C49.129 70.5103 48.7686 71.7115 48.7686 73.2731Z" fill="#00204C"/>
<path d="M69.6701 68.4683C68.3488 68.4683 67.2677 68.9488 66.4268 69.7896C65.586 70.6305 65.2256 71.8317 65.2256 73.3932C65.2256 74.9548 65.586 76.156 66.3067 76.9968C67.0274 77.8377 68.1085 78.198 69.55 78.198C70.1506 78.198 70.7512 78.198 71.3518 78.0779C71.9524 77.9578 72.553 77.8377 73.1536 77.7175V79.2791C72.0725 79.6395 70.7512 79.8797 69.3097 79.8797C67.2677 79.8797 65.586 79.2791 64.5049 78.198C63.4238 76.9968 62.8232 75.4353 62.8232 73.2731C62.8232 71.9518 63.0635 70.7506 63.6641 69.7896C64.2647 68.7085 64.9854 67.9878 66.0665 67.5073C67.1476 67.0269 68.3488 66.6665 69.6701 66.6665C71.1115 66.6665 72.553 66.9067 73.7542 67.5073L72.9133 69.3091C72.4329 69.0689 71.9524 68.9488 71.3518 68.8287C70.7512 68.5884 70.2707 68.4683 69.6701 68.4683Z" fill="#00204C"/>
<path d="M76.877 66.7866H79.0391V73.5134C79.0391 74.2341 79.0391 74.9548 79.0391 75.6755C79.0391 76.3962 78.919 76.8767 78.919 77.1169H79.0391L86.3664 66.7866H89.1292V79.7596H86.967V73.153C86.967 72.0719 87.0872 70.8707 87.2073 69.4293H87.0872L79.7598 79.7596H76.877V66.7866Z" fill="#00204C"/>
<path d="M103.183 75.7956C103.183 78.4383 101.381 79.6395 97.6573 79.6395H93.4531V66.7866H102.222V68.5884H95.8555V72.0719H97.5372C101.261 72.0719 103.183 73.2731 103.183 75.7956ZM95.8555 77.9578H97.5372C98.6183 77.9578 99.4591 77.8377 100.06 77.4773C100.54 77.117 100.901 76.6365 100.901 75.9158C100.901 75.195 100.66 74.7146 100.06 74.3542C99.5793 73.9938 98.6183 73.8737 97.297 73.8737H95.8555V77.9578Z" fill="#00204C"/>
<path d="M106.667 66.7866H108.829V73.5134C108.829 74.2341 108.829 74.9548 108.829 75.6755C108.829 76.3962 108.709 76.8767 108.709 77.1169H108.829L116.156 66.7866H118.919V79.7596H116.757V73.153C116.757 72.0719 116.877 70.8707 116.997 69.4293H116.877L109.55 79.7596H106.787V66.7866H106.667Z" fill="#00204C"/>
<path d="M132.733 70.7506C132.733 72.0719 132.252 73.153 131.291 73.8737C130.33 74.5944 128.889 74.9548 127.087 74.9548H125.646V79.7596H123.243V66.7866H127.447C129.249 66.7866 130.57 67.147 131.531 67.7476C132.252 68.4683 132.733 69.4293 132.733 70.7506ZM125.525 73.153H126.727C127.928 73.153 128.769 72.9128 129.369 72.5524C129.97 72.192 130.21 71.5914 130.21 70.7506C130.21 70.0299 129.97 69.4293 129.489 69.0689C129.009 68.7085 128.168 68.5884 127.087 68.5884H125.405V73.153H125.525Z" fill="#00204C"/>
<path d="M142.342 68.4683C141.021 68.4683 139.94 68.9488 139.099 69.7896C138.258 70.6305 137.898 71.8317 137.898 73.3932C137.898 74.9548 138.258 76.156 138.979 76.9968C139.699 77.8377 140.78 78.198 142.222 78.198C142.822 78.198 143.423 78.198 144.024 78.0779C144.624 77.9578 145.225 77.8377 145.825 77.7175V79.2791C144.744 79.6395 143.423 79.8797 141.982 79.8797C139.94 79.8797 138.258 79.2791 137.177 78.198C136.096 76.9968 135.495 75.4353 135.495 73.2731C135.495 71.9518 135.735 70.7506 136.336 69.7896C136.937 68.7085 137.657 67.9878 138.738 67.5073C139.819 67.0269 141.021 66.6665 142.342 66.6665C143.783 66.6665 145.225 66.9067 146.426 67.5073L145.585 69.3091C145.105 69.0689 144.624 68.9488 144.024 68.8287C143.543 68.5884 142.943 68.4683 142.342 68.4683Z" fill="#00204C"/>
<path d="M160.601 79.7596H157.838L151.952 73.2731V79.7596H149.55V66.7866H151.952V73.0329L157.718 66.7866H160.361L154.595 73.0329L160.601 79.7596Z" fill="#00204C"/>
<path d="M181.742 73.2731C181.742 75.3151 181.141 76.9968 179.94 78.198C178.739 79.3992 177.057 79.9998 175.015 79.9998C172.853 79.9998 171.171 79.3992 169.97 78.3181C168.769 77.1169 168.168 75.5554 168.168 73.3932C168.168 71.2311 168.769 69.6695 169.97 68.4683C171.171 67.2671 172.853 66.7866 175.015 66.7866C177.177 66.7866 178.859 67.3872 179.94 68.4683C181.141 69.5494 181.742 71.1109 181.742 73.2731ZM170.811 73.2731C170.811 74.8347 171.171 76.0359 171.892 76.8767C172.612 77.7176 173.693 78.0779 175.015 78.0779C176.456 78.0779 177.417 77.7176 178.138 76.8767C178.859 76.0359 179.219 74.8347 179.219 73.2731C179.219 71.7115 178.859 70.5103 178.138 69.6695C177.417 68.8287 176.336 68.4683 175.015 68.4683C173.573 68.4683 172.492 68.8287 171.772 69.6695C171.171 70.5103 170.811 71.7115 170.811 73.2731Z" fill="#00204C"/>
<path d="M196.757 79.7596H194.355V73.8737H187.748V79.7596H185.346V66.7866H187.748V72.0719H194.355V66.7866H196.757V79.7596Z" fill="#00204C"/>
<path d="M212.012 79.7596H209.61V68.7085H205.526C205.045 72.4323 204.565 75.0749 204.324 76.3962C203.964 77.7175 203.604 78.6785 203.003 79.2791C202.402 79.7596 201.682 79.9998 200.721 79.9998C200.24 79.9998 199.76 79.8797 199.399 79.7596V77.9578C199.76 78.0779 200.12 78.198 200.48 78.198C200.961 78.198 201.321 77.9578 201.562 77.4773C201.802 76.9968 202.162 75.7956 202.402 74.1139C202.763 72.4323 203.123 69.9097 203.604 66.9067H212.012V79.7596Z" fill="#00204C"/>
<path d="M225.345 79.7596L223.904 76.156H218.378L216.937 79.7596H214.414L219.819 66.7866H222.342L227.747 79.7596H225.345ZM223.303 74.3542L221.982 70.8707C221.862 70.6305 221.741 70.2701 221.621 69.7896C221.501 69.3091 221.381 68.9488 221.261 68.7085C221.141 69.4293 220.78 70.2701 220.54 71.1109L219.219 74.4743L223.303 74.3542Z" fill="#00204C"/>
<path d="M230.271 66.7867H232.433V73.5134C232.433 74.2342 232.433 74.9549 232.433 75.6756C232.433 76.3963 232.313 76.8768 232.313 77.117H232.433L239.76 66.7867H242.523V79.7597H240.361V73.1531C240.361 72.072 240.481 70.8708 240.601 69.4294H240.481L233.153 79.7597H230.391V66.7867H230.271ZM236.517 65.8258C235.075 65.8258 234.114 65.5855 233.514 65.105C232.913 64.6246 232.553 63.9038 232.433 62.8228H234.475C234.475 63.1831 234.595 63.5435 234.715 63.7837C234.835 64.024 235.075 64.1441 235.316 64.2642C235.556 64.3843 235.916 64.3843 236.517 64.3843C237.117 64.3843 237.598 64.2642 237.958 64.024C238.319 63.7837 238.439 63.3032 238.559 62.7026H240.721C240.601 63.7837 240.24 64.5044 239.52 64.8648C238.919 65.5855 237.838 65.8258 236.517 65.8258Z" fill="#00204C"/>
<path d="M258.258 79.7596H255.856V73.8737H249.249V79.7596H246.847V66.7866H249.249V72.0719H255.856V66.7866H258.258V79.7596Z" fill="#00204C"/>
<path d="M268.949 1.92188H216.336V54.4144H268.949V1.92188V1.92188Z" fill="#0086E6"/>
<path d="M268.949 1.92192H242.643V28.2282H268.949V1.92192Z" fill="#00B9F2"/>
<path d="M242.642 28.228H216.336V54.5343H242.642V28.228Z" fill="#005FAD"/>
</svg>
