<svg width="100" height="120" viewBox="0 0 100 120" fill="none" xmlns="http://www.w3.org/2000/svg">
<path d="M0 12C0 5.37259 5.37258 0 12 0H76C89.2548 0 100 10.7452 100 24V108C100 114.627 94.6274 120 88 120H12C5.37258 120 0 114.627 0 108V12Z" fill="#FF3A44"/>
<path d="M29.5555 88C28.9118 88 28.0535 87.7879 27.4098 87.3636C25.2641 85.6667 24.8349 83.9697 25.0495 82.697C25.4786 79.303 29.7701 75.697 37.9239 71.8788C41.1425 64.8788 44.1466 56.1818 46.0778 48.9697C43.932 44.303 41.7863 38.3636 43.2883 34.9697C43.7174 33.697 44.5757 32.8485 45.6486 32.4242C46.0778 32.2121 47.3652 32 47.7943 32C48.8672 32 49.7255 33.2727 50.5838 34.1212C51.2275 34.9697 52.7295 36.6667 49.7255 48.5455C52.515 54.4848 56.8065 60.4242 60.6688 64.6667C63.4583 64.2424 65.8186 63.8182 67.9643 63.8182C71.3975 63.8182 73.3287 64.6667 74.187 66.1515C74.8307 67.4242 74.6161 68.9091 73.3287 70.8182C72.0412 72.5152 70.5392 73.3636 68.608 73.3636C66.0331 73.3636 63.0291 71.6667 59.5959 68.4849C53.5878 69.7576 46.2923 72.0909 40.7134 74.4242C38.9968 78.2424 37.2802 81.2121 35.5636 83.5455C33.4179 86.5152 31.4867 88 29.5555 88ZM35.349 77.1818C30.843 79.7273 28.9118 81.8485 28.6973 82.9091C28.6973 83.1212 28.6973 83.5455 29.5555 84.3939C29.9847 84.3939 31.7013 83.5455 35.349 77.1818ZM64.5311 67.6364C66.2477 68.9091 66.6769 69.5455 67.7497 69.5455C68.1789 69.5455 69.6809 69.5455 70.3246 68.697C70.5392 68.2727 70.7538 68.0606 70.7538 67.8485C70.5392 67.6364 70.1101 67.4242 68.1789 67.4242C67.3206 67.4242 66.0331 67.6364 64.5311 67.6364ZM48.4381 53.8485C46.936 59.1515 44.7903 64.6667 42.6446 69.9697C47.1506 68.2727 52.0858 66.7879 56.5919 65.7273C53.8024 62.1212 50.7984 58.0909 48.4381 53.8485ZM47.1506 35.8182C46.936 35.8182 44.3612 39.6364 47.3652 42.6061C49.5109 38.1515 47.3652 35.8182 47.1506 35.8182Z" fill="white"/>
</svg>
