<svg width="100" height="120" viewBox="0 0 100 120" fill="none" xmlns="http://www.w3.org/2000/svg">
<path d="M0 12C0 5.37259 5.37258 0 12 0H76C89.2548 0 100 10.7452 100 24V108C100 114.627 94.6274 120 88 120H12C5.37258 120 0 114.627 0 108V12Z" fill="#3A71FF"/>
<path d="M34.7119 71.0336L35.8867 68.0573L38.628 61.3217L48.2615 39H57.9734V61.8699C57.9734 64.8462 57.7385 67.9007 57.1902 71.0336C57.3469 70.4853 58.6783 67.1958 61.028 61.0084L69.8 39H81L62.5944 81.2937H49.2797V63.358C49.2797 60.3818 49.4364 57.249 49.6713 53.9594C49.0448 56.5441 47.8699 59.9119 46.2252 64.0629L38.9413 81.2937H26.4098L25 39H35.7301L35.4168 60.2252C35.2601 65.3161 35.0252 68.9189 34.7119 71.0336Z" fill="white"/>
</svg>
