<svg width="100" height="120" viewBox="0 0 100 120" fill="none" xmlns="http://www.w3.org/2000/svg">
<path d="M0 12C0 5.37259 5.37258 0 12 0H76C89.2548 0 100 10.7452 100 24V108C100 114.627 94.6274 120 88 120H12C5.37258 120 0 114.627 0 108V12Z" fill="#00D63C"/>
<path d="M78 65.5639H64.4798L57.1526 56.405L71.8941 38H51.4829L46.947 43.6698L42.4112 38H22L36.7414 56.405L22 74.81H61.8629L56.6293 81.352H78L71.7196 73.5016L78 65.5639ZM53.1402 72.1931L27.757 40.6168H30.7227L56.0187 72.1931H53.1402Z" fill="white"/>
</svg>
