<svg width="340" height="80" viewBox="0 0 340 80" fill="none" xmlns="http://www.w3.org/2000/svg">
<path fill-rule="evenodd" clip-rule="evenodd" d="M31.9066 18.328C30.3272 17.898 28.682 18.744 28.2404 20.21C27.7906 21.696 28.684 23.232 30.2594 23.67C31.8106 24.062 33.4438 23.198 33.9116 21.726C34.3734 20.258 33.4538 18.724 31.9066 18.328ZM49.328 56.776C26.943 70.964 -3.29627 59.804 6.32903 26.3C12.1582 6.346 36.7662 1.184 51.1752 9.646C76.5148 24.332 59.697 54.794 50.0836 51.164C38.8572 46.624 43.395 32.754 43.395 23.686C50.0656 21.818 56.3366 21.726 59.601 24.07C62.2358 26.478 53.32 31.826 47.9986 32.966C47.7648 33.882 47.515 34.728 47.269 35.654C55.359 32.59 55.667 35.676 46.3934 38.594C46.1176 39.618 45.8478 40.636 45.5898 41.696C54.0618 38.49 57.1242 35.39 54.1716 33.25C60.6346 29.77 63.4592 24.828 59.517 22.358C54.7034 19.818 49.0082 19.626 43.227 21.038C42.3714 17.074 40.5504 14.14 37.3358 12.782C35.077 11.908 31.5646 12.668 29.2638 14.762C29.2758 14.762 29.2698 14.762 21.5216 10.992C21.5376 11.006 21.5256 10.954 23.9784 19.108C21.3236 21.39 19.4506 24.95 18.0713 28.624C17.9633 28.888 18.1652 28.954 18.653 28.888C20.768 25.516 22.2712 22.172 26.1654 20.542C26.4632 20.17 26.657 19.552 26.6172 19.056C23.6606 13.47 26.631 19.056 23.6306 13.558C28.946 17.404 23.6306 13.574 28.962 17.472C33.2738 12.774 39.3768 14.532 39.5628 21.952C25.7156 26.426 13.1537 39.026 11.5385 49.34C11.2706 51.164 12.1062 53.184 16.1062 52.858C23.6346 52.154 31.3428 46.252 36.8242 40.008C36.3364 39.206 35.8446 38.314 35.3588 37.518C25.1338 51.436 13.1177 53.262 13.5995 50.288C15.9923 38.338 39.7328 24.532 39.7328 24.532C39.7328 24.532 36.6222 49.184 48.5904 52.618C65.2502 57.078 79.2094 14.46 45.086 4.696C24.98 -1.41 6.20509 11.034 2.23701 28.272C-2.65659 51.452 7.40649 63.7 24.7 67.184C34.7852 69.074 45.7738 66.662 53.646 61.824C53.296 61.726 49.21 56.802 49.328 56.776Z" fill="#F48120"/>
<path fill-rule="evenodd" clip-rule="evenodd" d="M84.7149 7.15802V3.21002C87.1717 3.04402 89.8283 2.69602 92.7029 2.06402V19.22C93.0927 18.022 93.7943 16.932 94.8659 16.038C95.9313 15.09 96.8969 14.622 97.7505 14.622C100.799 14.458 102.784 16.186 103.69 19.714C104.639 23.312 105.159 27.67 105.255 32.92C105.513 47.51 103.108 54.796 98.0043 54.796C97.0289 54.646 96.0193 54.136 94.9799 53.228C93.9523 52.352 93.1927 51.496 92.7029 50.506V65.092H94.9799V68.868H85.4505V65.092H87.8253V50.506C87.2715 51.524 86.5299 52.486 85.5585 53.414C84.6209 54.222 83.6293 54.75 82.5799 54.796C79.4413 54.906 77.4463 52.968 76.5707 48.898C75.6933 44.894 75.2695 39.916 75.2695 34.068C75.4333 21.038 77.9041 14.6 82.6839 14.624C83.6613 14.624 84.6689 15.092 85.7023 15.918C86.7119 16.8 87.4335 17.906 87.8253 19.274V7.15802H84.7149ZM87.8253 29.78C87.8253 23.376 86.6199 20.212 84.2251 20.25C83.4675 20.25 82.7437 20.874 82.0961 22.042C81.3525 23.246 80.9627 25.152 80.9627 27.668C80.8647 30.748 80.8007 33.024 80.8007 34.554C80.8007 39.238 80.9627 42.912 81.2865 45.55C81.6123 48.19 82.6539 49.534 84.3889 49.596C86.6839 49.596 87.8253 47.222 87.8253 42.58V29.78ZM92.7029 42.584C92.7029 47.4 93.9063 49.832 96.2751 49.832C97.2247 49.762 98.0043 48.854 98.6541 47.226C99.0739 46.212 99.3697 44.562 99.4677 42.254C99.5615 39.026 99.6315 36.552 99.6315 34.764C99.6315 33.414 99.6155 32.31 99.5755 31.46C99.5635 30.616 99.5335 29.706 99.4677 28.646C99.5615 25.478 99.2297 23.214 98.4101 21.998C97.7125 20.858 96.9289 20.252 96.1153 20.252C93.8423 20.252 92.7049 22.69 92.7049 27.512L92.7029 42.584ZM107.956 34.716C107.956 29.608 108.813 24.986 110.606 20.854C112.363 16.724 115.046 14.622 118.624 14.622C122.163 14.622 124.801 16.59 126.62 20.54C128.414 24.498 129.293 29.218 129.293 34.716C129.293 40.152 128.4 44.892 126.578 48.852C124.755 52.812 122.107 54.794 118.624 54.794C115.046 54.748 112.365 52.592 110.606 48.522C108.813 44.326 107.956 39.74 107.956 34.716ZM114.135 34.716C114.135 35.69 114.135 36.686 114.135 37.648C114.135 38.652 114.135 39.676 114.135 40.718C114.41 43.906 114.786 46.426 115.272 48.192C115.76 49.858 116.865 50.832 118.53 50.832C120.216 50.832 121.371 49.888 121.999 48.082C122.638 46.21 122.988 43.788 123.112 40.716C123.15 39.35 123.178 37.36 123.178 34.714C123.178 31.962 123.15 29.94 123.112 28.642C122.988 25.636 122.64 23.182 121.999 21.288C121.371 19.382 120.216 18.508 118.53 18.556C116.865 18.556 115.738 19.432 115.232 21.224C114.734 23.016 114.362 25.486 114.135 28.642C114.135 29.618 114.135 30.612 114.135 31.622C114.135 32.632 114.135 33.678 114.135 34.716ZM140.22 35.692V50.158H142.497V53.804H132.06V50.158H134.373V19.22H132.06V15.598H142.497V19.22H140.22V31.432H147.396V19.22H145.031V15.598H155.634V19.22H153.185V50.158H155.632V53.804H145.029V50.158H147.394V35.692H140.22ZM173.556 53.804H163.115V50.158H165.396V19.6C164.076 19.386 163.087 19.882 162.465 21.02C162.259 21.42 162.097 22.204 161.979 23.348C161.877 24.87 161.781 25.982 161.767 26.694C161.767 27.304 161.733 27.964 161.701 28.646C161.667 29.384 161.619 29.944 161.575 30.39H158.075V15.598H178.597V30.39H175.021C175.021 28.764 174.985 27.512 174.963 26.694C174.821 25.164 174.725 24.058 174.633 23.348C174.633 22.352 174.467 21.534 174.135 21.02C173.52 19.882 172.546 19.386 171.179 19.6V50.158H173.556V53.804ZM201.266 50.574V53.93C200.062 54.466 198.989 54.796 198.016 54.796C195.567 54.646 193.948 53.244 193.2 50.576C192.712 51.496 191.915 52.486 190.795 53.326C189.67 54.206 188.616 54.75 187.575 54.796C186.045 54.796 184.632 53.998 183.297 52.486C181.963 50.938 181.266 48.7 181.23 45.71C181.168 40.946 182.387 37.43 184.858 35.09C187.311 32.754 190.109 31.122 193.2 30.226V22.16C193.2 20.056 192.322 19.034 190.599 18.952C189.784 18.952 189.166 19.112 188.816 19.436C188.42 19.762 188.16 20.212 188.06 20.738C187.996 20.984 188.03 21.532 188.156 22.364C188.194 22.612 188.274 22.854 188.338 23.066C188.436 23.35 188.486 23.538 188.486 23.784C188.584 24.662 188.584 25.316 188.486 25.718C188.3 26.94 187.931 27.8 187.311 28.438C186.729 29.004 186.077 29.298 185.362 29.298C184.552 29.22 183.869 28.752 183.297 27.902C182.715 27.036 182.435 25.772 182.435 24.004C182.503 22.206 182.941 20.608 183.785 19.222C184.632 17.778 185.752 16.674 187.167 15.808C188.584 14.962 189.96 14.6 191.249 14.624C192.976 14.624 194.731 15.422 196.454 16.95C198.208 18.53 199.055 21.508 199.055 25.88V45.38C199.055 45.776 199.071 46.128 199.103 46.41C199.135 46.702 199.151 47.204 199.151 47.762C199.151 48.856 199.249 49.574 199.475 49.846C199.857 50.346 200.452 50.574 201.266 50.574ZM193.198 34.764C189.558 35.824 187.441 38.732 186.833 43.572C186.467 46.932 187.213 48.854 189.142 49.184C190.043 49.212 190.945 48.746 191.849 47.596C192.772 46.544 193.198 44.762 193.198 42.346V34.764ZM212.028 35.692V50.158H214.308V53.804H203.866V50.158H206.144V19.22H203.866V15.598H214.308V19.22H212.028V31.432H219.186V19.22H216.85V15.598H227.42V19.22H224.976V50.158H227.42V53.804H216.85V50.158H219.186V35.692H212.028ZM230.112 53.804V50.174H232.386V19.22H230.112V15.598H240.39V19.22H238.106V32.16C239.452 32.424 240.428 32.082 240.95 31.038C241.494 29.98 241.758 29.118 241.758 28.436C241.884 27.702 241.94 26.872 241.97 25.946C242 24.99 242.012 23.862 242.012 22.642C242.246 17.124 244.066 14.458 247.562 14.622C248.952 14.622 250.186 15.256 251.194 16.578C252.204 17.85 252.714 19.55 252.776 21.714C252.84 23.506 252.56 24.828 251.986 25.62C251.428 26.384 250.794 26.808 250.076 26.808C249.36 26.808 248.726 26.454 248.182 25.716C247.602 25.002 247.326 24.002 247.38 22.688C247.514 21.798 247.622 21.092 247.804 20.692C247.948 20.368 248.062 20.086 248.128 19.922C248.244 19.684 248.244 19.404 248.128 19.218C248.062 18.916 247.86 18.722 247.478 18.62C247.152 18.542 246.862 18.586 246.582 18.886C245.972 19.218 245.72 20.168 245.85 21.712C246 25.116 245.884 27.752 245.478 29.618C245.054 31.562 244.13 32.916 242.666 33.784C247.328 34.846 249.496 38.372 249.104 44.516C248.984 45.332 248.926 46.06 248.866 46.57C248.808 47.198 248.844 47.706 248.934 48.244C249.04 48.85 249.274 49.27 249.668 49.596C250.324 49.988 251.022 50.17 251.812 50.154V53.8C250.64 54.46 249.458 54.79 248.212 54.79C246.626 54.64 245.414 53.8 244.578 52.248C243.732 50.76 243.29 48.046 243.244 44.228C243.244 41.596 243.048 39.91 242.668 38.988C241.788 36.614 240.276 35.556 238.106 35.852V50.17H240.39V53.8H230.112V53.804ZM275.41 50.574V53.93C274.26 54.466 273.138 54.796 272.162 54.796C269.714 54.646 268.082 53.244 267.39 50.576C266.858 51.496 266.082 52.486 264.958 53.326C263.804 54.206 262.782 54.75 261.764 54.796C260.184 54.796 258.816 53.998 257.48 52.486C256.148 50.938 255.448 48.7 255.378 45.71C255.316 40.946 256.524 37.43 259.004 35.09C261.464 32.754 264.258 31.122 267.388 30.226V22.16C267.388 20.056 266.45 19.034 264.76 18.952C263.934 18.952 263.35 19.112 262.958 19.436C262.566 19.762 262.336 20.212 262.204 20.738C262.136 20.984 262.164 21.532 262.306 22.364C262.38 22.612 262.454 22.854 262.474 23.066C262.586 23.35 262.632 23.538 262.632 23.784C262.774 24.662 262.774 25.316 262.632 25.718C262.458 26.94 262.116 27.8 261.468 28.438C260.868 29.004 260.222 29.298 259.504 29.298C258.74 29.22 258.028 28.752 257.48 27.902C256.858 27.036 256.58 25.772 256.58 24.004C256.646 22.206 257.126 20.608 257.93 19.222C258.814 17.778 259.894 16.674 261.33 15.808C262.772 14.962 264.1 14.6 265.418 14.624C267.1 14.624 268.874 15.422 270.65 16.95C272.354 18.53 273.232 21.508 273.232 25.88V45.38C273.232 45.776 273.26 46.128 273.302 46.41C273.328 46.702 273.338 47.204 273.338 47.762C273.338 48.856 273.38 49.574 273.666 49.846C274 50.346 274.656 50.574 275.41 50.574ZM267.392 34.764C263.754 35.824 261.594 38.732 261.008 43.572C260.622 46.932 261.412 48.854 263.286 49.184C264.192 49.212 265.1 48.746 266.054 47.596C266.914 46.544 267.394 44.762 267.394 42.346L267.392 34.764ZM278.876 49.514C278.794 48.004 279.154 46.59 279.94 45.32C280.634 44.064 281.548 43.43 282.442 43.43C283.416 43.352 284.296 43.906 285.21 45.17C286 46.314 286.45 47.694 286.45 49.184C286.45 50.61 286.034 51.91 285.224 53.144C284.486 54.314 283.572 54.904 282.584 54.904C281.724 54.904 280.936 54.39 280.116 53.18C279.294 52.112 278.948 50.834 278.876 49.514ZM297.92 19.88C298.394 18.674 299.082 17.52 300.198 16.412C301.316 15.258 302.36 14.704 303.338 14.622C304.358 14.542 305.66 14.926 306.996 15.806C308.36 16.738 309.63 18.708 310.62 21.714C311.632 24.79 312.17 29.134 312.1 34.88C312.026 42.254 311.22 47.446 309.558 50.344C307.896 53.276 305.854 54.794 303.436 54.794C301.05 54.644 299.146 53.148 297.918 50.344V65.088H300.196V68.864H289.838V65.088H292.146V19.88H289.906V16.082C291.284 15.918 292.684 15.628 294.122 15.228C294.632 15.092 295.102 14.98 295.432 14.902C295.756 14.762 296.102 14.738 296.436 14.738C296.942 14.576 297.424 14.432 297.916 14.296V19.88H297.92ZM305.71 34.44C305.71 33.3 305.688 32.26 305.674 31.298C305.65 30.374 305.61 29.12 305.61 27.51C305.678 24.662 305.382 22.678 304.734 21.552C303.988 20.21 303.046 19.568 302.148 19.714C301.378 19.714 300.524 20.334 299.73 21.552C298.894 22.926 298.418 24.952 298.36 27.624C298.21 30.632 298.128 32.918 298.128 34.438C298.128 35.574 298.146 36.668 298.192 37.628C298.23 38.592 298.244 39.892 298.244 41.37C298.392 44.518 298.746 46.608 299.428 47.862C300.156 49.182 301.05 49.858 302.032 49.924C302.934 49.924 303.76 49.182 304.64 47.758C305.292 46.542 305.608 44.44 305.608 41.37C305.608 39.892 305.65 38.592 305.672 37.628C305.688 36.67 305.71 35.576 305.71 34.44ZM328.324 41.924L332.654 19.436H330.28V15.598H338.832V19.436H337.11L330.28 52.434C330.016 53.806 329.532 55.786 328.882 58.392C327.97 62.388 326.79 65.188 325.402 66.668C323.906 68.118 322.488 68.832 320.982 68.77C319.532 68.656 318.216 67.946 317.13 66.44C315.98 65.022 315.448 63.042 315.448 60.534C315.524 58.758 315.894 57.404 316.56 56.484C317.22 55.67 317.898 55.234 318.596 55.234C319.384 55.234 320.086 55.67 320.702 56.484C321.324 57.404 321.634 58.43 321.634 59.788C321.634 61.388 321.406 62.522 320.888 63.238C320.824 63.368 320.702 63.432 320.598 63.56C320.526 63.702 320.51 63.762 320.43 63.886C320.296 64.15 320.296 64.476 320.43 64.864C320.688 65.124 320.946 65.348 321.21 65.348C321.664 65.384 322.19 65.092 322.84 64.44C323.68 63.462 324.162 62.6 324.38 61.788C324.54 61.07 324.808 59.73 325.082 57.768C325.276 56.828 325.474 55.85 325.68 54.81C325.846 53.808 325.99 52.986 326.056 52.436L316.866 19.438H314.6V15.598H325.212V19.436H323.172L328.324 41.924Z" fill="#6D6E70"/>
<path d="M110.568 77.496C110.184 77.688 109.503 77.812 108.649 77.812C105.658 77.812 103.949 75.37 103.949 71.336C103.949 66.298 106.61 64.498 108.939 64.498C109.792 64.498 110.376 64.672 110.646 64.83L110.254 66.576C109.946 66.438 109.634 66.328 109.015 66.328C107.595 66.328 106.144 67.62 106.144 71.2C106.144 74.708 107.462 75.98 109.033 75.98C109.52 75.98 110.008 75.876 110.314 75.74L110.568 77.496Z" fill="#5D5D5D"/>
<path d="M114.139 74.288L113.435 77.706H111.418L114.331 64.62H116.755L119.456 77.706H117.435L116.735 74.288H114.139ZM116.522 72.678L115.98 69.662C115.822 68.808 115.648 67.604 115.492 66.696H115.438C115.3 67.604 115.106 68.844 114.95 69.662L114.367 72.678H116.522Z" fill="#5D5D5D"/>
<path d="M123.12 64.62V70.032H126.224V64.62H128.305V77.706H126.224V71.934H123.12V77.706H121.043V64.62H123.12Z" fill="#5D5D5D"/>
<path d="M132.691 64.62V70.416H132.901L135.324 64.62H137.599L134.515 70.694C135.97 71.146 136.452 72.42 136.801 74.008C137.079 75.28 137.289 76.538 137.679 77.706H135.622C135.29 76.816 135.098 75.63 134.864 74.582C134.552 73.028 134.167 71.934 132.885 71.934H132.693V77.706H130.652V64.62H132.691Z" fill="#5D5D5D"/>
<path d="M140.702 66.522H138.355V64.62H145.148V66.522H142.777V77.706H140.702V66.522Z" fill="#5D5D5D"/>
<path d="M150.073 70.242V71.776H146.035V70.242H150.073Z" fill="#5D5D5D"/>
<path d="M159.038 64.62V77.706H156.961V66.42H153.934V77.706H151.859V64.62H159.038Z" fill="#5D5D5D"/>
<path d="M166.566 71.74H163.462V75.894H166.994V77.704H161.387V64.62H166.76V66.42H163.464V70.012H166.568V71.74H166.566Z" fill="#5D5D5D"/>
<path d="M170.194 66.522H167.848V64.62H174.64V66.522H172.269V77.706H170.194V66.522Z" fill="#5D5D5D"/>
<path d="M181.273 71.74H178.169V75.894H181.701V77.704H176.094V64.62H181.467V66.42H178.171V70.012H181.275V71.74H181.273Z" fill="#5D5D5D"/>
<path d="M183.449 64.812C184.123 64.654 184.961 64.552 185.894 64.552C187.271 64.552 188.379 64.812 189.154 65.544C189.852 66.206 190.202 67.218 190.202 68.338C190.202 69.66 189.834 70.57 189.232 71.27C188.457 72.19 187.193 72.612 186.086 72.612C185.876 72.612 185.702 72.612 185.502 72.612V77.704H183.449V64.812ZM185.5 70.902C185.656 70.94 185.812 70.94 186.006 70.94C187.365 70.94 188.123 70.012 188.123 68.494C188.123 67.276 187.619 66.244 186.222 66.244C185.952 66.244 185.676 66.28 185.5 66.346V70.902Z" fill="#5D5D5D"/>
<path d="M198.02 64.62V66.4H193.922V69.662C194.276 69.61 194.584 69.592 194.932 69.592C196.057 69.592 197.05 69.94 197.748 70.572C198.488 71.252 198.934 72.246 198.934 73.522C198.934 74.756 198.56 75.722 197.922 76.436C197.087 77.338 195.787 77.796 194.042 77.796C193.091 77.796 192.369 77.742 191.871 77.67V64.62H198.02ZM193.922 76.068C194.138 76.114 194.35 76.132 194.584 76.132C195.323 76.132 195.883 75.84 196.257 75.37C196.605 74.93 196.799 74.322 196.799 73.66C196.799 72.98 196.583 72.402 196.215 71.968C195.831 71.548 195.263 71.252 194.586 71.252C194.376 71.252 194.158 71.272 193.924 71.318V76.068H193.922Z" fill="#5D5D5D"/>
<path d="M201.354 64.62L202.712 69.784C202.922 70.574 203.098 71.32 203.218 71.952H203.296C203.41 71.336 203.526 70.518 203.664 69.736L204.674 64.62H206.768L205 71.146C204.578 72.698 204.048 74.758 203.296 76.154C202.694 77.22 201.764 77.938 200.716 77.938C200.342 77.938 200.072 77.9 199.839 77.848L199.917 76.154C200.036 76.174 200.21 76.192 200.44 76.192C201.276 76.192 201.92 75.144 202.148 74.36C202.228 74.116 202.228 73.886 202.13 73.61L199.121 64.62H201.354Z" fill="#5D5D5D"/>
<path d="M207.855 64.812C208.535 64.654 209.367 64.552 210.299 64.552C211.675 64.552 212.783 64.812 213.559 65.544C214.259 66.206 214.607 67.218 214.607 68.338C214.607 69.66 214.241 70.57 213.639 71.27C212.863 72.19 211.597 72.612 210.493 72.612C210.283 72.612 210.109 72.612 209.915 72.612V77.704H207.857V64.812H207.855ZM209.913 70.902C210.065 70.94 210.221 70.94 210.419 70.94C211.771 70.94 212.529 70.012 212.529 68.494C212.529 67.276 212.023 66.244 210.629 66.244C210.357 66.244 210.087 66.28 209.913 66.346V70.902Z" fill="#5D5D5D"/>
<path d="M221.905 64.62V66.42H218.355V77.706H216.277V64.62H221.905Z" fill="#5D5D5D"/>
<path d="M233.819 70.986C233.819 75.912 232.091 77.862 229.781 77.862C227.183 77.862 225.883 75.084 225.883 71.144C225.883 67.218 227.359 64.462 229.975 64.462C232.729 64.462 233.819 67.466 233.819 70.986ZM228.037 71.162C228.037 74.008 228.579 76.048 229.897 76.048C231.239 76.048 231.665 73.708 231.665 71.078C231.665 68.706 231.275 66.262 229.879 66.262C228.577 66.262 228.037 68.422 228.037 71.162Z" fill="#5D5D5D"/>
<path d="M237.638 64.62V70.032H240.748V64.62H242.824V77.706H240.748V71.934H237.638V77.706H235.562V64.62H237.638Z" fill="#5D5D5D"/>
<path d="M251.903 64.62V77.706H249.825V66.42H247.539V70.326C247.539 73.504 247.383 76.19 245.811 77.356C245.385 77.688 244.853 77.882 244.295 77.882L243.871 76.134C244.157 76.07 244.453 75.942 244.663 75.74C245.439 74.986 245.615 73.396 245.615 70.536V64.62H251.903Z" fill="#5D5D5D"/>
<path d="M256.109 74.288L255.411 77.706H253.395L256.309 64.62H258.731L261.427 77.706H259.413L258.715 74.288H256.109ZM258.497 72.678L257.955 69.662C257.799 68.808 257.625 67.604 257.467 66.696H257.413C257.275 67.604 257.081 68.844 256.925 69.662L256.343 72.678H258.497Z" fill="#5D5D5D"/>
<path d="M264.859 64.62V68.304C264.859 70.66 264.763 72.65 264.649 74.324H264.685C265.095 73.066 265.775 71.338 266.221 70.152L268.357 64.62H270.241V77.706H268.417V74.06C268.417 71.338 268.471 69.526 268.575 68.038H268.533C268.167 69.418 267.567 70.922 267.097 72.126L264.941 77.706H263.023V64.62H264.859ZM265.661 62.072C265.715 62.716 265.951 63.174 266.613 63.174C267.233 63.174 267.547 62.716 267.601 62.072H268.977C268.803 63.572 267.991 64.148 266.613 64.148C265.313 64.148 264.399 63.572 264.283 62.072H265.661Z" fill="#5D5D5D"/>
<path d="M274.683 64.62V70.032H277.787V64.62H279.863V77.706H277.787V71.934H274.683V77.706H272.605V64.62H274.683Z" fill="#5D5D5D"/>
</svg>
