<svg width="412" height="61" viewBox="0 0 412 61" fill="none" xmlns="http://www.w3.org/2000/svg">
<rect width="190.82" height="60.4958" fill="#284CA6"/>
<path d="M121.921 32.9931H128.274L129.098 20H121.098L121.921 32.9931ZM128.951 35.062H121.245V40H128.951V35.062Z" fill="#0086E6"/>
<path d="M71.0251 39.8918H64.5724V31.214V28.1823H64.4333C64.1552 28.8777 63.2096 30.1015 62.7367 30.6855L54.2814 39.8918H47.3281V20.1443H53.753V28.7386V31.7981H53.892C54.3092 30.9359 54.8933 30.2127 55.5609 29.3505L63.6546 20.1443H71.0251V39.8918Z" fill="white"/>
<path d="M95.7048 20.3655H73.3984V25.7891H80.9915V40.1131H88.0839V25.7891H95.7048V20.3655Z" fill="white"/>
<path d="M111.853 40.1131H119.474L110.295 20.3655H101.061L91.8828 40.1131H99.5315L101.061 36.3583H110.323L111.853 40.1131ZM102.786 32.075L104.176 28.6539C104.955 26.7904 105.4 25.6779 105.651 24.3985H105.734C105.956 25.6779 106.401 26.7904 107.208 28.6539L108.599 32.075H102.786Z" fill="white"/>
<path d="M141.907 20H132.438V40H135.182V32.1971H141.626C146.053 32.1971 148.911 29.8028 148.911 26.0563C148.911 22.3662 146.193 20 141.907 20ZM141.514 29.8873H135.182V22.3099H141.542C144.316 22.3099 146.025 23.7465 146.025 26.0563C146.025 28.4225 144.288 29.8873 141.514 29.8873Z" fill="white"/>
<path d="M154.005 40.4958C152.734 40.4958 151.618 40.3575 150.656 40.081V37.7852C151.721 38.1816 152.803 38.3799 153.902 38.3799C155.162 38.3799 156.169 38.1494 156.925 37.6884C157.692 37.2182 158.454 36.3423 159.21 35.0607L149.438 20H152.667L160.085 31.4926C160.372 31.9444 160.595 32.3869 160.755 32.8203H160.893C161.213 32.0458 161.437 31.5571 161.563 31.3543L167.729 20H170.82L162.799 34.466C161.837 36.1901 160.967 37.4441 160.189 38.2277C159.421 39.0114 158.551 39.5877 157.578 39.9565C156.616 40.3161 155.425 40.4958 154.005 40.4958Z" fill="white"/>
<path d="M43.7789 39.8918H36.4481V34.5844C33.3415 35.3768 30.5663 35.773 28.1228 35.773C25.5687 35.773 23.5733 35.3138 22.1366 34.3953C20.7122 33.4678 20 32.1666 20 30.4917V20.1443H27.3307V28.7223C27.3307 29.6858 27.5947 30.3746 28.1228 30.7889C28.6508 31.2031 29.4919 31.4102 30.6462 31.4102C32.2179 31.4102 34.1519 31.104 36.4481 30.4917V20.1443H43.7789V39.8918Z" fill="white"/>
<rect width="201" height="60" transform="translate(210.82 0.247921)" fill="#284CA6"/>
<path d="M237.856 35.4571V18.4469H231.723V35.4571H237.856Z" fill="white"/>
<path d="M254.531 35.4571H261.287L257.166 29.18C259.826 28.1259 260.712 25.9458 260.712 24.0291C260.712 21.2739 259.011 18.4469 253.141 18.4469H241.234V35.4571H247.368V29.8988H250.937L254.531 35.4571ZM247.368 22.352H251.704C253.621 22.352 254.244 23.2145 254.244 24.2447C254.244 25.3228 253.645 26.2333 251.68 26.2333H247.368V22.352Z" fill="white"/>
<path d="M273.019 36.032C278.673 36.032 282.77 33.756 284.135 29.8509L277.858 28.4613C277.379 30.4019 275.75 31.456 273.21 31.456C270.072 31.456 268.203 29.7551 268.203 26.9519C268.203 24.1728 270.096 22.4239 273.21 22.4239C275.726 22.4239 277.331 23.478 277.834 25.4426L284.183 24.2447C283.033 20.3155 278.816 17.8718 273.21 17.8718C266.478 17.8718 261.734 21.6812 261.734 27.0477C261.734 32.5342 266.143 36.032 273.019 36.032Z" fill="white"/>
<path d="M292.274 35.4571V18.4469H286.141V35.4571H292.274Z" fill="white"/>
<path d="M313.242 18.4469H294.027V23.1187H300.568V35.4571H306.677V23.1187H313.242V18.4469Z" fill="white"/>
<path d="M321.993 35.4571H328.126V29.8509L336.391 18.4469H329.994L325.801 24.652C325.346 25.2749 325.251 25.4906 325.179 25.6822H325.131C325.059 25.4906 324.963 25.2749 324.508 24.652L320.531 18.4469H313.727L321.993 29.8509V35.4571Z" fill="white"/>
<path d="M355.811 18.6874H338.684V35.8147H355.811V18.6874Z" fill="#0086E6"/>
<path d="M355.81 18.6874H347.246V27.251H355.81V18.6874Z" fill="#00B9F2"/>
<path d="M338.684 35.8147H347.247V27.251H338.684V35.8147Z" fill="#005FAD"/>
<path d="M370.643 35.4571H373.375L368.727 28.1499C371.722 27.527 372.775 25.3468 372.775 23.4301C372.775 21.0343 371.506 18.4469 366.978 18.4469H358.664V35.4571H361.012V28.4613H366.163L370.643 35.4571ZM361.012 20.4114H366.642C369.422 20.4114 370.308 21.825 370.308 23.4301C370.308 25.0353 369.422 26.5207 366.618 26.5207H361.012V20.4114Z" fill="white"/>
<path d="M375.629 18.4469V28.7249C375.629 32.9415 378.408 35.9363 383.44 35.9363C388.447 35.9363 391.25 32.9415 391.25 28.7249V18.4469H388.878V28.6051C388.878 31.6478 386.913 33.8998 383.44 33.8998C379.965 33.8998 377.977 31.6478 377.977 28.6051V18.4469H375.629Z" fill="white"/>
<path d="M231.395 38.7718H232.065V40.7432C232.065 40.949 232.059 41.1574 232.046 41.3683C232.034 41.5775 232.025 41.7194 232.019 41.7937H232.046L234.333 38.7718H235.187V42.5641H234.513V40.6083C234.513 40.3092 234.533 39.946 234.571 39.5188H234.547L232.251 42.5641H231.395V38.7718Z" fill="white"/>
<path d="M239.635 39.9183C239.635 40.3143 239.482 40.6178 239.175 40.8288C238.869 41.0398 238.434 41.1452 237.869 41.1452H237.403V42.5641H236.672V38.7718H237.96C238.519 38.7718 238.938 38.8687 239.215 39.0623C239.495 39.256 239.635 39.5414 239.635 39.9183ZM237.403 40.6239H237.792C238.167 40.6239 238.443 40.5685 238.618 40.4578C238.794 40.3472 238.882 40.1743 238.882 39.939C238.882 39.7212 238.803 39.5586 238.646 39.4514C238.489 39.3442 238.244 39.2906 237.911 39.2906H237.403V40.6239Z" fill="white"/>
<path d="M244.278 42.5641H243.418L241.575 40.642V42.5641H240.844V38.7718H241.575V40.6083L243.387 38.7718H244.189L242.383 40.6031L244.278 42.5641Z" fill="white"/>
<path d="M248.586 38.7718L247.175 41.4695C247.002 41.7997 246.843 42.0392 246.698 42.188C246.553 42.335 246.385 42.443 246.193 42.5122C246.003 42.5814 245.773 42.6159 245.501 42.6159C245.264 42.6159 245.045 42.59 244.843 42.5381V41.9804C245.043 42.0479 245.252 42.0817 245.471 42.0817C245.656 42.0817 245.811 42.0436 245.936 41.9675C246.062 41.8897 246.177 41.7505 246.279 41.5499L244.629 38.7718H245.419L246.511 40.6731C246.609 40.853 246.669 40.9732 246.692 41.0337H246.722C246.735 40.9887 246.765 40.9169 246.814 40.8184L247.821 38.7718H248.586Z" fill="white"/>
<path d="M251.04 42.5641H250.308V39.3035H248.992V38.7718H252.356V39.3035H251.04V42.5641Z" fill="white"/>
<path d="M255.261 39.249C254.84 39.249 254.51 39.3752 254.269 39.6277C254.028 39.8802 253.908 40.2287 253.908 40.6731C253.908 41.1382 254.023 41.4901 254.254 41.7288C254.486 41.9674 254.822 42.0867 255.261 42.0867C255.451 42.0867 255.634 42.0711 255.812 42.0401C255.989 42.0072 256.174 41.9657 256.366 41.9155V42.4473C256.015 42.5597 255.617 42.6159 255.172 42.6159C254.517 42.6159 254.014 42.4482 253.663 42.1127C253.312 41.7755 253.137 41.2939 253.137 40.6678C253.137 40.2736 253.221 39.9286 253.391 39.6329C253.562 39.3372 253.809 39.1107 254.131 38.9533C254.454 38.7959 254.832 38.7172 255.267 38.7172C255.724 38.7172 256.146 38.7985 256.534 38.9611L256.271 39.4773C256.12 39.4167 255.96 39.364 255.79 39.319C255.623 39.2724 255.446 39.249 255.261 39.249Z" fill="white"/>
<path d="M261.079 42.5641H260.219L258.376 40.642V42.5641H257.645V38.7718H258.376V40.6083L260.188 38.7718H260.99L259.184 40.6031L261.079 42.5641Z" fill="white"/>
<path d="M267.9 40.6627C267.9 41.28 267.717 41.7599 267.352 42.1023C266.989 42.4446 266.474 42.6158 265.807 42.6158C265.131 42.6158 264.612 42.4464 264.249 42.1075C263.888 41.7668 263.707 41.2834 263.707 40.6574C263.707 40.0315 263.889 39.5507 264.252 39.2153C264.617 38.8798 265.137 38.712 265.813 38.712C266.478 38.712 266.992 38.8823 267.355 39.223C267.718 39.5637 267.9 40.0436 267.9 40.6627ZM264.484 40.6627C264.484 41.1295 264.596 41.484 264.818 41.7261C265.04 41.9665 265.37 42.0867 265.807 42.0867C266.241 42.0867 266.569 41.9674 266.789 41.7287C267.011 41.4901 267.123 41.1347 267.123 40.6627C267.123 40.1975 267.012 39.8447 266.792 39.6044C266.574 39.3639 266.247 39.2438 265.813 39.2438C265.374 39.2438 265.042 39.3639 264.818 39.6044C264.596 39.8447 264.484 40.1975 264.484 40.6627Z" fill="white"/>
<path d="M272.705 42.5641H271.97V40.8547H269.907V42.5641H269.176V38.7718H269.907V40.3229H271.97V38.7718H272.705V42.5641Z" fill="white"/>
<path d="M277.553 42.5641H276.821V39.3035H275.548C275.387 40.4103 275.257 41.1634 275.159 41.5629C275.063 41.9623 274.928 42.2407 274.752 42.3981C274.577 42.5537 274.344 42.6289 274.054 42.6238C273.905 42.6238 273.764 42.6022 273.629 42.5589V42.0427C273.745 42.086 273.858 42.1076 273.969 42.1076C274.116 42.1076 274.23 42.0332 274.311 41.8845C274.395 41.7341 274.486 41.4028 274.584 40.891C274.684 40.3791 274.802 39.6728 274.939 38.7718H277.553V42.5641Z" fill="white"/>
<path d="M281.828 42.564L281.381 41.511H279.67L279.232 42.564H278.461L280.135 38.7562H280.931L282.605 42.564H281.828ZM281.188 40.9766L280.769 39.9442C280.738 39.8751 280.695 39.7661 280.64 39.6174C280.587 39.4687 280.55 39.3597 280.53 39.2905C280.475 39.5032 280.394 39.7358 280.288 39.9883L279.884 40.9766H281.188Z" fill="white"/>
<path d="M283.508 38.7718H284.178V40.7432C284.178 40.949 284.172 41.1574 284.16 41.3683C284.148 41.5776 284.138 41.7194 284.132 41.7937H284.16L286.446 38.7718H287.3V42.5641H286.627V40.6083C286.627 40.3092 286.646 39.946 286.685 39.5189H286.66L284.365 42.5641H283.508V38.7718ZM285.427 38.4683C284.994 38.4683 284.677 38.4027 284.475 38.2712C284.275 38.1381 284.164 37.9167 284.141 37.6071H284.793C284.806 37.7317 284.833 37.8285 284.876 37.8976C284.921 37.9668 284.984 38.017 285.066 38.0481C285.149 38.0775 285.276 38.0922 285.445 38.0922C285.645 38.0922 285.797 38.0551 285.901 37.9807C286.005 37.9046 286.069 37.7801 286.091 37.6071H286.755C286.725 37.9046 286.601 38.1225 286.385 38.2608C286.169 38.3991 285.849 38.4683 285.427 38.4683Z" fill="white"/>
<path d="M292.314 42.5641H291.58V40.8547H289.517V42.5641H288.785V38.7718H289.517V40.3229H291.58V38.7718H292.314V42.5641Z" fill="white"/>
</svg>
