<svg width="323" height="80" viewBox="0 0 323 80" fill="none" xmlns="http://www.w3.org/2000/svg">
<path d="M5.73047 47.3652C4.6297 47.3652 3.56131 47.2357 2.52529 46.9443C1.48928 46.6853 0.647511 46.2968 0 45.8436L1.26265 42.9945C1.87778 43.383 2.59004 43.7068 3.36706 43.9658C4.17645 44.2248 4.95346 44.3219 5.73047 44.3219C7.21975 44.3219 7.93201 43.9658 7.93201 43.2211C7.93201 42.8326 7.70538 42.5413 7.2845 42.3794C6.86362 42.1851 6.18373 41.9909 5.27722 41.7642C4.2412 41.5376 3.39943 41.311 2.71955 41.052C2.03966 40.793 1.4569 40.3721 0.938891 39.8217C0.453258 39.2713 0.194253 38.5267 0.194253 37.5554C0.194253 36.7137 0.420882 35.969 0.87414 35.3215C1.3274 34.6416 2.00728 34.1236 2.88142 33.7351C3.78794 33.3466 4.88871 33.1523 6.21611 33.1523C7.12262 33.1523 7.99676 33.2495 8.8709 33.4761C9.74504 33.6704 10.4897 33.9617 11.1696 34.3502L9.97167 37.1993C8.67665 36.487 7.414 36.1633 6.21611 36.1633C5.43909 36.1633 4.88871 36.2928 4.53258 36.5194C4.17645 36.746 4.01457 37.0374 4.01457 37.3935C4.01457 37.7497 4.20882 38.0411 4.6297 38.2029C5.05059 38.3972 5.6981 38.5591 6.63699 38.7533C7.67301 38.9799 8.51477 39.2066 9.19466 39.4656C9.87454 39.7246 10.4573 40.1131 10.9753 40.6635C11.4933 41.2139 11.72 41.9585 11.72 42.8974C11.72 43.7068 11.4933 44.4514 11.0401 45.0989C10.5868 45.7464 9.90692 46.2968 9.0004 46.6853C8.12626 47.171 7.0255 47.3652 5.73047 47.3652ZM28.3934 33.5085V47.1062H24.573V41.7966H19.3282V47.1062H15.4755V33.5085H19.3282V38.6238H24.573V33.5085H28.3934ZM38.3003 42.1851L36.8758 43.7068V47.1062H33.0554V33.5085H36.8758V39.1742L42.153 33.5085H46.3942L40.8256 39.5303L46.6856 47.1062H42.2177L38.3003 42.1851ZM55.686 47.3652C53.6787 47.3652 52.0923 46.8148 50.9591 45.7141C49.8584 44.6133 49.2756 43.0593 49.2756 41.0196V33.4761H53.1283V40.8901C53.1283 43.0593 54.0024 44.16 55.7183 44.16C57.4342 44.16 58.276 43.0593 58.276 40.8901V33.4761H62.0639V41.0196C62.0639 43.0269 61.5136 44.6133 60.3804 45.7141C59.2796 46.8148 57.7256 47.3652 55.686 47.3652ZM66.6289 33.5085H70.4816V44.0629H76.9567V47.1062H66.6289V33.5085ZM91.3638 44.1277V47.1062H80.4533V33.5085H91.1048V36.487H84.2412V38.7857H90.2954V41.6671H84.2412V44.16H91.3638V44.1277ZM109.041 33.5085L103.213 47.1062H99.4253L93.6301 33.5085H97.7742L101.465 42.3794L105.221 33.5085H109.041Z" fill="#284CA6"/>
<path d="M134.616 33.5084V47.1061H133.224V36.228L127.882 45.3902H127.234L121.892 36.2927V47.1061H120.5V33.5084H121.698L127.59 43.5772L133.45 33.5084H134.616ZM150.609 45.8759V47.1061H140.994V33.5084H150.318V34.7387H142.451V39.5626H149.476V40.7929H142.451V45.8435H150.609V45.8759ZM155.951 33.5084H161.487C162.912 33.5084 164.207 33.7998 165.308 34.3825C166.409 34.9653 167.25 35.7423 167.865 36.7783C168.481 37.8144 168.772 38.9799 168.772 40.3073C168.772 41.6347 168.481 42.8002 167.865 43.8362C167.25 44.8722 166.409 45.6492 165.308 46.232C164.207 46.8148 162.944 47.0738 161.487 47.0738H155.951V33.5084ZM161.39 45.8759C162.588 45.8759 163.624 45.6492 164.531 45.1636C165.437 44.678 166.117 44.0305 166.603 43.1887C167.088 42.3469 167.347 41.3757 167.347 40.3073C167.347 39.2065 167.088 38.2676 166.603 37.4259C166.117 36.5841 165.405 35.9366 164.531 35.4509C163.624 34.9653 162.588 34.7387 161.39 34.7387H157.376V45.8435H161.39V45.8759ZM173.92 33.5084H175.344V47.1061H173.92V33.5084ZM190.269 43.4801H182.693L181.075 47.1061H179.585L185.801 33.5084H187.226L193.442 47.1061H191.92L190.269 43.4801ZM189.719 42.3146L186.481 34.9977L183.211 42.3146H189.719ZM215.976 33.5084V47.1061H214.551V40.8253H206.036V47.1061H204.612V33.5084H206.036V39.5626H214.551V33.5084H215.976ZM228.311 47.2356C226.951 47.2356 225.753 46.9443 224.652 46.3291C223.551 45.714 222.71 44.9046 222.094 43.8362C221.479 42.8002 221.188 41.6023 221.188 40.3073C221.188 39.0123 221.479 37.8144 222.094 36.7783C222.71 35.7423 223.584 34.9006 224.652 34.3178C225.753 33.7027 226.983 33.4113 228.311 33.4113C229.67 33.4113 230.868 33.7027 231.937 34.3178C233.037 34.9006 233.879 35.7423 234.494 36.8107C235.109 37.8467 235.433 39.0446 235.433 40.3397C235.433 41.6347 235.109 42.8326 234.494 43.901C233.879 44.937 233.005 45.7787 231.937 46.3615C230.868 46.9119 229.67 47.2356 228.311 47.2356ZM228.311 45.9406C229.379 45.9406 230.35 45.714 231.224 45.2284C232.099 44.7427 232.778 44.0628 233.264 43.2211C233.75 42.3469 234.009 41.3757 234.009 40.3397C234.009 39.2713 233.75 38.3324 233.264 37.4582C232.778 36.5841 232.099 35.9042 231.224 35.4509C230.35 34.9653 229.379 34.7063 228.311 34.7063C227.242 34.7063 226.271 34.9653 225.364 35.4509C224.49 35.9366 223.81 36.6165 223.292 37.4582C222.807 38.3 222.548 39.2713 222.548 40.3397C222.548 41.408 222.807 42.3793 223.292 43.2211C223.81 44.0628 224.49 44.7427 225.364 45.2284C226.271 45.714 227.242 45.9406 228.311 45.9406ZM240.613 33.5084H242.038V45.8759H249.646V47.1061H240.581V33.5084H240.613ZM253.984 33.5084H259.521C260.945 33.5084 262.24 33.7998 263.341 34.3825C264.442 34.9653 265.283 35.7423 265.899 36.7783C266.514 37.8144 266.805 38.9799 266.805 40.3073C266.805 41.6347 266.514 42.8002 265.899 43.8362C265.283 44.8722 264.442 45.6492 263.341 46.232C262.24 46.8148 260.978 47.0738 259.521 47.0738H253.984V33.5084ZM259.456 45.8759C260.654 45.8759 261.69 45.6492 262.596 45.1636C263.503 44.678 264.183 44.0305 264.668 43.1887C265.154 42.3469 265.413 41.3757 265.413 40.3073C265.413 39.2065 265.154 38.2676 264.668 37.4259C264.183 36.5841 263.47 35.9366 262.596 35.4509C261.69 34.9653 260.654 34.7387 259.456 34.7387H255.441V45.8435H259.456V45.8759ZM271.985 33.5084H273.41V47.1061H271.985V33.5084ZM291.152 33.5084V47.1061H289.954L281.212 36.0661V47.1061H279.788V33.5084H280.986L289.759 44.5485V33.5084H291.152ZM307.113 40.3073H308.505V45.4874C307.857 46.0377 307.113 46.4586 306.239 46.7824C305.364 47.0738 304.458 47.2356 303.487 47.2356C302.127 47.2356 300.897 46.9443 299.828 46.3291C298.727 45.7464 297.886 44.9046 297.271 43.8686C296.655 42.8002 296.332 41.6347 296.332 40.3073C296.332 39.0123 296.655 37.8144 297.271 36.7783C297.886 35.7099 298.76 34.9006 299.828 34.2854C300.929 33.7027 302.159 33.3789 303.519 33.3789C304.555 33.3789 305.494 33.5408 306.368 33.8969C307.242 34.2207 307.954 34.7063 308.57 35.3538L307.663 36.2603C306.595 35.1919 305.235 34.6739 303.551 34.6739C302.451 34.6739 301.447 34.9329 300.573 35.4186C299.699 35.9042 298.986 36.5841 298.501 37.4259C297.983 38.2676 297.756 39.2389 297.756 40.3073C297.756 41.3757 298.015 42.3146 298.501 43.1887C299.019 44.0305 299.699 44.7104 300.573 45.196C301.447 45.6816 302.451 45.9406 303.551 45.9406C304.944 45.9406 306.141 45.5845 307.113 44.9046V40.3073Z" fill="black"/>
<path fill-rule="evenodd" clip-rule="evenodd" d="M241.164 0H322.265V80H241.164V58.9235H243.43V77.7337H319.999V2.26629H243.43V20.8822H241.164V0Z" fill="#284CA6"/>
</svg>
