<svg width="410" height="160" viewBox="0 0 410 160" fill="none" xmlns="http://www.w3.org/2000/svg">
<rect width="409.913" height="160" fill="#00204C"/>
<path d="M45.9 87.6176C44.7667 87.6176 43.6667 87.4777 42.6 87.1977C41.5333 86.9177 40.6667 86.5443 40 86.0777L41.3 83.1577C41.9267 83.571 42.6533 83.9043 43.48 84.1577C44.3067 84.411 45.12 84.5377 45.92 84.5377C47.44 84.5377 48.2 84.1576 48.2 83.3976C48.2 82.9976 47.98 82.7043 47.54 82.5176C47.1133 82.3176 46.42 82.111 45.46 81.8976C44.4067 81.671 43.5267 81.431 42.82 81.1777C42.1133 80.911 41.5067 80.491 41 79.9176C40.4933 79.3443 40.24 78.571 40.24 77.5976C40.24 76.7443 40.4733 75.9776 40.94 75.2976C41.4067 74.6043 42.1 74.0576 43.02 73.6576C43.9533 73.2576 45.0933 73.0576 46.44 73.0576C47.36 73.0576 48.2667 73.1643 49.16 73.3776C50.0533 73.5777 50.84 73.8776 51.52 74.2776L50.3 77.2176C48.9667 76.4976 47.6733 76.1377 46.42 76.1377C45.6333 76.1377 45.06 76.2576 44.7 76.4976C44.34 76.7243 44.16 77.0243 44.16 77.3976C44.16 77.771 44.3733 78.051 44.8 78.2376C45.2267 78.4243 45.9133 78.6177 46.86 78.8177C47.9267 79.0443 48.8067 79.291 49.5 79.5576C50.2067 79.811 50.8133 80.2243 51.32 80.7976C51.84 81.3576 52.1 82.1243 52.1 83.0976C52.1 83.9376 51.8667 84.6976 51.4 85.3776C50.9333 86.0576 50.2333 86.6043 49.3 87.0176C48.3667 87.4176 47.2333 87.6176 45.9 87.6176ZM69.2493 73.3376V87.3377H65.2893V81.8776H59.8893V87.3377H55.9293V73.3376H59.8893V78.5976H65.2893V73.3376H69.2493ZM79.4423 82.2576L77.9623 83.8377V87.3377H74.0423V73.3376H77.9623V79.1576L83.3823 73.3376H87.7423L82.0223 79.5376L88.0423 87.3377H83.4423L79.4423 82.2576ZM97.3463 87.6176C95.2663 87.6176 93.6463 87.051 92.4863 85.9177C91.3397 84.7843 90.7663 83.1776 90.7663 81.0976V73.3376H94.7263V80.9776C94.7263 83.2176 95.613 84.3377 97.3863 84.3377C99.1463 84.3377 100.026 83.2176 100.026 80.9776V73.3376H103.926V81.0976C103.926 83.1776 103.346 84.7843 102.186 85.9177C101.04 87.051 99.4263 87.6176 97.3463 87.6176ZM108.609 73.3376H112.569V84.1977H119.249V87.3377H108.609V73.3376ZM134.056 84.2776V87.3377H122.816V73.3376H133.796V76.3976H126.736V78.7577H132.956V81.7176H126.736V84.2776H134.056ZM152.258 73.3376L146.258 87.3377H142.358L136.378 73.3376H140.658L144.458 82.4577L148.338 73.3376H152.258Z" fill="white"/>
<path d="M178.61 73.3377V87.3377H177.19V76.1377L171.69 85.5577H170.99L165.49 76.1977V87.3377H164.07V73.3377H165.29L171.37 83.7177L177.39 73.3377H178.61ZM195.072 86.0577V87.3377H185.172V73.3377H194.772V74.6177H186.652V79.5977H193.892V80.8577H186.652V86.0577H195.072ZM200.551 73.3377H206.251C207.731 73.3377 209.037 73.6377 210.171 74.2377C211.304 74.8244 212.184 75.651 212.811 76.7177C213.437 77.771 213.751 78.9777 213.751 80.3377C213.751 81.6977 213.437 82.911 212.811 83.9777C212.184 85.031 211.304 85.8577 210.171 86.4577C209.037 87.0444 207.731 87.3377 206.251 87.3377H200.551V73.3377ZM206.171 86.0577C207.397 86.0577 208.471 85.8177 209.391 85.3377C210.311 84.8444 211.024 84.171 211.531 83.3177C212.037 82.451 212.291 81.4577 212.291 80.3377C212.291 79.2177 212.037 78.231 211.531 77.3777C211.024 76.511 210.311 75.8377 209.391 75.3577C208.471 74.8644 207.397 74.6177 206.171 74.6177H202.031V86.0577H206.171ZM219.074 73.3377H220.554V87.3377H219.074V73.3377ZM235.889 83.5977H228.089L226.409 87.3377H224.869L231.269 73.3377H232.729L239.129 87.3377H237.569L235.889 83.5977ZM235.349 82.3977L231.989 74.8777L228.629 82.3977H235.349ZM262.38 73.3377V87.3377H260.92V80.8777H252.16V87.3377H250.68V73.3377H252.16V79.5777H260.92V73.3377H262.38ZM275.069 87.4577C273.682 87.4577 272.422 87.151 271.289 86.5377C270.169 85.911 269.289 85.0577 268.649 83.9777C268.022 82.8977 267.709 81.6844 267.709 80.3377C267.709 78.991 268.022 77.7777 268.649 76.6977C269.289 75.6177 270.169 74.771 271.289 74.1577C272.422 73.531 273.682 73.2177 275.069 73.2177C276.456 73.2177 277.702 73.5244 278.809 74.1377C279.929 74.751 280.809 75.6044 281.449 76.6977C282.089 77.7777 282.409 78.991 282.409 80.3377C282.409 81.6844 282.089 82.9044 281.449 83.9977C280.809 85.0777 279.929 85.9244 278.809 86.5377C277.702 87.151 276.456 87.4577 275.069 87.4577ZM275.069 86.1377C276.176 86.1377 277.176 85.891 278.069 85.3977C278.962 84.891 279.662 84.1977 280.169 83.3177C280.676 82.4244 280.929 81.431 280.929 80.3377C280.929 79.2444 280.676 78.2577 280.169 77.3777C279.662 76.4844 278.962 75.791 278.069 75.2977C277.176 74.791 276.176 74.5377 275.069 74.5377C273.962 74.5377 272.956 74.791 272.049 75.2977C271.156 75.791 270.449 76.4844 269.929 77.3777C269.422 78.2577 269.169 79.2444 269.169 80.3377C269.169 81.431 269.422 82.4244 269.929 83.3177C270.449 84.1977 271.156 84.891 272.049 85.3977C272.956 85.891 273.962 86.1377 275.069 86.1377ZM287.726 73.3377H289.206V86.0577H297.046V87.3377H287.726V73.3377ZM301.504 73.3377H307.204C308.684 73.3377 309.991 73.6377 311.124 74.2377C312.257 74.8244 313.137 75.651 313.764 76.7177C314.391 77.771 314.704 78.9777 314.704 80.3377C314.704 81.6977 314.391 82.911 313.764 83.9777C313.137 85.031 312.257 85.8577 311.124 86.4577C309.991 87.0444 308.684 87.3377 307.204 87.3377H301.504V73.3377ZM307.124 86.0577C308.351 86.0577 309.424 85.8177 310.344 85.3377C311.264 84.8444 311.977 84.171 312.484 83.3177C312.991 82.451 313.244 81.4577 313.244 80.3377C313.244 79.2177 312.991 78.231 312.484 77.3777C311.977 76.511 311.264 75.8377 310.344 75.3577C309.424 74.8644 308.351 74.6177 307.124 74.6177H302.984V86.0577H307.124ZM320.027 73.3377H321.507V87.3377H320.027V73.3377ZM339.763 73.3377V87.3377H338.543L329.543 75.9777V87.3377H328.062V73.3377H329.283L338.303 84.6977V73.3377H339.763ZM356.193 80.3377H357.613V85.6777C356.959 86.251 356.186 86.691 355.293 86.9977C354.399 87.3044 353.459 87.4577 352.473 87.4577C351.073 87.4577 349.813 87.151 348.693 86.5377C347.573 85.9244 346.693 85.0777 346.053 83.9977C345.413 82.9044 345.093 81.6844 345.093 80.3377C345.093 78.991 345.413 77.7777 346.053 76.6977C346.693 75.6044 347.573 74.751 348.693 74.1377C349.813 73.5244 351.079 73.2177 352.493 73.2177C353.559 73.2177 354.539 73.391 355.433 73.7377C356.326 74.071 357.079 74.571 357.693 75.2377L356.773 76.1777C355.666 75.0844 354.259 74.5377 352.553 74.5377C351.419 74.5377 350.393 74.791 349.473 75.2977C348.566 75.791 347.853 76.4844 347.333 77.3777C346.813 78.2577 346.553 79.2444 346.553 80.3377C346.553 81.431 346.813 82.4177 347.333 83.2977C347.853 84.1777 348.566 84.871 349.473 85.3777C350.379 85.8844 351.399 86.1377 352.533 86.1377C353.973 86.1377 355.193 85.7777 356.193 85.0577V80.3377Z" fill="white"/>
<path d="M288.754 60.327V40H369.912V120H288.754V99.4817" stroke="white" stroke-width="7"/>
<path d="M41.8222 106.333H40.4922V99.7467H45.4322V100.823H41.8222V106.333ZM48.4979 100.545C49.0805 99.9283 49.8489 99.62 50.8032 99.62C51.7572 99.62 52.5215 99.9283 53.0959 100.545C53.6785 101.161 53.9699 101.993 53.9699 103.04C53.9699 104.087 53.6785 104.919 53.0959 105.535C52.5215 106.152 51.7572 106.46 50.8032 106.46C49.8489 106.46 49.0805 106.152 48.4979 105.535C47.9235 104.919 47.6365 104.087 47.6365 103.04C47.6365 101.993 47.9235 101.161 48.4979 100.545ZM49.4352 104.813C49.7729 105.236 50.2289 105.447 50.8032 105.447C51.3772 105.447 51.8332 105.236 52.1712 104.813C52.5088 104.391 52.6779 103.8 52.6779 103.04C52.6779 102.28 52.5088 101.689 52.1712 101.267C51.8332 100.844 51.3772 100.633 50.8032 100.633C50.2289 100.633 49.7729 100.844 49.4352 101.267C49.0972 101.689 48.9285 102.28 48.9285 103.04C48.9285 103.8 49.0972 104.391 49.4352 104.813ZM57.8739 100.697C58.3635 99.979 59.0435 99.62 59.9132 99.62C60.7492 99.62 61.3995 99.9113 61.8639 100.494C62.3369 101.068 62.5732 101.917 62.5732 103.04C62.5732 104.146 62.3282 104.995 61.8385 105.586C61.3572 106.169 60.7155 106.46 59.9132 106.46C59.0689 106.46 58.4015 106.143 57.9118 105.51H57.8865V109.12H56.6199V99.7467H57.8232L57.8485 100.697H57.8739ZM61.3319 103.04C61.3319 102.238 61.1799 101.638 60.8759 101.241C60.5719 100.836 60.1455 100.633 59.5965 100.633C59.0982 100.633 58.6889 100.844 58.3679 101.267C58.0469 101.68 57.8865 102.25 57.8865 102.977V103.103C57.8865 103.838 58.0469 104.412 58.3679 104.826C58.6889 105.24 59.0982 105.447 59.5965 105.447C60.1202 105.447 60.5382 105.24 60.8505 104.826C61.1715 104.412 61.3319 103.817 61.3319 103.04ZM65.7019 100.545C66.2845 99.9283 67.0529 99.62 68.0072 99.62C68.9612 99.62 69.7255 99.9283 70.2999 100.545C70.8825 101.161 71.1739 101.993 71.1739 103.04C71.1739 104.087 70.8825 104.919 70.2999 105.535C69.7255 106.152 68.9612 106.46 68.0072 106.46C67.0529 106.46 66.2845 106.152 65.7019 105.535C65.1275 104.919 64.8405 104.087 64.8405 103.04C64.8405 101.993 65.1275 101.161 65.7019 100.545ZM66.6392 104.813C66.9769 105.236 67.4329 105.447 68.0072 105.447C68.5812 105.447 69.0372 105.236 69.3752 104.813C69.7128 104.391 69.8819 103.8 69.8819 103.04C69.8819 102.28 69.7128 101.689 69.3752 101.267C69.0372 100.844 68.5812 100.633 68.0072 100.633C67.4329 100.633 66.9769 100.844 66.6392 101.267C66.3012 101.689 66.1325 102.28 66.1325 103.04C66.1325 103.8 66.3012 104.391 66.6392 104.813ZM75.4453 105.32H78.4473V100.76H76.1673C76.1673 102.516 76.1377 103.589 76.0787 103.977C76.0197 104.357 75.8083 104.805 75.4453 105.32ZM73.9507 105.32C74.1363 105.084 74.2673 104.919 74.3433 104.826C74.4277 104.725 74.5163 104.568 74.6093 104.357C74.7023 104.146 74.757 103.986 74.774 103.876C74.7993 103.766 74.8247 103.534 74.85 103.179C74.8837 102.816 74.9007 102.491 74.9007 102.204C74.9007 101.908 74.9007 101.427 74.9007 100.76V99.7467H79.714V105.32H80.6007V107.853H79.334V106.333H74.6473V107.853H73.3807V105.32H73.9507ZM87.929 101.102C87.38 100.806 86.81 100.659 86.219 100.659C85.5687 100.659 85.058 100.866 84.6863 101.279C84.3147 101.693 84.129 102.28 84.129 103.04C84.129 103.783 84.3233 104.37 84.7117 104.801C85.1087 105.231 85.611 105.447 86.219 105.447C86.81 105.447 87.38 105.299 87.929 105.003L88.2457 106.017C87.57 106.312 86.8733 106.46 86.1557 106.46C85.1593 106.46 84.3487 106.152 83.7237 105.535C83.1073 104.919 82.799 104.087 82.799 103.04C82.799 101.968 83.0947 101.132 83.6857 100.532C84.2767 99.924 85.1 99.62 86.1557 99.62C86.8733 99.62 87.57 99.7677 88.2457 100.063L87.929 101.102ZM92.5813 102.457L95.3047 99.7467H96.9007L93.6327 102.901L97.0147 106.333H95.4187L92.5813 103.357H92.556V106.333H91.2133V99.7467H92.556V102.457H92.5813ZM101.046 99.7467V104.535H101.071L104.314 99.7467H105.682V106.333H104.365V101.545H104.339L101.109 106.333H99.7287V99.7467H101.046ZM109.625 102.559H113.184C113.176 101.934 113.015 101.452 112.703 101.115C112.399 100.777 111.976 100.608 111.436 100.608C110.896 100.608 110.461 100.781 110.131 101.127C109.81 101.465 109.642 101.942 109.625 102.559ZM109.625 103.547C109.65 104.138 109.853 104.606 110.233 104.953C110.621 105.299 111.107 105.472 111.689 105.472C112.323 105.472 112.956 105.312 113.589 104.991L113.906 105.953C113.171 106.291 112.39 106.46 111.563 106.46C110.617 106.46 109.84 106.152 109.232 105.535C108.632 104.91 108.333 104.079 108.333 103.04C108.333 101.976 108.611 101.14 109.169 100.532C109.734 99.924 110.49 99.62 111.436 99.62C112.373 99.62 113.104 99.907 113.627 100.481C114.151 101.056 114.413 101.887 114.413 102.977C114.413 103.103 114.404 103.293 114.387 103.547H109.625ZM122.145 99.7467H127.909V106.333H126.642V100.785H123.412V106.333H122.145V99.7467ZM131.413 100.545C131.995 99.9283 132.764 99.62 133.718 99.62C134.672 99.62 135.436 99.9283 136.011 100.545C136.593 101.161 136.885 101.993 136.885 103.04C136.885 104.087 136.593 104.919 136.011 105.535C135.436 106.152 134.672 106.46 133.718 106.46C132.764 106.46 131.995 106.152 131.413 105.535C130.838 104.919 130.551 104.087 130.551 103.04C130.551 101.993 130.838 101.161 131.413 100.545ZM132.35 104.813C132.688 105.236 133.144 105.447 133.718 105.447C134.292 105.447 134.748 105.236 135.086 104.813C135.424 104.391 135.593 103.8 135.593 103.04C135.593 102.28 135.424 101.689 135.086 101.267C134.748 100.844 134.292 100.633 133.718 100.633C133.144 100.633 132.688 100.844 132.35 101.267C132.012 101.689 131.843 102.28 131.843 103.04C131.843 103.8 132.012 104.391 132.35 104.813ZM140.789 100.697C141.279 99.979 141.958 99.62 142.828 99.62C143.664 99.62 144.314 99.9113 144.779 100.494C145.252 101.068 145.488 101.917 145.488 103.04C145.488 104.146 145.243 104.995 144.753 105.586C144.272 106.169 143.63 106.46 142.828 106.46C141.984 106.46 141.317 106.143 140.827 105.51H140.801V109.12H139.535V99.7467H140.738L140.763 100.697H140.789ZM144.247 103.04C144.247 102.238 144.095 101.638 143.791 101.241C143.487 100.836 143.06 100.633 142.511 100.633C142.013 100.633 141.604 100.844 141.283 101.267C140.962 101.68 140.801 102.25 140.801 102.977V103.103C140.801 103.838 140.962 104.412 141.283 104.826C141.604 105.24 142.013 105.447 142.511 105.447C143.035 105.447 143.453 105.24 143.765 104.826C144.086 104.412 144.247 103.817 144.247 103.04ZM153.772 100.773H151.479V106.333H150.111V100.773H147.819V99.7467H153.772V100.773ZM160.406 103.065H159.772C159.012 103.065 158.425 103.196 158.012 103.458C157.606 103.72 157.404 104.066 157.404 104.497C157.404 104.809 157.496 105.058 157.682 105.244C157.876 105.421 158.13 105.51 158.442 105.51C158.974 105.51 159.434 105.328 159.823 104.965C160.211 104.594 160.406 104.142 160.406 103.61V103.065ZM156.162 104.56C156.162 103.825 156.47 103.238 157.087 102.799C157.712 102.352 158.607 102.128 159.772 102.128H160.406V102.065C160.406 101.533 160.296 101.161 160.076 100.95C159.865 100.739 159.489 100.633 158.949 100.633C158.147 100.633 157.408 100.823 156.732 101.203L156.542 100.19C157.252 99.81 158.054 99.62 158.949 99.62C159.903 99.62 160.596 99.8143 161.026 100.203C161.457 100.583 161.672 101.191 161.672 102.027V104.56C161.672 105.16 161.736 105.751 161.862 106.333H160.659C160.591 105.962 160.553 105.624 160.545 105.32H160.52C160.283 105.675 159.954 105.953 159.532 106.156C159.118 106.359 158.649 106.46 158.126 106.46C157.526 106.46 157.049 106.291 156.694 105.953C156.34 105.616 156.162 105.151 156.162 104.56ZM170.964 106.333H169.698V100.785H167.076V103.141C167.076 104.383 166.877 105.231 166.48 105.687C166.084 106.135 165.319 106.392 164.188 106.46L164.124 105.421C164.606 105.396 164.96 105.316 165.188 105.181C165.425 105.046 165.59 104.809 165.682 104.471C165.784 104.134 165.834 103.614 165.834 102.913V99.7467H170.964V106.333ZM180.324 106.333V99.7467H181.553V106.333H180.324ZM174.054 99.7467H175.321V101.672C175.616 101.613 175.975 101.583 176.397 101.583C177.36 101.583 178.095 101.794 178.601 102.217C179.116 102.63 179.374 103.2 179.374 103.927C179.374 104.78 179.108 105.417 178.576 105.839C178.052 106.253 177.242 106.46 176.144 106.46C175.409 106.46 174.713 106.397 174.054 106.27V99.7467ZM175.321 102.685V105.345C175.633 105.413 175.937 105.447 176.233 105.447C176.883 105.447 177.36 105.324 177.664 105.079C177.976 104.826 178.133 104.442 178.133 103.927C178.133 103.504 177.972 103.179 177.651 102.951C177.33 102.715 176.849 102.597 176.207 102.597C175.861 102.597 175.565 102.626 175.321 102.685Z" fill="white"/>
</svg>
