<svg width="207" height="64" viewBox="0 0 207 64" fill="none" xmlns="http://www.w3.org/2000/svg">
<path d="M206.851 57.5794C206.912 59.2188 206.32 60.8157 205.206 62.0195C204.091 63.2233 202.544 63.9356 200.905 64H6.34469C4.70533 63.9356 3.15852 63.2233 2.04379 62.0195C0.92905 60.8157 0.337454 59.2188 0.398878 57.5794V6.42065C0.337454 4.78116 0.92905 3.18429 2.04379 1.98053C3.15852 0.77677 4.70533 0.0644751 6.34469 0H200.884C202.523 0.0644751 204.07 0.77677 205.185 1.98053C206.3 3.18429 206.891 4.78116 206.83 6.42065V57.5794H206.851Z" fill="black"/>
<path d="M45.7376 30.4103C45.7567 28.8958 46.1585 27.4107 46.9057 26.0932C47.6529 24.7757 48.7211 23.6686 50.0111 22.8748C49.1909 21.7031 48.109 20.7386 46.8512 20.0577C45.5934 19.3768 44.1942 18.9984 42.7647 18.9523C39.7092 18.622 36.7569 20.769 35.2085 20.769C33.6602 20.769 31.224 18.9729 28.6434 19.0348C26.9751 19.0878 25.3489 19.572 23.9233 20.4403C22.4978 21.3087 21.3216 22.5315 20.5092 23.9897C16.9995 30.08 19.6215 39.0194 22.9866 43.9329C24.6795 46.3484 26.6408 49.0323 29.1802 48.929C31.7195 48.8258 32.6485 47.3187 35.6834 47.3187C38.7182 47.3187 39.5853 48.929 42.2073 48.8671C44.8292 48.8052 46.6047 46.4516 48.2356 44.0155C49.4482 42.3013 50.3819 40.4061 51.0021 38.4C49.4391 37.7294 48.1072 36.615 47.1715 35.1948C46.2357 33.7746 45.7372 32.1111 45.7376 30.4103Z" fill="white"/>
<path d="M40.7839 15.7109C42.2711 13.9477 43.0118 11.6737 42.8484 9.3728C40.5984 9.61194 38.5205 10.6878 37.0265 12.387C36.2875 13.23 35.7243 14.2121 35.3697 15.2757C35.0152 16.3392 34.8766 17.4628 34.9619 18.5806C36.086 18.5722 37.1935 18.3097 38.2017 17.8128C39.2099 17.3158 40.0927 16.5973 40.7839 15.7109Z" fill="white"/>
<path d="M82.1979 48.578H78.6676L76.7476 42.5083H70.0379L68.2005 48.578H64.7734L71.4212 27.9329H75.5502L82.1979 48.578ZM76.1695 39.969L74.4354 34.5806C74.2564 34.0301 73.9123 32.7363 73.4031 30.6993C73.1966 31.5802 72.8732 32.8739 72.4328 34.5806L70.7192 39.969H76.2521H76.1695Z" fill="white"/>
<path d="M99.2926 40.96C99.4105 43.1547 98.6701 45.3092 97.2281 46.9678C96.6513 47.601 95.9459 48.1037 95.159 48.4419C94.372 48.7802 93.5219 48.9463 92.6655 48.9291C91.8559 48.9832 91.0464 48.8204 90.3206 48.4575C89.5948 48.0946 88.979 47.5447 88.5365 46.8645V54.7097H85.2332V38.6684C85.2332 37.0718 85.192 35.4409 85.1094 33.7755H88.0204L88.2061 36.1291C88.7078 35.3627 89.3815 34.7241 90.1735 34.2641C90.9656 33.804 91.8541 33.5352 92.7683 33.4791C93.6825 33.4229 94.5972 33.581 95.4395 33.9407C96.2819 34.3004 97.0287 34.8518 97.6203 35.551C98.7977 37.1006 99.39 39.0163 99.2926 40.96ZM95.9275 41.0839C95.9756 39.8223 95.637 38.5761 94.9571 37.5123C94.6382 37.0488 94.2089 36.672 93.7079 36.4161C93.2068 36.1602 92.6499 36.0332 92.0875 36.0465C91.2795 36.0478 90.4977 36.3327 89.8784 36.8517C89.2273 37.376 88.7696 38.1025 88.5778 38.9162C88.4899 39.2465 88.4414 39.586 88.4332 39.9278V42.4052C88.4043 43.4128 88.7584 44.394 89.4242 45.151C89.7459 45.5152 90.144 45.8039 90.59 45.9966C91.0361 46.1893 91.5192 46.2813 92.0049 46.2658C92.5723 46.2884 93.1364 46.1679 93.6451 45.9153C94.1538 45.6628 94.5908 45.2864 94.9158 44.8207C95.6387 43.7053 95.9926 42.3908 95.9275 41.0633V41.0839Z" fill="white"/>
<path d="M116.406 40.96C116.526 43.155 115.785 45.3103 114.341 46.9678C113.765 47.6021 113.06 48.1054 112.273 48.4438C111.486 48.7821 110.635 48.9476 109.779 48.9291C108.969 48.9832 108.16 48.8204 107.434 48.4575C106.708 48.0946 106.092 47.5447 105.65 46.8645V54.7097H102.347V38.6684C102.347 37.0718 102.305 35.4409 102.223 33.7755H105.134L105.319 36.1291C105.821 35.3627 106.495 34.7241 107.287 34.2641C108.079 33.804 108.967 33.5352 109.882 33.4791C110.796 33.4229 111.71 33.581 112.553 33.9407C113.395 34.3004 114.142 34.8518 114.734 35.551C115.911 37.1006 116.503 39.0163 116.406 40.96ZM113.041 41.0839C113.127 39.785 112.802 38.492 112.112 37.3884C111.793 36.9249 111.363 36.5482 110.862 36.2922C110.361 36.0363 109.804 35.9093 109.242 35.9226C108.427 35.919 107.637 36.2043 107.012 36.7278C106.361 37.2521 105.903 37.9786 105.712 38.7923C105.625 39.1228 105.576 39.4622 105.567 39.8039V42.2813C105.538 43.289 105.892 44.2702 106.558 45.0271C106.88 45.3913 107.278 45.6801 107.724 45.8728C108.17 46.0655 108.653 46.1574 109.139 46.142C109.706 46.1646 110.27 46.044 110.779 45.7915C111.288 45.5389 111.725 45.1625 112.05 44.6968C112.741 43.614 113.086 42.3469 113.041 41.0633V41.0839Z" fill="white"/>
<path d="M135.542 42.7768C135.57 43.5836 135.42 44.3868 135.103 45.129C134.785 45.8712 134.308 46.5343 133.705 47.071C132.127 48.3601 130.123 49.0086 128.089 48.8878C126.222 48.9774 124.367 48.5334 122.742 47.6078L123.506 44.8619C124.942 45.7363 126.594 46.1937 128.275 46.1832C129.314 46.2445 130.342 45.9455 131.186 45.3368C131.522 45.0688 131.791 44.7254 131.97 44.3346C132.15 43.9437 132.235 43.5162 132.218 43.0865C132.22 42.7018 132.143 42.3208 131.994 41.9662C131.845 41.6115 131.627 41.2904 131.351 41.0219C130.521 40.3012 129.551 39.76 128.502 39.4323C124.882 38.0559 123.079 36.0809 123.093 33.5071C123.08 32.7205 123.243 31.9409 123.572 31.2261C123.901 30.5114 124.386 29.8798 124.993 29.3781C126.423 28.2348 128.222 27.6546 130.051 27.7471C131.668 27.687 133.276 28.0199 134.737 28.7174L133.911 31.422C132.698 30.7775 131.342 30.4508 129.968 30.4723C128.984 30.4161 128.014 30.7249 127.243 31.3394C126.978 31.5745 126.767 31.8641 126.624 32.1884C126.482 32.5126 126.411 32.8639 126.417 33.2181C126.402 33.6125 126.481 34.0049 126.646 34.3635C126.811 34.7221 127.058 35.037 127.367 35.2826C128.274 35.968 129.284 36.5046 130.36 36.8723C131.845 37.3971 133.188 38.2593 134.283 39.391C135.09 40.3348 135.537 41.5347 135.542 42.7768Z" fill="white"/>
<path d="M146.467 36.1703H142.813V43.3962C142.813 45.2405 143.453 46.1557 144.733 46.142C145.226 46.1554 145.718 46.1068 146.199 45.9974V48.5161C145.367 48.7899 144.494 48.9156 143.618 48.8878C143.053 48.9179 142.488 48.8266 141.961 48.6201C141.434 48.4136 140.957 48.0965 140.563 47.6904C139.722 46.5334 139.333 45.109 139.469 43.6852V36.191H137.301V33.7136H139.469V30.9884L142.71 30.0181V33.7136H146.364V36.191L146.467 36.1703Z" fill="white"/>
<path d="M162.901 41.0013C162.972 43.0588 162.273 45.0689 160.939 46.6374C160.251 47.3902 159.407 47.9835 158.465 48.3758C157.524 48.7681 156.508 48.9499 155.489 48.9084C154.513 48.9533 153.538 48.7823 152.635 48.4076C151.733 48.033 150.924 47.4638 150.266 46.7406C148.949 45.229 148.255 43.2734 148.325 41.2697C148.258 39.1884 148.998 37.1616 150.39 35.6129C151.076 34.8734 151.916 34.2927 152.85 33.9111C153.784 33.5296 154.791 33.3565 155.799 33.4039C156.781 33.3628 157.76 33.5353 158.669 33.9095C159.578 34.2838 160.395 34.8509 161.063 35.5716C162.34 37.0839 162.997 39.0241 162.901 41.0013ZM159.474 41.1045C159.51 39.8683 159.202 38.6463 158.586 37.5742C158.307 37.029 157.88 36.5734 157.354 36.2594C156.829 35.9454 156.225 35.7858 155.613 35.7987C154.992 35.7813 154.378 35.9385 153.842 36.2523C153.305 36.5662 152.867 37.0241 152.578 37.5742C151.956 38.6668 151.649 39.9101 151.69 41.1665C151.654 42.4027 151.961 43.6247 152.578 44.6968C152.868 45.2361 153.298 45.6869 153.823 46.0011C154.348 46.3154 154.949 46.4813 155.561 46.4813C156.173 46.4813 156.774 46.3154 157.299 46.0011C157.825 45.6869 158.255 45.2361 158.544 44.6968C159.182 43.6165 159.504 42.3791 159.474 41.1252V41.1045Z" fill="white"/>
<path d="M173.654 36.6038C173.31 36.5728 172.965 36.5728 172.621 36.6038C172.096 36.5779 171.572 36.6854 171.099 36.9165C170.626 37.1475 170.22 37.4945 169.917 37.9251C169.341 38.7914 169.052 39.8171 169.091 40.8567V48.6606H165.788V38.4619C165.788 36.7415 165.747 35.1793 165.664 33.7755H168.534L168.658 36.6245C168.97 35.6973 169.543 34.88 170.309 34.271C171 33.7512 171.84 33.4688 172.704 33.4658C172.979 33.4443 173.255 33.4443 173.53 33.4658V36.6245L173.654 36.6038Z" fill="white"/>
<path d="M188.498 40.4231C188.505 40.9283 188.464 41.4331 188.374 41.9302H178.464C178.443 42.5628 178.562 43.1922 178.812 43.7738C179.062 44.3553 179.436 44.8748 179.909 45.2954C180.832 46.0144 181.982 46.3805 183.15 46.3277C184.518 46.3455 185.876 46.1074 187.156 45.6257L187.672 47.9173C186.089 48.569 184.387 48.8853 182.676 48.8464C181.677 48.8967 180.679 48.7391 179.744 48.3838C178.81 48.0284 177.959 47.4829 177.246 46.7819C176.554 46.0542 176.014 45.1951 175.66 44.2554C175.305 43.3157 175.142 42.3145 175.181 41.3109C175.11 39.2869 175.761 37.3036 177.019 35.7161C177.639 34.9136 178.443 34.2716 179.362 33.8441C180.282 33.4166 181.291 33.2161 182.304 33.2593C183.253 33.2081 184.2 33.4014 185.053 33.8207C185.906 34.24 186.637 34.8713 187.176 35.6541C188.106 37.0657 188.569 38.7342 188.498 40.4231ZM185.339 39.5561C185.382 38.6649 185.159 37.781 184.699 37.0167C184.426 36.5677 184.035 36.2016 183.57 35.9579C183.104 35.7141 182.581 35.602 182.056 35.6335C181.543 35.6255 181.035 35.7437 180.578 35.9777C180.121 36.2117 179.728 36.5543 179.434 36.9754C178.872 37.726 178.536 38.6211 178.464 39.5561H185.36H185.339Z" fill="white"/>
<path d="M66.3621 11.0038C66.7398 10.7804 67.1415 10.6004 67.5595 10.467C68.0674 10.3093 68.5969 10.2327 69.1286 10.2399C69.9486 10.1918 70.7596 10.4329 71.4202 10.9212C71.9026 11.3439 72.2024 11.9372 72.2563 12.5764C72.3102 13.2156 72.1141 13.8507 71.7092 14.3483C71.3283 14.7751 70.8227 15.0713 70.264 15.1947C70.5771 15.2449 70.8824 15.3351 71.1724 15.4631C71.4482 15.5819 71.7 15.7498 71.9157 15.9586C72.1338 16.171 72.309 16.4233 72.4318 16.7018C72.5584 16.995 72.6217 17.3116 72.6176 17.6308C72.6356 18.12 72.5215 18.6049 72.2873 19.0347C72.0666 19.4084 71.7628 19.7263 71.3995 19.9638C71.0277 20.2073 70.6151 20.3821 70.1815 20.4799C69.7351 20.5866 69.2779 20.6421 68.8189 20.6451C68.3403 20.6463 67.8629 20.5979 67.3944 20.5006C66.9375 20.4048 66.4985 20.2376 66.0938 20.0051L66.5066 18.7663C66.8324 18.9194 67.1709 19.0437 67.5182 19.138C67.9202 19.2587 68.3373 19.3213 68.757 19.3238C69.3328 19.3595 69.9029 19.1914 70.3673 18.8489C70.6455 18.5915 70.8293 18.2481 70.8892 17.8738C70.9491 17.4994 70.8817 17.1158 70.6976 16.7844C70.5511 16.5614 70.3528 16.3772 70.1195 16.2476C69.868 16.114 69.5958 16.0233 69.3144 15.9793C69.019 15.9546 68.722 15.9546 68.4266 15.9793H67.7247V14.6786H68.406C68.6996 14.681 68.9919 14.6392 69.2731 14.5547C69.5177 14.4851 69.7482 14.3733 69.9544 14.2244C70.1407 14.0866 70.2956 13.9106 70.4086 13.7083C70.5204 13.4988 70.5772 13.2644 70.5737 13.027C70.5827 12.8266 70.5443 12.6268 70.4618 12.4439C70.3793 12.2611 70.255 12.1001 70.0989 11.9741C69.722 11.7004 69.2636 11.5621 68.7983 11.5818C68.4192 11.5849 68.043 11.6476 67.6834 11.7676C67.345 11.8769 67.014 12.0079 66.6924 12.1599L66.3621 11.0038Z" fill="white"/>
<path d="M79.2661 20.5625L79.1422 19.716C78.9055 20.0389 78.594 20.2996 78.2345 20.4758C77.8749 20.652 77.478 20.7384 77.0777 20.7276C76.767 20.7325 76.4584 20.6765 76.1693 20.5625C75.9088 20.4567 75.6707 20.3026 75.4674 20.1083C75.2646 19.9157 75.1031 19.6839 74.9926 19.427C74.8792 19.1522 74.823 18.8572 74.8274 18.5599C74.8054 18.1465 74.8978 17.7351 75.0945 17.3708C75.2911 17.0066 75.5845 16.7037 75.9422 16.4954C76.9139 15.9861 78.0057 15.7506 79.1009 15.8141V15.6696C79.1263 15.4682 79.1043 15.2638 79.0365 15.0725C78.9687 14.8813 78.8572 14.7085 78.7107 14.5681C78.5643 14.4277 78.387 14.3234 78.1931 14.2638C77.9991 14.2041 77.7939 14.1906 77.5939 14.2244C76.9216 14.212 76.2608 14.3987 75.6945 14.7612L75.3642 13.6876C76.1198 13.2428 76.9859 13.0209 77.8623 13.0476C78.2633 13.0004 78.6698 13.0472 79.0496 13.1842C79.4294 13.3213 79.7721 13.545 80.0505 13.8374C80.329 14.1299 80.5355 14.4831 80.6538 14.8692C80.772 15.2553 80.7988 15.6636 80.7319 16.0618V18.8076C80.7208 19.3875 80.7554 19.9674 80.8352 20.5418H79.3693L79.2661 20.5625ZM79.0803 16.9083C78.3742 16.8636 77.6674 16.9838 77.0158 17.2592C76.8053 17.3614 76.6299 17.524 76.5123 17.7262C76.3946 17.9285 76.3399 18.1612 76.3551 18.3947C76.3406 18.5531 76.3609 18.7127 76.4144 18.8624C76.4678 19.0122 76.5533 19.1485 76.6648 19.2618C76.8801 19.4544 77.1606 19.5578 77.4494 19.5509C77.6537 19.5553 77.857 19.5202 78.0481 19.4476C78.2305 19.3751 78.3984 19.2702 78.5436 19.138C78.6903 19.004 78.8095 18.8427 78.8945 18.6631C78.9813 18.4757 79.0237 18.2709 79.0184 18.0644V16.9289L79.0803 16.9083Z" fill="white"/>
<path d="M88.4744 13.2334V14.6786H85.4396V20.645H83.8086V13.2334H88.4744Z" fill="white"/>
<path d="M97.6594 16.7432C97.6626 17.2829 97.5789 17.8197 97.4117 18.3329C97.2727 18.7842 97.0484 19.2047 96.751 19.5716C96.4692 19.9173 96.1131 20.1952 95.7093 20.3846C95.3055 20.574 94.8642 20.6701 94.4181 20.6658C94.0129 20.6962 93.6069 20.6163 93.2435 20.4345C92.88 20.2528 92.5725 19.976 92.3536 19.6335V23.4735H90.7227V15.5871C90.7227 15.2017 90.7227 14.8094 90.7227 14.4103C90.7227 14.018 90.7227 13.6051 90.7227 13.1922H92.1472V14.3483C92.4006 13.9295 92.763 13.5873 93.1957 13.3582C93.6283 13.1292 94.1151 13.0219 94.604 13.0477C95.0185 13.0435 95.4283 13.1354 95.8014 13.3161C96.168 13.5014 96.4915 13.7616 96.751 14.08C97.0355 14.4292 97.2525 14.8282 97.391 15.2567C97.5603 15.7345 97.6509 16.2365 97.6594 16.7432ZM96.0078 16.7432C96.0113 16.4088 95.9696 16.0755 95.884 15.7522C95.8112 15.4694 95.6851 15.2031 95.5124 14.9677C95.3526 14.7543 95.1483 14.5781 94.9136 14.4516C94.6849 14.3417 94.4344 14.2847 94.1807 14.2847C93.927 14.2847 93.6765 14.3417 93.4478 14.4516C93.2301 14.5503 93.0337 14.6905 92.8697 14.8645C92.5181 15.24 92.3193 15.7333 92.3123 16.2477V17.4658C92.3077 17.719 92.3497 17.971 92.4362 18.209C92.5136 18.4293 92.6328 18.6325 92.7872 18.8077C92.9433 18.9763 93.1332 19.1099 93.3446 19.2C93.5723 19.2994 93.8187 19.3486 94.0672 19.3445C94.3464 19.3917 94.6331 19.3672 94.9004 19.2733C95.1676 19.1795 95.4066 19.0192 95.5949 18.8077C95.9763 18.2355 96.1578 17.5532 96.1111 16.8671L96.0078 16.7432Z" fill="white"/>
<path d="M106.476 13.2336L104.618 18.3122C104.261 19.3254 103.834 20.3119 103.338 21.2645C103.028 21.881 102.624 22.4453 102.14 22.9368C101.64 23.4045 101.017 23.7197 100.344 23.8452L99.952 22.4826C100.394 22.3611 100.803 22.1424 101.149 21.8426C101.533 21.512 101.843 21.1039 102.058 20.6452C102.12 20.544 102.162 20.4318 102.182 20.3148C102.197 20.1983 102.197 20.0804 102.182 19.9639L99.5391 13.2336H101.335L102.718 17.3626C102.718 17.5484 102.863 17.7755 102.925 18.0026L103.152 18.8077C103.152 18.6426 103.255 18.4361 103.317 18.1884C103.379 17.9406 103.462 17.6516 103.565 17.3419L104.804 13.2129H106.538L106.476 13.2336Z" fill="white"/>
<path d="M109.303 16.289H110.047C110.494 16.3132 110.939 16.2056 111.327 15.9793C111.46 15.9049 111.572 15.7974 111.651 15.6673C111.731 15.5371 111.775 15.3886 111.781 15.2361C111.782 15.0923 111.747 14.9504 111.678 14.824C111.61 14.6976 111.51 14.5907 111.389 14.5135C111.073 14.3187 110.706 14.2251 110.336 14.2451C110.034 14.246 109.734 14.2948 109.448 14.3897C109.162 14.4796 108.885 14.5971 108.622 14.7406L108.209 13.6877C108.603 13.4672 109.027 13.3071 109.469 13.2129C109.883 13.1287 110.305 13.0872 110.728 13.089C111.064 13.0563 111.403 13.0563 111.74 13.089C112.052 13.1473 112.353 13.259 112.627 13.4193C112.886 13.5728 113.105 13.7849 113.267 14.0387C113.44 14.3169 113.526 14.6403 113.515 14.9677C113.519 15.1829 113.469 15.3958 113.371 15.5871C113.285 15.7661 113.166 15.9273 113.02 16.0619C112.872 16.1969 112.705 16.3083 112.524 16.3922C112.346 16.4742 112.159 16.5365 111.967 16.578C112.207 16.6104 112.443 16.6728 112.669 16.7638C112.891 16.8493 113.1 16.9676 113.288 17.1148C113.464 17.2572 113.612 17.4325 113.721 17.6309C113.833 17.8478 113.89 18.0889 113.887 18.3329C113.902 18.7147 113.793 19.0912 113.577 19.4064C113.366 19.6936 113.09 19.9269 112.772 20.0877C112.434 20.2633 112.072 20.3885 111.698 20.4593C111.324 20.5286 110.944 20.5631 110.563 20.5626C110.112 20.5623 109.662 20.5138 109.221 20.418C108.802 20.3363 108.398 20.1901 108.023 19.9845L108.457 18.911C108.739 19.0604 109.037 19.1781 109.345 19.2619C109.68 19.3575 110.028 19.4062 110.377 19.4064C110.828 19.4396 111.278 19.3235 111.657 19.0761C111.79 18.9879 111.899 18.8682 111.975 18.7278C112.05 18.5874 112.09 18.4305 112.091 18.271C112.1 18.0813 112.049 17.8936 111.946 17.7342C111.84 17.5844 111.698 17.4637 111.533 17.3832C111.331 17.287 111.115 17.2243 110.893 17.1974H110.109H109.345V16.1651L109.303 16.289Z" fill="white"/>
<path d="M117.975 13.2334V15.8141C117.975 16.4128 117.975 16.9289 117.975 17.4038C117.975 17.8786 117.975 18.3741 117.975 18.8902L118.533 17.7754L119.09 16.6605L120.886 13.1921H122.951V20.5005H121.402V17.9199C121.402 17.3831 121.402 16.8463 121.402 16.2889C121.402 15.7315 121.402 15.1947 121.402 14.658C121.254 15.0601 121.082 15.4531 120.886 15.8347L120.37 16.867L119.441 18.6631L118.471 20.5212H116.406V13.2334H117.955H117.975Z" fill="white"/>
<path d="M131.517 13.2334V14.6786H129.287V20.645H127.697V14.6786H125.488V13.2334H131.517Z" fill="white"/>
<path d="M139.797 16.5572C139.797 16.7018 139.797 16.8256 139.797 16.9495C139.804 17.0595 139.804 17.1698 139.797 17.2798H134.822C134.808 17.5801 134.86 17.8799 134.974 18.158C135.088 18.4362 135.262 18.686 135.482 18.8901C135.942 19.2786 136.533 19.4779 137.134 19.4475C137.838 19.4651 138.539 19.3459 139.199 19.0966L139.446 20.2321C138.667 20.5488 137.831 20.7033 136.989 20.6863C136.468 20.6941 135.949 20.603 135.462 20.4179C135.034 20.2553 134.646 20.0017 134.326 19.6746C134.007 19.3441 133.761 18.9502 133.604 18.5185C133.432 18.0277 133.348 17.5106 133.356 16.9908C133.353 16.4645 133.437 15.9414 133.604 15.4424C133.758 14.9893 133.996 14.5692 134.306 14.2037C134.608 13.8545 134.981 13.5731 135.4 13.3779C135.846 13.1705 136.332 13.0647 136.824 13.0682C137.257 13.0619 137.686 13.1463 138.084 13.3159C138.449 13.4753 138.774 13.7152 139.033 14.0179C139.311 14.3371 139.522 14.7093 139.653 15.1121C139.78 15.5827 139.828 16.0709 139.797 16.5572ZM138.249 16.1443C138.27 15.65 138.125 15.1629 137.836 14.7611C137.694 14.5822 137.511 14.44 137.303 14.3466C137.094 14.2532 136.867 14.2113 136.639 14.2243C136.412 14.2221 136.188 14.2689 135.981 14.3615C135.774 14.4542 135.59 14.5905 135.441 14.7611C135.099 15.1443 134.895 15.6315 134.863 16.1443H138.249Z" fill="white"/>
<path d="M146.34 13.2955L147.455 13.1716H148.838H149.85C150.217 13.2059 150.578 13.2892 150.923 13.4194C151.255 13.5289 151.553 13.7207 151.79 13.9768C152.032 14.2566 152.158 14.6187 152.141 14.9884C152.144 15.1946 152.101 15.3989 152.017 15.5871C151.937 15.7579 151.825 15.9119 151.687 16.0413C151.548 16.1763 151.387 16.2879 151.212 16.3716C151.035 16.4574 150.848 16.5199 150.655 16.5574C151.134 16.6233 151.585 16.8237 151.955 17.1355C152.121 17.2866 152.251 17.4721 152.336 17.6791C152.422 17.886 152.461 18.1092 152.451 18.3329C152.474 18.7769 152.327 19.2129 152.038 19.551C151.753 19.8565 151.399 20.09 151.006 20.2323C150.587 20.3853 150.149 20.4825 149.705 20.5213H148.487H147.31H146.34V13.2749V13.2955ZM147.909 16.2065H148.735H149.457C149.663 16.1781 149.865 16.1226 150.056 16.0413C150.211 15.9725 150.345 15.866 150.448 15.7316C150.545 15.6002 150.596 15.4406 150.593 15.2774C150.601 15.1299 150.567 14.9832 150.493 14.855C150.42 14.7267 150.311 14.6225 150.18 14.5549C149.771 14.3753 149.325 14.2974 148.879 14.3278H148.425H147.909V16.2065ZM147.909 19.4477H148.404H148.879H149.561C149.781 19.4245 149.996 19.3688 150.201 19.2826C150.379 19.2056 150.535 19.0849 150.655 18.9316C150.774 18.7633 150.832 18.5594 150.82 18.3536C150.832 18.1684 150.784 17.9843 150.684 17.8282C150.584 17.6721 150.436 17.5523 150.262 17.4865C149.781 17.3049 149.269 17.2207 148.755 17.2387H147.888V19.4271L147.909 19.4477Z" fill="white"/>
</svg>
