<svg width="207" height="64" viewBox="0 0 207 64" fill="none" xmlns="http://www.w3.org/2000/svg">
<g clip-path="url(#clip0_244_1657)">
<path d="M198.814 64H7.64009C5.57016 63.9459 3.60556 63.0756 2.17464 61.5789C0.743723 60.0823 -0.0374681 58.0806 0.00138274 56.0103V7.98967C-0.0374681 5.91939 0.743723 3.91772 2.17464 2.42106C3.60556 0.92439 5.57016 0.054126 7.64009 0H198.814C200.888 0.0541117 202.856 0.927248 204.287 2.4284C205.719 3.92954 206.497 5.93652 206.453 8.01033V56.0103C206.492 58.0806 205.711 60.0823 204.28 61.5789C202.849 63.0756 200.884 63.9459 198.814 64Z" fill="black"/>
<path d="M103.515 35.4065C102.316 35.4106 101.144 35.77 100.149 36.4394C99.1536 37.1089 98.3788 38.0582 97.9226 39.1677C97.4664 40.2771 97.3491 41.4969 97.5856 42.6729C97.8221 43.849 98.4019 44.9286 99.2515 45.7754C100.101 46.6221 101.183 47.1982 102.36 47.4307C103.536 47.6632 104.756 47.5418 105.864 47.0818C106.972 46.6218 107.918 45.8439 108.584 44.8462C109.25 43.8485 109.606 42.6758 109.606 41.4762C109.617 40.6743 109.467 39.8783 109.165 39.1355C108.862 38.3926 108.414 37.7182 107.846 37.152C107.278 36.5859 106.602 36.1397 105.858 35.8398C105.114 35.54 104.317 35.3926 103.515 35.4065ZM103.515 45.151C102.78 45.2007 102.047 45.0281 101.411 44.6557C100.775 44.2833 100.266 43.7283 99.949 43.0626C99.6325 42.397 99.5235 41.6517 99.6361 40.9233C99.7486 40.1949 100.078 39.5172 100.58 38.9782C101.083 38.4392 101.736 38.0638 102.455 37.9008C103.174 37.7377 103.925 37.7946 104.611 38.0639C105.297 38.3333 105.886 38.8027 106.302 39.4112C106.718 40.0197 106.941 40.7392 106.943 41.4762C106.962 41.9422 106.888 42.4075 106.726 42.8447C106.563 43.2819 106.315 43.6823 105.996 44.0225C105.677 44.3627 105.293 44.6359 104.867 44.8262C104.441 45.0164 103.982 45.1198 103.515 45.1304V45.151ZM90.2407 35.4065C89.0411 35.4106 87.8696 35.77 86.8742 36.4394C85.8787 37.1089 85.104 38.0582 84.6477 39.1677C84.1915 40.2771 84.0743 41.4969 84.3108 42.6729C84.5473 43.849 85.127 44.9286 85.9767 45.7754C86.8264 46.6221 87.9079 47.1982 89.0847 47.4307C90.2616 47.6632 91.4809 47.5418 92.5888 47.0818C93.6967 46.6218 94.6434 45.8439 95.3095 44.8462C95.9755 43.8485 96.331 42.6758 96.331 41.4762C96.3422 40.6743 96.1921 39.8783 95.8897 39.1355C95.5874 38.3926 95.1388 37.7182 94.5708 37.152C94.0027 36.5859 93.3267 36.1397 92.5829 35.8398C91.839 35.54 91.0426 35.3926 90.2407 35.4065ZM90.2407 45.151C89.5053 45.2007 88.772 45.0281 88.136 44.6557C87.5 44.2833 86.9907 43.7283 86.6742 43.0626C86.3577 42.397 86.2486 41.6517 86.3612 40.9233C86.4738 40.1949 86.8027 39.5172 87.3054 38.9782C87.8081 38.4392 88.4612 38.0638 89.18 37.9008C89.8987 37.7377 90.6499 37.7946 91.3359 38.0639C92.022 38.3333 92.6112 38.8027 93.027 39.4112C93.4428 40.0197 93.6661 40.7392 93.6677 41.4762C93.6871 41.9422 93.6133 42.4075 93.4508 42.8447C93.2882 43.2819 93.0402 43.6823 92.7211 44.0225C92.402 44.3627 92.0183 44.6359 91.5924 44.8262C91.1665 45.0164 90.707 45.1198 90.2407 45.1304V45.151ZM74.4471 37.1613V39.742H80.6407C80.5518 40.9499 80.057 42.0922 79.2368 42.9833C78.6204 43.6107 77.8794 44.102 77.0616 44.4256C76.2437 44.7492 75.3672 44.8978 74.4884 44.862C72.7383 44.7658 71.0915 44.0029 69.8866 42.73C68.6817 41.457 68.0102 39.7709 68.0102 38.0181C68.0102 36.2654 68.6817 34.5792 69.8866 33.3063C71.0915 32.0334 72.7383 31.2704 74.4884 31.1743C76.2184 31.1507 77.8878 31.811 79.1336 33.0117L80.9504 31.1949C80.1008 30.3528 79.0915 29.6889 77.9819 29.2422C76.8722 28.7955 75.6845 28.575 74.4884 28.5936C71.9916 28.5936 69.5971 29.5855 67.8316 31.351C66.0661 33.1165 65.0742 35.511 65.0742 38.0078C65.0742 40.5046 66.0661 42.8991 67.8316 44.6646C69.5971 46.4301 71.9916 47.422 74.4884 47.422C75.7075 47.4719 76.9232 47.2621 78.0551 46.8065C79.1869 46.3509 80.209 45.66 81.0536 44.7794C82.5516 43.1441 83.3516 40.9883 83.2832 38.7717C83.2872 38.2315 83.2388 37.6922 83.1387 37.1613H74.4884H74.4471ZM139.046 39.2259C138.682 38.1286 137.99 37.1698 137.063 36.4792C136.136 35.7886 135.019 35.3997 133.864 35.3652C133.084 35.3697 132.313 35.5324 131.599 35.8435C130.884 36.1546 130.239 36.6077 129.705 37.1752C129.17 37.7427 128.756 38.4129 128.488 39.1451C128.22 39.8773 128.103 40.6563 128.145 41.4349C128.128 42.2339 128.273 43.0281 128.571 43.7696C128.869 44.5111 129.314 45.1847 129.879 45.7498C130.444 46.3149 131.118 46.7598 131.86 47.0579C132.601 47.3559 133.395 47.5008 134.194 47.4839C135.194 47.491 136.179 47.2494 137.062 46.7809C137.945 46.3124 138.698 45.6317 139.252 44.8L137.188 43.4168C136.876 43.9311 136.437 44.3556 135.912 44.6488C135.387 44.9419 134.795 45.0937 134.194 45.0891C133.578 45.1121 132.968 44.9493 132.446 44.6216C131.923 44.2939 131.511 43.8166 131.263 43.2517L139.376 39.9072L139.046 39.2259ZM130.788 41.2904C130.76 40.8487 130.82 40.406 130.966 39.9881C131.112 39.5702 131.339 39.1855 131.635 38.8567C131.931 38.5279 132.29 38.2615 132.691 38.0732C133.091 37.8849 133.525 37.7784 133.967 37.76C134.426 37.7301 134.884 37.8353 135.284 38.0628C135.684 38.2903 136.009 38.6301 136.217 39.0401L130.788 41.2904ZM124.202 47.1743H126.865V29.3575H124.202V47.1743ZM119.846 36.8517C119.444 36.4055 118.949 36.0523 118.396 35.817C117.844 35.5817 117.246 35.4698 116.646 35.4891C115.1 35.5794 113.647 36.2571 112.584 37.3835C111.522 38.5099 110.93 39.9999 110.93 41.5484C110.93 43.097 111.522 44.587 112.584 45.7134C113.647 46.8398 115.1 47.5175 116.646 47.6078C117.248 47.6245 117.846 47.5094 118.399 47.2705C118.952 47.0315 119.446 46.6745 119.846 46.2246V47.0917C119.914 47.5472 119.88 48.0122 119.746 48.4528C119.612 48.8934 119.381 49.2986 119.071 49.6388C118.76 49.9789 118.378 50.2456 117.951 50.4193C117.524 50.5929 117.064 50.6692 116.605 50.6426C115.95 50.6332 115.312 50.4329 114.769 50.0661C114.226 49.6994 113.802 49.1823 113.549 48.5781L111.237 49.5484C111.672 50.6134 112.416 51.5242 113.372 52.1642C114.328 52.8041 115.454 53.1442 116.605 53.1407C119.722 53.1407 122.365 51.3033 122.365 46.8233V35.9433H119.743V36.9342L119.846 36.8517ZM116.79 45.2336C115.883 45.1373 115.043 44.7086 114.433 44.0301C113.823 43.3516 113.485 42.4713 113.485 41.5588C113.485 40.6462 113.823 39.7659 114.433 39.0874C115.043 38.4089 115.883 37.9803 116.79 37.8839C117.627 38.0567 118.377 38.5137 118.915 39.1773C119.452 39.8409 119.743 40.6701 119.738 41.5241C119.733 42.378 119.433 43.2038 118.888 43.8613C118.343 44.5187 117.587 44.9672 116.749 45.1304L116.79 45.2336ZM151.557 29.44H145.136V47.2568H147.799V40.5059H151.516C152.997 40.5059 154.417 39.9175 155.464 38.8702C156.512 37.8229 157.1 36.4024 157.1 34.9213C157.1 33.4402 156.512 32.0198 155.464 30.9725C154.417 29.9252 152.997 29.3368 151.516 29.3368L151.557 29.44ZM151.557 38.0284H147.779V31.8349H151.557C151.978 31.7988 152.401 31.8504 152.801 31.9863C153.201 32.1223 153.569 32.3396 153.88 32.6247C154.192 32.9098 154.441 33.2565 154.612 33.6427C154.783 34.029 154.872 34.4465 154.873 34.8689C154.875 35.2912 154.789 35.7093 154.62 36.0967C154.452 36.4841 154.205 36.8324 153.895 37.1196C153.586 37.4068 153.22 37.6267 152.821 37.7654C152.422 37.904 151.999 37.9584 151.577 37.9252L151.557 38.0284ZM168.073 35.4684C167.102 35.4112 166.136 35.6386 165.292 36.1227C164.449 36.6068 163.765 37.3265 163.325 38.1936L165.678 39.1846C165.913 38.7541 166.269 38.4017 166.702 38.1706C167.135 37.9396 167.626 37.8399 168.114 37.8839C168.449 37.8497 168.787 37.8818 169.11 37.9785C169.432 38.0752 169.733 38.2345 169.993 38.4474C170.254 38.6602 170.47 38.9224 170.63 39.219C170.789 39.5155 170.888 39.8406 170.922 40.1756V40.3614C170.07 39.911 169.12 39.6771 168.156 39.6801C165.616 39.6801 163.015 41.0839 163.015 43.6852C163.041 44.2351 163.177 44.7741 163.414 45.2707C163.652 45.7673 163.986 46.2114 164.398 46.5769C164.809 46.9424 165.29 47.2218 165.811 47.3989C166.332 47.5759 166.884 47.6469 167.433 47.6078C168.101 47.6462 168.766 47.5057 169.361 47.2008C169.957 46.896 170.46 46.4378 170.819 45.8736V47.2568H173.42V40.4233C173.447 39.7231 173.324 39.0252 173.058 38.3768C172.792 37.7285 172.39 37.1447 171.88 36.6652C171.369 36.1856 170.761 35.8213 170.097 35.5971C169.433 35.3728 168.729 35.2937 168.032 35.3652L168.073 35.4684ZM167.743 45.2336C167.271 45.2943 166.794 45.1718 166.41 44.8915C166.026 44.6111 165.764 44.1942 165.678 43.7265C165.803 43.1004 166.17 42.5492 166.7 42.1933C167.23 41.8373 167.88 41.7057 168.506 41.8271C169.357 41.8047 170.199 42.0115 170.943 42.4259C170.818 43.1914 170.422 43.8864 169.827 44.3832C169.231 44.8801 168.477 45.1454 167.701 45.1304L167.743 45.2336ZM182.834 35.8607L179.779 43.582L176.62 35.8607H173.626L178.375 46.6581L175.67 52.6659H178.437L185.745 35.8607H182.793H182.834ZM158.865 47.2568H161.528V29.44H158.865V47.2568Z" fill="white"/>
<path d="M21.2441 15.1331C20.7605 15.7073 20.5231 16.4492 20.5835 17.1976V48.7228C20.5231 49.4711 20.7605 50.213 21.2441 50.7873H21.3473L39.0196 33.0324V32.6195L21.3473 14.9473L21.2441 15.1331Z" fill="url(#paint0_linear_244_1657)"/>
<path d="M44.9034 38.9988L39.0195 33.0324V32.6195L44.9034 26.7356H45.0273L52.0054 30.6995C52.5529 30.6995 53.078 30.917 53.4652 31.3041C53.8524 31.6913 54.0699 32.2164 54.0699 32.764C54.0699 33.3115 53.8524 33.8366 53.4652 34.2238C53.078 34.611 52.5529 34.8285 52.0054 34.8285L45.0273 38.7924L44.9034 38.9988Z" fill="url(#paint1_linear_244_1657)"/>
<path d="M45.05 38.9164L39.0216 32.8879L21.2461 50.6634C21.6626 51.0129 22.1889 51.2045 22.7325 51.2045C23.2762 51.2045 23.8025 51.0129 24.219 50.6634L45.05 38.8338" fill="url(#paint2_linear_244_1657)"/>
<path d="M45.05 26.8388L24.219 15.0091C23.8025 14.6596 23.2762 14.468 22.7325 14.468C22.1889 14.468 21.6626 14.6596 21.2461 15.0091L39.0216 32.7846L45.05 26.8388Z" fill="url(#paint3_linear_244_1657)"/>
<path opacity="0.2" d="M44.9021 38.7922L24.2569 50.56C23.846 50.8682 23.3461 51.0348 22.8324 51.0348C22.3187 51.0348 21.8189 50.8682 21.4079 50.56L21.3047 50.6632H21.4079C21.8189 50.9714 22.3187 51.1381 22.8324 51.1381C23.3461 51.1381 23.846 50.9714 24.2569 50.6632L45.0879 38.8335L44.9021 38.7922Z" fill="black"/>
<path opacity="0.12" d="M21.2441 50.4569C20.7605 49.8826 20.5231 49.1407 20.5835 48.3923V48.5988C20.5231 49.3471 20.7605 50.089 21.2441 50.6633L21.3473 50.5601L21.2441 50.4569Z" fill="black"/>
<path opacity="0.12" d="M52.0082 34.7459L44.9062 38.875L45.0301 38.9988L52.0082 35.035C52.4182 34.8555 52.7724 34.5693 53.0339 34.2061C53.2954 33.8429 53.4545 33.4162 53.4946 32.9705C53.3965 33.3592 53.2119 33.7208 52.9545 34.0282C52.6971 34.3356 52.3736 34.581 52.0082 34.7459Z" fill="black"/>
<path opacity="0.25" d="M24.2186 15.2569L52.007 30.9678C52.3819 31.1411 52.7113 31.3991 52.9693 31.7216C53.2273 32.0441 53.4067 32.4221 53.4935 32.8259C53.4534 32.3802 53.2942 31.9534 53.0327 31.5902C52.7712 31.2271 52.417 30.9408 52.007 30.7614L24.198 14.9678C23.8521 14.6711 23.4228 14.4887 22.9692 14.4455C22.5155 14.4023 22.0595 14.5005 21.6638 14.7266C21.2681 14.9527 20.9521 15.2957 20.7589 15.7085C20.5658 16.1213 20.5051 16.5837 20.5851 17.0323V17.2388C20.5214 16.7931 20.5954 16.3386 20.7972 15.9362C20.9989 15.5337 21.3188 15.2025 21.7141 14.9869C22.1093 14.7713 22.561 14.6816 23.0086 14.7299C23.4562 14.7781 23.8784 14.962 24.2186 15.2569Z" fill="white"/>
<path d="M66.4162 24.7742H65.3633V21.9045H66.2097C66.6187 21.4691 66.9283 20.9501 67.1173 20.3834C67.3062 19.8167 67.3699 19.2157 67.3039 18.622V14.4929H73.0226V21.9871H73.9723V24.7742H72.9194V22.9161H66.4368V24.7742H66.4162ZM68.4807 18.5807C68.5544 19.7314 68.2734 20.8772 67.6755 21.8632H71.9904V15.4013H68.4807V18.5807Z" fill="white" stroke="white" stroke-width="0.2" stroke-miterlimit="10"/>
<path d="M82.5829 21.8221C81.7541 22.6292 80.643 23.0808 79.4861 23.0808C78.3293 23.0808 77.2181 22.6292 76.3893 21.8221C75.5822 20.9643 75.1328 19.8309 75.1328 18.6531C75.1328 17.4752 75.5822 16.3418 76.3893 15.484C77.2156 14.672 78.3277 14.217 79.4861 14.217C80.6446 14.217 81.7567 14.672 82.5829 15.484C83.3946 16.3395 83.8472 17.4738 83.8472 18.6531C83.8472 19.8323 83.3946 20.9667 82.5829 21.8221ZM77.1326 21.0995C77.4374 21.4048 77.7995 21.6469 78.198 21.8121C78.5965 21.9774 79.0237 22.0624 79.4551 22.0624C79.8866 22.0624 80.3137 21.9774 80.7123 21.8121C81.1108 21.6469 81.4729 21.4048 81.7777 21.0995C82.3885 20.427 82.7268 19.5512 82.7268 18.6427C82.7268 17.7343 82.3885 16.8584 81.7777 16.1859C81.4729 15.8807 81.1108 15.6386 80.7123 15.4733C80.3137 15.3081 79.8866 15.2231 79.4551 15.2231C79.0237 15.2231 78.5965 15.3081 78.198 15.4733C77.7995 15.6386 77.4374 15.8807 77.1326 16.1859C76.5133 16.8507 76.1638 17.7223 76.1524 18.6308C76.1409 19.5392 76.4683 20.4194 77.0706 21.0995H77.1326Z" fill="white" stroke="white" stroke-width="0.2" stroke-miterlimit="10"/>
<path d="M89.3134 23.102C88.128 23.102 86.9911 22.6311 86.1529 21.7929C85.3147 20.9547 84.8438 19.8178 84.8438 18.6323C84.8437 17.4469 85.3147 16.31 86.1529 15.4718C86.9911 14.6336 88.128 14.1627 89.3134 14.1627C89.9083 14.1461 90.4993 14.2637 91.0426 14.5067C91.5858 14.7497 92.0674 15.112 92.4515 15.5665L91.6876 16.3098C91.4057 15.9537 91.0438 15.669 90.6313 15.4789C90.2188 15.2888 89.7673 15.1986 89.3134 15.2156C88.8774 15.2074 88.4443 15.2873 88.0398 15.4505C87.6354 15.6137 87.2681 15.8568 86.9599 16.1653C86.3374 16.8401 85.9918 17.7246 85.9918 18.6427C85.9918 19.5608 86.3374 20.4452 86.9599 21.1201C87.2681 21.4286 87.6354 21.6717 88.0398 21.8349C88.4443 21.998 88.8774 22.0779 89.3134 22.0698C89.8151 22.0718 90.311 21.9616 90.7646 21.7473C91.2183 21.533 91.6183 21.2199 91.9354 20.831L92.6992 21.5949C92.3008 22.0722 91.7997 22.4532 91.2334 22.7098C90.6302 22.9806 89.9745 23.1146 89.3134 23.102Z" fill="white" stroke="white" stroke-width="0.2" stroke-miterlimit="10"/>
<path d="M97.157 22.9162H96.0628V15.422H93.668V14.4517H99.5519V15.5046H97.157V22.9988V22.9162Z" fill="white" stroke="white" stroke-width="0.2" stroke-miterlimit="10"/>
<path d="M107.086 14.4517L103.845 21.6775C103.724 22.1279 103.454 22.524 103.079 22.8015C102.704 23.0789 102.247 23.2212 101.781 23.2052C101.489 23.1998 101.201 23.1366 100.934 23.0194L101.223 22.0078C101.398 22.1129 101.597 22.1698 101.801 22.173C102.011 22.1882 102.22 22.1377 102.4 22.0284C102.574 21.8852 102.708 21.7007 102.792 21.4917L103.226 20.6452L100.273 14.4517H101.574L103.639 19.3652L105.703 14.4517H107.004H107.086Z" fill="white" stroke="white" stroke-width="0.2" stroke-miterlimit="10"/>
<path d="M108.345 22.9162V14.4517H114.538V22.9988H113.444V15.5046H109.418V22.9988H108.324L108.345 22.9162Z" fill="white" stroke="white" stroke-width="0.2" stroke-miterlimit="10"/>
<path d="M116.48 22.9162V14.4517H117.678V18.1265H121.807V14.4517H122.901V22.9988H121.807V19.1381H117.678V22.9988H116.584L116.48 22.9162Z" fill="white" stroke="white" stroke-width="0.2" stroke-miterlimit="10"/>
<path d="M131.923 21.8221C131.094 22.6292 129.983 23.0808 128.826 23.0808C127.669 23.0808 126.558 22.6292 125.729 21.8221C124.922 20.9643 124.473 19.8309 124.473 18.6531C124.473 17.4752 124.922 16.3418 125.729 15.484C126.555 14.672 127.668 14.217 128.826 14.217C129.984 14.217 131.096 14.672 131.923 15.484C132.734 16.3395 133.187 17.4738 133.187 18.6531C133.187 19.8323 132.734 20.9667 131.923 21.8221ZM126.472 21.0995C126.777 21.4048 127.139 21.6469 127.538 21.8121C127.936 21.9774 128.364 22.0624 128.795 22.0624C129.226 22.0624 129.654 21.9774 130.052 21.8121C130.451 21.6469 130.813 21.4048 131.118 21.0995C131.728 20.427 132.067 19.5512 132.067 18.6427C132.067 17.7343 131.728 16.8584 131.118 16.1859C130.813 15.8807 130.451 15.6386 130.052 15.4733C129.654 15.3081 129.226 15.2231 128.795 15.2231C128.364 15.2231 127.936 15.3081 127.538 15.4733C127.139 15.6386 126.777 15.8807 126.472 16.1859C125.859 16.8559 125.517 17.7303 125.513 18.6387C125.509 19.5472 125.844 20.4245 126.452 21.0995H126.472Z" fill="white" stroke="white" stroke-width="0.2" stroke-miterlimit="10"/>
<path d="M137.664 22.9162V14.4516H140.761C141.402 14.4431 142.022 14.6794 142.495 15.1123C142.739 15.3152 142.933 15.5716 143.062 15.8616C143.191 16.1516 143.251 16.4674 143.238 16.7846C143.248 17.1657 143.14 17.5405 142.929 17.8581C142.715 18.1643 142.423 18.4069 142.082 18.56C142.493 18.699 142.852 18.9579 143.114 19.3033C143.387 19.6505 143.532 20.0802 143.527 20.5213C143.534 20.8485 143.469 21.1732 143.337 21.4727C143.205 21.7723 143.009 22.0394 142.763 22.2555C142.269 22.7123 141.62 22.9633 140.947 22.9574H137.685L137.664 22.9162ZM138.758 18.0232H140.823C141.008 18.0303 141.193 17.997 141.364 17.9257C141.535 17.8544 141.688 17.7468 141.814 17.6103C142.05 17.3709 142.182 17.0483 142.182 16.7123C142.182 16.3762 142.05 16.0537 141.814 15.8142C141.693 15.6771 141.544 15.5688 141.376 15.4973C141.208 15.4258 141.026 15.3931 140.843 15.4013H138.779V18.0232H138.758ZM138.758 21.8632H140.967C141.161 21.871 141.353 21.8361 141.532 21.7612C141.71 21.6863 141.87 21.5731 142 21.4297C142.249 21.1678 142.389 20.8209 142.392 20.4594C142.381 20.0797 142.221 19.7195 141.947 19.4568C141.673 19.1941 141.306 19.0499 140.926 19.0555H138.861V21.8632H138.758Z" fill="white" stroke="white" stroke-width="0.2" stroke-miterlimit="10"/>
</g>
<defs>
<linearGradient id="paint0_linear_244_1657" x1="37.4505" y1="16.8053" x2="13.5228" y2="40.7331" gradientUnits="userSpaceOnUse">
<stop stop-color="#00A0FF"/>
<stop offset="0.01" stop-color="#00A1FF"/>
<stop offset="0.26" stop-color="#00BEFF"/>
<stop offset="0.51" stop-color="#00D2FF"/>
<stop offset="0.76" stop-color="#00DFFF"/>
<stop offset="1" stop-color="#00E3FF"/>
</linearGradient>
<linearGradient id="paint1_linear_244_1657" x1="54.6066" y1="32.9085" x2="20.1085" y2="32.9085" gradientUnits="userSpaceOnUse">
<stop stop-color="#FFE000"/>
<stop offset="0.41" stop-color="#FFBD00"/>
<stop offset="0.78" stop-color="#FFA500"/>
<stop offset="1" stop-color="#FF9C00"/>
</linearGradient>
<linearGradient id="paint2_linear_244_1657" x1="41.7674" y1="36.1705" x2="9.31319" y2="68.6248" gradientUnits="userSpaceOnUse">
<stop stop-color="#FF3A44"/>
<stop offset="1" stop-color="#C31162"/>
</linearGradient>
<linearGradient id="paint3_linear_244_1657" x1="16.7867" y1="4.64524" x2="31.259" y2="19.1175" gradientUnits="userSpaceOnUse">
<stop stop-color="#32A071"/>
<stop offset="0.07" stop-color="#2DA771"/>
<stop offset="0.48" stop-color="#15CF74"/>
<stop offset="0.8" stop-color="#06E775"/>
<stop offset="1" stop-color="#00F076"/>
</linearGradient>
<clipPath id="clip0_244_1657">
<rect width="206.4" height="64" fill="white"/>
</clipPath>
</defs>
</svg>
