<svg width="322" height="80" viewBox="0 0 322 80" fill="none" xmlns="http://www.w3.org/2000/svg">
<path d="M5.7382 47.4018C4.63595 47.4018 3.56611 47.2657 2.5287 46.9937C1.49128 46.7216 0.648384 46.3588 0 45.9054L1.26435 43.0682C1.87383 43.4698 2.58057 43.7937 3.38456 44.0398C4.18856 44.286 4.97959 44.4091 5.75765 44.4091C7.23597 44.4091 7.97512 44.0398 7.97512 43.3014C7.97512 42.9127 7.76116 42.6277 7.33322 42.4463C6.91826 42.252 6.24394 42.0512 5.31027 41.8439C4.28582 41.6236 3.42995 41.3904 2.74267 41.1443C2.05538 40.8852 1.46535 40.4771 0.972576 39.92C0.479804 39.3629 0.233419 38.6115 0.233419 37.6657C0.233419 36.8366 0.460355 36.0916 0.914224 35.4309C1.36809 34.7572 2.04241 34.2261 2.93718 33.8374C3.84492 33.4487 4.95365 33.2544 6.26339 33.2544C7.15816 33.2544 8.03996 33.358 8.9088 33.5653C9.77763 33.7597 10.5427 34.0512 11.2041 34.4398L10.0175 37.2965C8.72077 36.5969 7.4629 36.2471 6.24394 36.2471C5.47885 36.2471 4.92124 36.3637 4.57111 36.5969C4.22098 36.8172 4.04592 37.1086 4.04592 37.4714C4.04592 37.8341 4.2534 38.1062 4.66837 38.2876C5.08333 38.469 5.75116 38.6568 6.67187 38.8512C7.70928 39.0714 8.56515 39.3111 9.23947 39.5702C9.92676 39.8163 10.5168 40.218 11.0096 40.775C11.5153 41.3192 11.7682 42.0641 11.7682 43.0099C11.7682 43.8261 11.5412 44.5645 11.0874 45.2252C10.6335 45.886 9.95269 46.4172 9.04496 46.8188C8.13722 47.2074 7.03497 47.4018 5.7382 47.4018ZM28.4472 33.5265V47.1297H24.5958V41.8244H19.3439V47.1297H15.4925V33.5265H19.3439V38.6374H24.5958V33.5265H28.4472ZM38.3607 42.1937L36.9212 43.7289V47.1297H33.1087V33.5265H36.9212V39.1815L42.1926 33.5265H46.433L40.8699 39.5508L46.7248 47.1297H42.251L38.3607 42.1937ZM55.7737 47.4018C53.7507 47.4018 52.1751 46.8512 51.0469 45.7499C49.9317 44.6487 49.3741 43.0876 49.3741 41.0665V33.5265H53.2255V40.9499C53.2255 43.1265 54.0879 44.2147 55.8126 44.2147C57.5243 44.2147 58.3802 43.1265 58.3802 40.9499V33.5265H62.1732V41.0665C62.1732 43.0876 61.6091 44.6487 60.4809 45.7499C59.3657 46.8512 57.7966 47.4018 55.7737 47.4018ZM66.7274 33.5265H70.5788V44.0787H77.0757V47.1297H66.7274V33.5265ZM91.4766 44.1564V47.1297H80.5448V33.5265H91.2237V36.4997H84.3573V38.7929H90.4068V41.669H84.3573V44.1564H91.4766ZM109.179 33.5265L103.344 47.1297H99.5509L93.7349 33.5265H97.8975L101.593 42.388L105.367 33.5265H109.179Z" fill="#284CA6"/>
<path d="M134.809 33.5263V47.1295H133.428V36.2469L128.079 45.4H127.398L122.049 36.3052V47.1295H120.668V33.5263H121.855L127.768 43.6121L133.623 33.5263H134.809ZM150.819 45.8858V47.1295H141.191V33.5263H150.528V34.77H142.63V39.6089H149.672V40.8331H142.63V45.8858H150.819ZM156.148 33.5263H161.692C163.131 33.5263 164.402 33.8178 165.504 34.4008C166.607 34.9708 167.462 35.774 168.072 36.8105C168.681 37.834 168.986 39.0064 168.986 40.3279C168.986 41.6493 168.681 42.8283 168.072 43.8647C167.462 44.8882 166.607 45.6914 165.504 46.2744C164.402 46.8445 163.131 47.1295 161.692 47.1295H156.148V33.5263ZM161.614 45.8858C162.807 45.8858 163.851 45.6526 164.746 45.1862C165.64 44.7068 166.334 44.0526 166.827 43.2234C167.32 42.3813 167.566 41.4161 167.566 40.3279C167.566 39.2396 167.32 38.2809 166.827 37.4518C166.334 36.6097 165.64 35.9554 164.746 35.489C163.851 35.0097 162.807 34.77 161.614 34.77H157.588V45.8858H161.614ZM174.163 33.5263H175.603V47.1295H174.163V33.5263ZM190.518 43.4955H182.932L181.298 47.1295H179.8L186.024 33.5263H187.444L193.669 47.1295H192.152L190.518 43.4955ZM189.992 42.3295L186.725 35.0226L183.457 42.3295H189.992ZM216.281 33.5263V47.1295H214.862V40.8526H206.342V47.1295H204.902V33.5263H206.342V39.5894H214.862V33.5263H216.281ZM228.623 47.2461C227.274 47.2461 226.049 46.9481 224.946 46.3522C223.857 45.7433 223.001 44.9141 222.379 43.8647C221.769 42.8153 221.465 41.6364 221.465 40.3279C221.465 39.0194 221.769 37.8404 222.379 36.791C223.001 35.7416 223.857 34.919 224.946 34.323C226.049 33.7141 227.274 33.4097 228.623 33.4097C229.971 33.4097 231.184 33.7076 232.26 34.3036C233.35 34.8995 234.205 35.7287 234.828 36.791C235.45 37.8404 235.762 39.0194 235.762 40.3279C235.762 41.6364 235.45 42.8218 234.828 43.8842C234.205 44.9336 233.35 45.7562 232.26 46.3522C231.184 46.9481 229.971 47.2461 228.623 47.2461ZM228.623 45.9635C229.699 45.9635 230.672 45.7238 231.541 45.2445C232.409 44.7522 233.09 44.0785 233.583 43.2234C234.076 42.3554 234.322 41.3902 234.322 40.3279C234.322 39.2655 234.076 38.3068 233.583 37.4518C233.09 36.5838 232.409 35.9101 231.541 35.4307C230.672 34.9384 229.699 34.6923 228.623 34.6923C227.546 34.6923 226.567 34.9384 225.686 35.4307C224.817 35.9101 224.13 36.5838 223.624 37.4518C223.131 38.3068 222.885 39.2655 222.885 40.3279C222.885 41.3902 223.131 42.3554 223.624 43.2234C224.13 44.0785 224.817 44.7522 225.686 45.2445C226.567 45.7238 227.546 45.9635 228.623 45.9635ZM240.933 33.5263H242.372V45.8858H249.997V47.1295H240.933V33.5263ZM254.333 33.5263H259.877C261.316 33.5263 262.587 33.8178 263.689 34.4008C264.791 34.9708 265.647 35.774 266.257 36.8105C266.866 37.834 267.171 39.0064 267.171 40.3279C267.171 41.6493 266.866 42.8283 266.257 43.8647C265.647 44.8882 264.791 45.6914 263.689 46.2744C262.587 46.8445 261.316 47.1295 259.877 47.1295H254.333V33.5263ZM259.799 45.8858C260.992 45.8858 262.036 45.6526 262.93 45.1862C263.825 44.7068 264.519 44.0526 265.012 43.2234C265.504 42.3813 265.751 41.4161 265.751 40.3279C265.751 39.2396 265.504 38.2809 265.012 37.4518C264.519 36.6097 263.825 35.9554 262.93 35.489C262.036 35.0097 260.992 34.77 259.799 34.77H255.772V45.8858H259.799ZM272.348 33.5263H273.788V47.1295H272.348V33.5263ZM291.542 33.5263V47.1295H290.356L281.603 36.0915V47.1295H280.163V33.5263H281.35L290.122 44.5643V33.5263H291.542ZM307.522 40.3279H308.903V45.5165C308.267 46.0736 307.515 46.5012 306.646 46.7991C305.778 47.0971 304.863 47.2461 303.904 47.2461C302.542 47.2461 301.317 46.9481 300.227 46.3522C299.138 45.7562 298.282 44.9336 297.66 43.8842C297.037 42.8218 296.726 41.6364 296.726 40.3279C296.726 39.0194 297.037 37.8404 297.66 36.791C298.282 35.7287 299.138 34.8995 300.227 34.3036C301.317 33.7076 302.549 33.4097 303.923 33.4097C304.961 33.4097 305.914 33.5781 306.783 33.9149C307.651 34.2388 308.384 34.7246 308.981 35.3724L308.086 36.2858C307.009 35.2234 305.641 34.6923 303.982 34.6923C302.879 34.6923 301.881 34.9384 300.986 35.4307C300.104 35.9101 299.41 36.5838 298.905 37.4518C298.399 38.3068 298.146 39.2655 298.146 40.3279C298.146 41.3902 298.399 42.3489 298.905 43.204C299.41 44.0591 300.104 44.7327 300.986 45.2251C301.868 45.7174 302.86 45.9635 303.962 45.9635C305.363 45.9635 306.549 45.6137 307.522 44.9141V40.3279Z" fill="black"/>
<path fill-rule="evenodd" clip-rule="evenodd" d="M240.798 0H322V80H240.798V58.9296H243.067V77.7328H319.731V2.26721H243.067V20.8845H240.798V0Z" fill="#284CA6"/>
<path d="M4.66756 59.0641V60.098C3.76404 60.098 3.04952 60.3441 2.52401 60.8364C1.99849 61.3207 1.73557 61.9607 1.73557 62.7564V65.5872H0.479004V59.1872H1.67397L1.69861 60.418H1.72325C2.47894 59.5153 3.46027 59.0641 4.66756 59.0641ZM8.0103 61.9195H11.472C11.4636 61.3122 11.3077 60.8445 11.0039 60.5164C10.7082 60.1883 10.2975 60.0241 9.77196 60.0241C9.24612 60.0241 8.82338 60.1922 8.50307 60.5287C8.19088 60.8568 8.02651 61.3207 8.0103 61.9195ZM8.0103 62.8795C8.03494 63.4538 8.23205 63.9092 8.60163 64.2457C8.97931 64.5822 9.45166 64.7503 10.0183 64.7503C10.6343 64.7503 11.2503 64.5945 11.8662 64.2826L12.1742 65.218C11.4597 65.5461 10.6998 65.7103 9.89516 65.7103C8.9751 65.7103 8.21973 65.4107 7.62841 64.8118C7.04518 64.2045 6.75374 63.3964 6.75374 62.3872C6.75374 61.3534 7.02476 60.5411 7.56681 59.9503C8.11696 59.3595 8.8519 59.0641 9.77196 59.0641C10.6836 59.0641 11.3939 59.343 11.9032 59.9011C12.4122 60.4591 12.667 61.2672 12.667 62.3257C12.667 62.4488 12.6586 62.6334 12.6424 62.8795H8.0103ZM16.2561 62.2641C16.2561 62.9534 16.4082 63.4949 16.7119 63.8888C17.016 64.2826 17.406 64.4795 17.8823 64.4795C18.3997 64.4795 18.8146 64.2907 19.1265 63.9134C19.4468 63.5276 19.607 62.9984 19.607 62.3257V62.2026C19.607 61.5215 19.4468 60.9922 19.1265 60.6149C18.8062 60.2376 18.3916 60.0488 17.8823 60.0488C17.3733 60.0488 16.9749 60.2376 16.6873 60.6149C16.4001 60.9841 16.2561 61.5338 16.2561 62.2641ZM15.0488 62.2641C15.0488 61.2222 15.2706 60.4303 15.7141 59.8888C16.1576 59.3391 16.7777 59.0641 17.5743 59.0641C18.4532 59.0641 19.1349 59.413 19.6193 60.1103H19.6439L19.6686 59.1872H20.8389V64.9718C20.8389 67.2692 19.7918 68.418 17.6975 68.418C16.9749 68.418 16.2973 68.2949 15.6648 68.0488L15.9112 67.0641C16.5356 67.3103 17.1308 67.4334 17.6975 67.4334C18.3627 67.4334 18.8474 67.2487 19.1512 66.8795C19.4552 66.5184 19.607 65.903 19.607 65.0334V64.4795H19.5823C19.1226 65.136 18.4532 65.4641 17.5743 65.4641C16.8517 65.4641 16.248 65.173 15.7634 64.5903C15.2871 64.0076 15.0488 63.2322 15.0488 62.2641ZM24.276 57.7103V56.3564H25.5818V57.7103H24.276ZM24.276 65.5872V59.1872H25.5818V65.5872H24.276ZM29.4293 59.9626C29.996 59.3637 30.7433 59.0641 31.6714 59.0641C32.5993 59.0641 33.3427 59.3637 33.9012 59.9626C34.4679 60.5615 34.7513 61.3699 34.7513 62.3872C34.7513 63.4045 34.4679 64.213 33.9012 64.8118C33.3427 65.4107 32.5993 65.7103 31.6714 65.7103C30.7433 65.7103 29.996 65.4107 29.4293 64.8118C28.8708 64.213 28.5916 63.4045 28.5916 62.3872C28.5916 61.3699 28.8708 60.5615 29.4293 59.9626ZM30.341 64.1103C30.6694 64.5207 31.1129 64.7257 31.6714 64.7257C32.2297 64.7257 32.6732 64.5207 33.0019 64.1103C33.3303 63.6999 33.4947 63.1257 33.4947 62.3872C33.4947 61.6488 33.3303 61.0745 33.0019 60.6641C32.6732 60.2538 32.2297 60.0488 31.6714 60.0488C31.1129 60.0488 30.6694 60.2538 30.341 60.6641C30.0122 61.0745 29.8482 61.6488 29.8482 62.3872C29.8482 63.1257 30.0122 63.6999 30.341 64.1103ZM38.4989 59.1872L38.5236 60.1103H38.5482C38.8111 59.7822 39.1272 59.5276 39.4968 59.3472C39.8664 59.1584 40.2525 59.0641 40.6548 59.0641C42.0511 59.0641 42.7491 60.0076 42.7491 61.8949V65.5872H41.5418V62.018C41.5418 61.2714 41.4432 60.7626 41.2461 60.4918C41.0571 60.213 40.7164 60.0734 40.2236 60.0734C39.8048 60.0734 39.4229 60.2826 39.0779 60.7011C38.733 61.1114 38.5605 61.5914 38.5605 62.1411V65.5872H37.3286V59.1872H38.4989ZM49.5137 62.4118H48.8977C48.1585 62.4118 47.5877 62.5391 47.1853 62.7934C46.7911 63.0476 46.594 63.3841 46.594 63.8026C46.594 64.1061 46.6841 64.3483 46.865 64.5288C47.0537 64.7011 47.3001 64.7872 47.6042 64.7872C48.1216 64.7872 48.569 64.6107 48.947 64.258C49.3247 63.8968 49.5137 63.458 49.5137 62.9411V62.4118ZM45.3867 63.8641C45.3867 63.1503 45.6863 62.5799 46.286 62.1534C46.8936 61.7184 47.7643 61.5011 48.8977 61.5011H49.5137V61.4395C49.5137 60.9226 49.4067 60.5615 49.1934 60.3564C48.9878 60.1514 48.6225 60.0488 48.097 60.0488C47.3166 60.0488 46.5979 60.2334 45.9411 60.6026L45.7563 59.618C46.4462 59.2488 47.2262 59.0641 48.097 59.0641C49.0248 59.0641 49.6985 59.253 50.1173 59.6303C50.5362 59.9995 50.7456 60.5903 50.7456 61.4026V63.8641C50.7456 64.4468 50.8072 65.0211 50.9304 65.5872H49.7601C49.6942 65.2261 49.6573 64.898 49.6492 64.6026H49.6245C49.3944 64.9472 49.0741 65.218 48.6636 65.4149C48.261 65.6118 47.8052 65.7103 47.2962 65.7103C46.713 65.7103 46.2491 65.5461 45.9041 65.218C45.5592 64.8899 45.3867 64.4384 45.3867 63.8641ZM54.2391 65.5872V56.3564H55.5449V65.5872H54.2391ZM65.0454 59.1872L65.07 60.1103H65.0947C65.3576 59.7822 65.6737 59.5276 66.0432 59.3472C66.4128 59.1584 66.7989 59.0641 67.2013 59.0641C68.5975 59.0641 69.2955 60.0076 69.2955 61.8949V65.5872H68.0882V62.018C68.0882 61.2714 67.9897 60.7626 67.7926 60.4918C67.6039 60.213 67.2628 60.0734 66.7701 60.0734C66.3512 60.0734 65.9693 60.2826 65.6244 60.7011C65.2794 61.1114 65.107 61.5914 65.107 62.1411V65.5872H63.875V59.1872H65.0454ZM73.0665 61.9195H76.5283C76.5201 61.3122 76.3642 60.8445 76.0601 60.5164C75.7645 60.1883 75.354 60.0241 74.8282 60.0241C74.3027 60.0241 73.8796 60.1922 73.5593 60.5287C73.2474 60.8568 73.0831 61.3207 73.0665 61.9195ZM73.0665 62.8795C73.0912 63.4538 73.2883 63.9092 73.6579 64.2457C74.0359 64.5822 74.5079 64.7503 75.0746 64.7503C75.6905 64.7503 76.3065 64.5945 76.9225 64.2826L77.2305 65.218C76.5159 65.5461 75.7563 65.7103 74.9514 65.7103C74.0316 65.7103 73.276 65.4107 72.6846 64.8118C72.1017 64.2045 71.81 63.3964 71.81 62.3872C71.81 61.3534 72.081 60.5411 72.623 59.9503C73.1735 59.3595 73.9085 59.0641 74.8282 59.0641C75.7398 59.0641 76.4504 59.343 76.9594 59.9011C77.4687 60.4591 77.7232 61.2672 77.7232 62.3257C77.7232 62.4488 77.7151 62.6334 77.6986 62.8795H73.0665ZM82.5381 59.4334H84.8541V60.418H82.5381V63.3718C82.5381 63.9053 82.6078 64.2661 82.7476 64.4549C82.8869 64.6353 83.1376 64.7257 83.499 64.7257C83.9095 64.7257 84.279 64.6518 84.6078 64.5041L84.7926 65.4641C84.3244 65.6283 83.8316 65.7103 83.3142 65.7103C82.5913 65.7103 82.07 65.5503 81.7497 65.2303C81.4375 64.9103 81.2816 64.373 81.2816 63.618V60.418H79.9264V59.4334H81.2816V57.0949H82.5381V59.4334ZM88.8647 59.1872L90.0227 64.4795H90.0474L91.1438 59.1872H92.8685L93.9649 64.4795H93.9895L95.1476 59.1872H96.478L94.7533 65.5872H93.0902L91.9938 60.418H91.9692L90.8728 65.5872H89.2097L87.485 59.1872H88.8647ZM99.4062 59.9626C99.9728 59.3637 100.72 59.0641 101.648 59.0641C102.576 59.0641 103.319 59.3637 103.878 59.9626C104.445 60.5615 104.728 61.3699 104.728 62.3872C104.728 63.4045 104.445 64.213 103.878 64.8118C103.319 65.4107 102.576 65.7103 101.648 65.7103C100.72 65.7103 99.9728 65.4107 99.4062 64.8118C98.8476 64.213 98.5684 63.4045 98.5684 62.3872C98.5684 61.3699 98.8476 60.5615 99.4062 59.9626ZM100.318 64.1103C100.646 64.5207 101.09 64.7257 101.648 64.7257C102.207 64.7257 102.65 64.5207 102.979 64.1103C103.307 63.6999 103.472 63.1257 103.472 62.3872C103.472 61.6488 103.307 61.0745 102.979 60.6641C102.65 60.2538 102.207 60.0488 101.648 60.0488C101.09 60.0488 100.646 60.2538 100.318 60.6641C99.9894 61.0745 99.825 61.6488 99.825 62.3872C99.825 63.1257 99.9894 63.6999 100.318 64.1103ZM111.494 59.0641V60.098C110.591 60.098 109.876 60.3441 109.35 60.8364C108.825 61.3207 108.562 61.9607 108.562 62.7564V65.5872H107.305V59.1872H108.5L108.525 60.418H108.55C109.305 59.5153 110.287 59.0641 111.494 59.0641ZM115.57 62.6334H115.545V65.5872H114.313V56.3564H115.545V61.7718H115.57L118.379 59.1872H119.919L116.593 62.2026L119.98 65.5872H118.44L115.57 62.6334Z" fill="#4E4E4E"/>
</svg>
