<svg width="323" height="80" viewBox="0 0 323 80" fill="none" xmlns="http://www.w3.org/2000/svg">
<path d="M5.73047 47.3655C4.6297 47.3655 3.56131 47.236 2.52529 46.9446C1.48928 46.6856 0.647511 46.2971 0 45.8438L1.26265 42.9948C1.87778 43.3833 2.59004 43.707 3.36706 43.966C4.17645 44.225 4.95346 44.3222 5.73047 44.3222C7.21975 44.3222 7.93201 43.966 7.93201 43.2214C7.93201 42.8329 7.70538 42.5415 7.2845 42.3796C6.86362 42.1854 6.18373 41.9911 5.27722 41.7645C4.2412 41.5379 3.39943 41.3112 2.71955 41.0522C2.03966 40.7932 1.4569 40.3723 0.938891 39.822C0.453258 39.2716 0.194253 38.5269 0.194253 37.5557C0.194253 36.7139 0.420882 35.9693 0.87414 35.3217C1.3274 34.6419 2.00728 34.1239 2.88142 33.7353C3.78794 33.3468 4.88871 33.1526 6.21611 33.1526C7.12262 33.1526 7.99676 33.2497 8.8709 33.4763C9.74504 33.6706 10.4897 33.962 11.1696 34.3505L9.97167 37.1995C8.67665 36.4873 7.414 36.1635 6.21611 36.1635C5.43909 36.1635 4.88871 36.293 4.53258 36.5196C4.17645 36.7463 4.01457 37.0377 4.01457 37.3938C4.01457 37.7499 4.20882 38.0413 4.6297 38.2032C5.05059 38.3974 5.6981 38.5593 6.63699 38.7536C7.67301 38.9802 8.51477 39.2068 9.19466 39.4658C9.87454 39.7248 10.4573 40.1133 10.9753 40.6637C11.4933 41.2141 11.72 41.9587 11.72 42.8976C11.72 43.707 11.4933 44.4517 11.0401 45.0992C10.5868 45.7467 9.90692 46.2971 9.0004 46.6856C8.12626 47.1712 7.0255 47.3655 5.73047 47.3655ZM28.3934 33.5087V47.1065H24.573V41.7969H19.3282V47.1065H15.4755V33.5087H19.3282V38.6241H24.573V33.5087H28.3934ZM38.3003 42.1854L36.8758 43.707V47.1065H33.0554V33.5087H36.8758V39.1744L42.153 33.5087H46.3942L40.8256 39.5306L46.6856 47.1065H42.2177L38.3003 42.1854ZM55.686 47.3655C53.6787 47.3655 52.0923 46.8151 50.9591 45.7143C49.8584 44.6135 49.2756 43.0595 49.2756 41.0198V33.4763H53.1283V40.8903C53.1283 43.0595 54.0024 44.1603 55.7183 44.1603C57.4342 44.1603 58.276 43.0595 58.276 40.8903V33.4763H62.0639V41.0198C62.0639 43.0271 61.5136 44.6135 60.3804 45.7143C59.2796 46.8151 57.7256 47.3655 55.686 47.3655ZM66.6289 33.5087H70.4816V44.0632H76.9567V47.1065H66.6289V33.5087ZM91.3638 44.1279V47.1065H80.4533V33.5087H91.1048V36.4873H84.2412V38.7859H90.2954V41.6674H84.2412V44.1603H91.3638V44.1279ZM109.041 33.5087L103.213 47.1065H99.4253L93.6301 33.5087H97.7742L101.465 42.3796L105.221 33.5087H109.041Z" fill="#284CA6"/>
<path d="M134.616 33.5087V47.1064H133.224V36.2282L127.882 45.3905H127.234L121.892 36.293V47.1064H120.5V33.5087H121.698L127.59 43.5775L133.45 33.5087H134.616ZM150.609 45.8761V47.1064H140.994V33.5087H150.318V34.7389H142.451V39.5629H149.476V40.7932H142.451V45.8437H150.609V45.8761ZM155.951 33.5087H161.487C162.912 33.5087 164.207 33.8 165.308 34.3828C166.409 34.9656 167.25 35.7426 167.865 36.7786C168.481 37.8146 168.772 38.9801 168.772 40.3075C168.772 41.6349 168.481 42.8004 167.865 43.8365C167.25 44.8725 166.409 45.6495 165.308 46.2322C164.207 46.815 162.944 47.074 161.487 47.074H155.951V33.5087ZM161.39 45.8761C162.588 45.8761 163.624 45.6495 164.531 45.1639C165.437 44.6782 166.117 44.0307 166.603 43.1889C167.088 42.3472 167.347 41.3759 167.347 40.3075C167.347 39.2068 167.088 38.2679 166.603 37.4261C166.117 36.5843 165.405 35.9368 164.531 35.4512C163.624 34.9656 162.588 34.7389 161.39 34.7389H157.376V45.8437H161.39V45.8761ZM173.92 33.5087H175.344V47.1064H173.92V33.5087ZM190.269 43.4803H182.693L181.075 47.1064H179.585L185.801 33.5087H187.226L193.442 47.1064H191.92L190.269 43.4803ZM189.719 42.3148L186.481 34.9979L183.211 42.3148H189.719ZM215.976 33.5087V47.1064H214.551V40.8255H206.036V47.1064H204.612V33.5087H206.036V39.5629H214.551V33.5087H215.976ZM228.311 47.2359C226.951 47.2359 225.753 46.9445 224.652 46.3294C223.551 45.7142 222.71 44.9048 222.094 43.8365C221.479 42.8004 221.188 41.6025 221.188 40.3075C221.188 39.0125 221.479 37.8146 222.094 36.7786C222.71 35.7426 223.584 34.9008 224.652 34.318C225.753 33.7029 226.983 33.4115 228.311 33.4115C229.67 33.4115 230.868 33.7029 231.937 34.318C233.037 34.9008 233.879 35.7426 234.494 36.811C235.109 37.847 235.433 39.0449 235.433 40.3399C235.433 41.6349 235.109 42.8328 234.494 43.9012C233.879 44.9372 233.005 45.779 231.937 46.3617C230.868 46.9121 229.67 47.2359 228.311 47.2359ZM228.311 45.9409C229.379 45.9409 230.35 45.7142 231.224 45.2286C232.099 44.743 232.778 44.0631 233.264 43.2213C233.75 42.3472 234.009 41.3759 234.009 40.3399C234.009 39.2715 233.75 38.3326 233.264 37.4585C232.778 36.5843 232.099 35.9044 231.224 35.4512C230.35 34.9656 229.379 34.7065 228.311 34.7065C227.242 34.7065 226.271 34.9656 225.364 35.4512C224.49 35.9368 223.81 36.6167 223.292 37.4585C222.807 38.3002 222.548 39.2715 222.548 40.3399C222.548 41.4083 222.807 42.3796 223.292 43.2213C223.81 44.0631 224.49 44.743 225.364 45.2286C226.271 45.7142 227.242 45.9409 228.311 45.9409ZM240.613 33.5087H242.038V45.8761H249.646V47.1064H240.581V33.5087H240.613ZM253.984 33.5087H259.521C260.945 33.5087 262.24 33.8 263.341 34.3828C264.442 34.9656 265.283 35.7426 265.899 36.7786C266.514 37.8146 266.805 38.9801 266.805 40.3075C266.805 41.6349 266.514 42.8004 265.899 43.8365C265.283 44.8725 264.442 45.6495 263.341 46.2322C262.24 46.815 260.978 47.074 259.521 47.074H253.984V33.5087ZM259.456 45.8761C260.654 45.8761 261.69 45.6495 262.596 45.1639C263.503 44.6782 264.183 44.0307 264.668 43.1889C265.154 42.3472 265.413 41.3759 265.413 40.3075C265.413 39.2068 265.154 38.2679 264.668 37.4261C264.183 36.5843 263.47 35.9368 262.596 35.4512C261.69 34.9656 260.654 34.7389 259.456 34.7389H255.441V45.8437H259.456V45.8761ZM271.985 33.5087H273.41V47.1064H271.985V33.5087ZM291.152 33.5087V47.1064H289.954L281.212 36.0663V47.1064H279.788V33.5087H280.986L289.759 44.5487V33.5087H291.152ZM307.113 40.3075H308.505V45.4876C307.857 46.038 307.113 46.4589 306.239 46.7826C305.364 47.074 304.458 47.2359 303.487 47.2359C302.127 47.2359 300.897 46.9445 299.828 46.3294C298.727 45.7466 297.886 44.9048 297.271 43.8688C296.655 42.8004 296.332 41.6349 296.332 40.3075C296.332 39.0125 296.655 37.8146 297.271 36.7786C297.886 35.7102 298.76 34.9008 299.828 34.2857C300.929 33.7029 302.159 33.3792 303.519 33.3792C304.555 33.3792 305.494 33.541 306.368 33.8972C307.242 34.2209 307.954 34.7065 308.57 35.3541L307.663 36.2606C306.595 35.1922 305.235 34.6742 303.551 34.6742C302.451 34.6742 301.447 34.9332 300.573 35.4188C299.699 35.9044 298.986 36.5843 298.501 37.4261C297.983 38.2679 297.756 39.2391 297.756 40.3075C297.756 41.3759 298.015 42.3148 298.501 43.1889C299.019 44.0307 299.699 44.7106 300.573 45.1962C301.447 45.6819 302.451 45.9409 303.551 45.9409C304.944 45.9409 306.141 45.5847 307.113 44.9048V40.3075Z" fill="black"/>
<path fill-rule="evenodd" clip-rule="evenodd" d="M241.164 0H322.265V80H241.164V58.9235H243.43V77.7337H319.999V2.26629H243.43V20.8822H241.164V0Z" fill="#284CA6"/>
</svg>
