<svg width="154" height="20" viewBox="0 0 154 20" fill="none" xmlns="http://www.w3.org/2000/svg">
<path d="M8.06378 20C6.51481 20 5.01139 19.8178 3.55353 19.4077C2.09567 19.0433 0.911162 18.4966 0 17.8588L1.77677 13.8497C2.64237 14.3964 3.64465 14.8519 4.73804 15.2164C5.87699 15.5809 6.97039 15.7175 8.06378 15.7175C10.1595 15.7175 11.1617 15.2164 11.1617 14.1686C11.1617 13.6219 10.8428 13.2118 10.2506 12.9841C9.65831 12.7107 8.70159 12.4374 7.42597 12.1185C5.96811 11.7995 4.7836 11.4806 3.82688 11.1162C2.87016 10.7517 2.05011 10.1595 1.32118 9.38496C0.637813 8.61048 0.273349 7.56264 0.273349 6.1959C0.273349 5.01139 0.592255 3.96355 1.23007 3.05239C1.86788 2.09567 2.8246 1.36674 4.05467 0.820043C5.3303 0.273346 6.87927 0 8.74715 0C10.0228 0 11.2528 0.136674 12.4829 0.455581C13.713 0.728929 14.7608 1.13895 15.7175 1.68565L14.0319 5.69476C12.2096 4.69248 10.4328 4.2369 8.74715 4.2369C7.65376 4.2369 6.87927 4.41914 6.37813 4.73804C5.87699 5.05695 5.6492 5.46697 5.6492 5.96811C5.6492 6.46925 5.92255 6.87927 6.51481 7.10706C7.10706 7.38041 8.01822 7.6082 9.33941 7.88155C10.7973 8.20045 11.9818 8.51936 12.9385 8.88383C13.8952 9.24829 14.7153 9.79499 15.4442 10.5695C16.1731 11.344 16.492 12.3918 16.492 13.713C16.492 14.8519 16.1731 15.8998 15.5353 16.8109C14.8975 17.7221 13.9408 18.4966 12.6651 19.0433C11.4351 19.7266 9.8861 20 8.06378 20ZM39.9544 0.501138V19.6355H34.5786V12.164H27.1982V19.6355H21.7768V0.501138H27.1982V7.69932H34.5786V0.501138H39.9544ZM53.8952 12.7107L51.8907 14.8519V19.6355H46.5148V0.501138H51.8907V8.4738L59.3166 0.501138H65.2847L57.4487 8.97494L65.6948 19.6355H59.4077L53.8952 12.7107ZM78.3599 20C75.5353 20 73.303 19.2255 71.7084 17.6765C70.1594 16.1276 69.3394 13.9408 69.3394 11.0706V0.455581H74.7608V10.8884C74.7608 13.9408 75.9909 15.4897 78.4055 15.4897C80.82 15.4897 82.0045 13.9408 82.0045 10.8884V0.455581H87.3348V11.0706C87.3348 13.8952 86.5604 16.1276 84.9658 17.6765C83.4168 19.2255 81.2301 20 78.3599 20ZM93.7585 0.501138H99.1799V15.3531H108.292V19.6355H93.7585V0.501138ZM128.565 15.4442V19.6355H113.212V0.501138H128.2V4.69248H118.542V7.92711H127.061V11.9818H118.542V15.4897H128.565V15.4442ZM153.44 0.501138L145.239 19.6355H139.909L131.754 0.501138H137.585L142.779 12.9841L148.064 0.501138H153.44Z" fill="#284CA6"/>
</svg>
