<svg width="24" height="24" viewBox="0 0 24 24" fill="none" xmlns="http://www.w3.org/2000/svg">
<path fill-rule="evenodd" clip-rule="evenodd" d="M23.7722 22.6938L17.5762 16.5961C19.198 14.8345 20.1956 12.5022 20.1956 9.93627C20.1945 4.44862 15.6738 0 10.0967 0C4.51956 0 0 4.44862 0 9.93627C0 15.425 4.51956 19.8725 10.0967 19.8725C12.5066 19.8725 14.7167 19.0398 16.452 17.6559L22.6731 23.7765C22.9765 24.0745 23.4677 24.0745 23.7711 23.7765C24.0745 23.4775 24.0745 22.9929 23.7722 22.6938ZM10.0967 18.3445C5.37851 18.3445 1.55309 14.5802 1.55309 9.93627C1.55309 5.29228 5.37851 1.52908 10.0967 1.52908C14.816 1.52908 18.6403 5.29228 18.6403 9.93627C18.6403 14.5802 14.816 18.3445 10.0967 18.3445Z" fill="#727272"/>
</svg>
