<svg width="16" height="16" viewBox="0 0 16 16" fill="none" xmlns="http://www.w3.org/2000/svg">
<path d="M0 8C0 12.3929 3.5 16 8 16C12.5 16 16 12.3929 16 8C16 3.60714 12.5 0 8 0C3.5 0 0 3.60714 0 8ZM14.3929 8C14.3929 11.5714 11.6429 14.4286 8 14.4286C4.35714 14.4286 1.60714 11.5714 1.60714 8C1.60714 4.42857 4.35714 1.57143 8 1.57143C11.6429 1.57143 14.3929 4.42857 14.3929 8ZM3.42857 7.96429C3.42857 10.7857 5.35714 12.6429 8.07143 12.6429C10.3214 12.6429 11.9643 11.3571 12.5714 9.03571L11.0357 8.46429C10.7143 10.2143 9.71429 11.0714 8.07143 11.0714C6.46429 11.0714 5.17857 9.85714 5.17857 7.96429C5.17857 5.96428 6.42857 4.85714 7.96429 4.85714C9.35714 4.85714 10.4286 5.75 10.6071 7.07143L12.1429 6.60714C11.7143 4.46429 10.1429 3.35714 7.96429 3.35714C6.71429 3.35714 5.64286 3.78571 4.75 4.67857C3.85714 5.53572 3.42857 6.64286 3.42857 7.96429Z" fill="#727272"/>
</svg>
